<?xml version="1.0" encoding="utf-8"?>
<!-- Generator: Adobe Illustrator 25.2.3, SVG Export Plug-In . SVG Version: 6.00 Build 0)  -->
<svg version="1.1" id="Layer_1" xmlns="http://www.w3.org/2000/svg" xmlns:xlink="http://www.w3.org/1999/xlink" x="0px" y="0px"
	 viewBox="0 0 41.6 96.47" style="enable-background:new 0 0 41.6 96.47;" xml:space="preserve">
<style type="text/css">
	.st0{fill:#007476;}
	.st1{fill:#D8204D;}
</style>
<g>
	<circle class="st0" cx="30.7" cy="10.9" r="10.9"/>
	<path class="st1" d="M39.63,95.97c-0.83,0-1.5-0.67-1.5-1.5v-33.5c0-2.25-1.83-4.09-4.09-4.09c-2.25,0-4.09,1.83-4.09,4.09
		c0,0.83-0.67,1.5-1.5,1.5s-1.5-0.67-1.5-1.5c0-3.91,3.18-7.09,7.09-7.09c3.91,0,7.09,3.18,7.09,7.09v33.5
		C41.13,95.3,40.45,95.97,39.63,95.97z"/>
	<path class="st0" d="M19.63,19.49c-4.61-2.14-10.9,1.65-13.87,8.59S0.49,44.26,0.15,51.85c-0.29,6.49-0.08,19.72-0.02,23.45
		c0.01,0.56,0.46,0.99,1.02,0.99h2.6c0.56,0,1.02,0.46,1.02,1.02v14.17c0,0.02,0,0.04,0,0.06c0.03,0.39,0.43,4.93,5.05,4.93
		c3.87,0,5.19-2.31,5.52-4.62c0.27-1.87,0.32-11.9,0.33-14.54c0-0.56,0.46-1.01,1.02-1.01h6.88c0.56,0,1.02-0.46,1.02-1.02V52.61
		c0-0.85,0.98-1.33,1.65-0.8l5.81,4.58c0.06,0.05,0.13,0.09,0.2,0.12c0.61,0.28,3.69,1.54,5.26-0.64c1.75-2.44-0.26-4.73-1.08-5.4
		c-0.64-0.52-7.96-6-9.75-8.53c-1.87-2.64-2.86-6.83-2.57-9.73C24.35,29.82,27.45,23.12,19.63,19.49z"/>
</g>
</svg>
