<?xml version="1.0" encoding="utf-8"?>
<!-- Generator: Adobe Illustrator 25.2.3, SVG Export Plug-In . SVG Version: 6.00 Build 0)  -->
<svg version="1.1" id="Layer_1" xmlns="http://www.w3.org/2000/svg" xmlns:xlink="http://www.w3.org/1999/xlink" x="0px" y="0px"
	 viewBox="0 0 116.1 83.32" style="enable-background:new 0 0 116.1 83.32;" xml:space="preserve">
<g>
	<g>
		<circle  fill="#D71F4D" cx="60.06" cy="33.25" r="12.47"/>
	</g>
	<g>
		<path fill="#D71F4D" d="M36.75,71.43c0-12.87,10.43-23.3,23.3-23.3s23.3,10.43,23.3,23.3"/>
	</g>
</g>
<g>
	<path fill="#007476" d="M60.7,57.3C47.08,57.3,36,46.22,36,32.61s11.08-24.7,24.7-24.7s24.7,11.08,24.7,24.7S74.32,57.3,60.7,57.3z
		 M60.7,11.94c-11.4,0-20.67,9.27-20.67,20.67S49.3,53.28,60.7,53.28c11.4,0,20.67-9.27,20.67-20.67S72.09,11.94,60.7,11.94z"/>

		<rect x="77.62" y="47.38" transform="matrix(0.8032 -0.5958 0.5958 0.8032 -20.4588 61.8195)"  fill="#007476" width="11.42" height="28.97"/>
</g>
<g>
	<g>
		<path fill="#007476" d="M105.93,0H10.17C6.53,0,3.56,2.97,3.56,6.61v63.3c0,3.64,2.97,6.61,6.61,6.61h95.76
			c3.64,0,6.61-2.97,6.61-6.61V6.61C112.54,2.97,109.56,0,105.93,0z M104.36,64.17c0,3.64-2.97,6.61-6.61,6.61H18.34
			c-3.64,0-6.61-2.97-6.61-6.61V12.35c0-3.64,2.97-6.61,6.61-6.61h79.41c3.64,0,6.61,2.97,6.61,6.61V64.17z"/>
	</g>
	<path fill="#007476" d="M111.09,83.32H5c-2.75,0-5-2.25-5-5l0-3.5h116.1v3.5C116.1,81.07,113.84,83.32,111.09,83.32z"/>
</g>
</svg>
