<?xml version="1.0" encoding="utf-8"?>
<!-- Generator: Adobe Illustrator 26.0.3, SVG Export Plug-In . SVG Version: 6.00 Build 0)  -->
<svg version="1.1" id="Layer_1" xmlns="http://www.w3.org/2000/svg" xmlns:xlink="http://www.w3.org/1999/xlink" x="0px" y="0px"
	 viewBox="0 0 170.7 119" style="enable-background:new 0 0 170.7 119;" xml:space="preserve">
<g id="Rulers">
	<path fill="#007476" d="M32.1,116.2c0,0-0.2,3.8,5,2.5s13.1-0.6,13.1-0.6s8.9-7.5,10.2-10.5c0,0,4.2,1.2,6.5,1.7
		c2.3,0.5,4.2-2.4,4.2-2.4l5.6-0.3c0,0,4.5,2.1,4.6,2.6c0.2,0.5,1.1,2.4,3.3,2c2.3-0.4,0.2-3.2,2.5-5s5-3.7,6.9-2.8
		c1.9,0.8,0.7-3.8,0.7-3.8s0.7-1.1,4,1.8c3.2,2.8,6.3,2.1,7.6,0.1l2.2,1.7l5.1,0.7c0,0,6.4,2.9,4.6-3s1.6-14.2,1.6-14.2
		s1.8-4.3,0.5-7.2s-3.9-10.7-1.3-13.1c2.6-2.4,7.6-2.4,8-1.8c0.4,0.5-1.4,2.8,1.7,2.2s0.5-2.3,4.5-4c4-1.7,0.7-9.2-3.2-7.3
		s-4-4.2-4-6c0-1.7,1.3-0.3,1.1-3.9c0,0,5.3,1.2,4.4-1.8c-0.9-3,3.4-7.6,4.9-5.2s6,2.2,6.7-0.7s-1.1-2,1.3-3.5s-9.5-11.4-12.6-9.1
		c-3,2.3-6.6-0.3-6.6-0.3s-2.9,2.1-5.7,1.3c-2.8-0.8-1.5,6.5-1.5,6.5l-6.6-1.4c0,0-0.6,4.1-1.6,4.7c-1,0.6-3.1-3.8-3.1-3.8l-2.5,0.1
		c0,0-0.9-4.1-5.8-1.3l-3.7-3.7c0,0-3.2-1.5-5,0.5s-5-2.1-10.9,3.4s0.1,6.1-12.2,5.7l-2.8,1.7L60,32.9l0.2-2.7l-7.4-3v3.4
		c0,0-2.7,2.1-9.5-3.4s-10.2-1.1-10.2-1.1s-2.4-4.1-1.1-8c1.4-3.9,4.1-6.5,5.7-4.2s0,5.6,2.9,2.5s2.8-1.5,2.5-5.3c0,0,3.9-3,1.9-8.2
		s-2.3-2-5.3-1.1s-3.2-1-7.6,1.5c0,0-5.1-2.5-6.7,0.2S24.7,6,23.1,6.7s-1.9,4.6,0,5.1c1.9,0.5,1.7,4.1,0,3.9s-3.3,0.7-4.1,3.5
		L16.7,20l-0.3,5.2c0,0-6.7,0.8-2.5,4.1s-3.7,2.3-6.7,5c0,0-0.1,2,0.8,3.4S8.8,43,8.8,43l1.2,1.4l-1,4.3c0,0,1,2.9,3.3,3.1
		c2.4,0.2,1.6,4.4,1.6,4.4s-6.4-1.2-9.3,1c0,0-3.4-2.2-4.4-1c-1,1.2,0.5,4.6,3.4,6.8l0.2,4.8c0,0,10.2,2.3,16.7,1.9
		c0,0,1.5,4.8,6.8,4.1l2,7.3c0,0-0.8,0.9-3.4,1.3c-2.6,0.3-5,2.8-2.9,3.2s4.2,0.7,4.2,0.7l3.7,4.7l0.2,2.8c0,0-3.5,1-3.5,3.3
		c0,2.4,2.9,1.1,2.9,1.1l0.3,4.6c0,0-2,0.6-1.1,2.1s-2.4,4.8-3.3,5.3l-0.2,6.6c0,0,1.1,1.1,2.8-0.2
		C30.5,115.5,32.1,116.2,32.1,116.2z"/>
	<g>
		<path fill="#D8204D" d="M158.7,65.2l10-6.9c-0.3-0.4-32.9-25.4-82.1,0.6L79.7,47L63,75.9L96.3,76l-6.2-10.9
			c43.6-21.5,70.9,13.2,72.1,14.8v0L158.7,65.2z"/>
		<path fill="#FFFFFF" d="M79.7,47l6.8,11.9c16.8-8.9,31.7-11.8,44-11.8c23.8,0,38,10.9,38.2,11.2l-10,6.9l3.5,14.7v0
			c-0.9-1.2-17.1-21.8-44.2-21.8c-8.3,0-17.7,1.9-28,7L96.3,76L63,75.9L79.7,47 M79.7,45c-0.7,0-1.4,0.4-1.8,1L61.2,74.9
			c-0.4,0.6-0.4,1.4,0,2s1,1,1.8,1L96.3,78c0,0,0,0,0,0c0.7,0,1.4-0.4,1.8-1c0.4-0.6,0.4-1.4,0-2L93,66c8.5-3.9,16.9-5.9,25.1-5.9
			c26.2,0,41.9,20.1,42.6,21c0.4,0.5,1,0.8,1.6,0.8c0.4,0,0.8-0.1,1.1-0.3c0.8-0.5,1.1-1.4,0.9-2.3L161,66.1l8.8-6.1
			c0.5-0.3,0.8-0.8,0.9-1.3c0.1-0.6-0.1-1.1-0.4-1.6c-0.9-1.2-15.8-12-39.8-12c-14.1,0-28.6,3.7-43.2,11.1L81.5,46
			C81.1,45.4,80.5,45,79.7,45C79.8,45,79.7,45,79.7,45L79.7,45z"/>
	</g>
</g>
</svg>
