<?xml version="1.0" encoding="utf-8"?>
<!-- Generator: Adobe Illustrator 23.0.1, SVG Export Plug-In . SVG Version: 6.00 Build 0)  -->
<svg version="1.1" id="Layer_1" xmlns="http://www.w3.org/2000/svg" xmlns:xlink="http://www.w3.org/1999/xlink" x="0px" y="0px"
	 viewBox="0 0 1013 544" style="enable-background:new 0 0 1013 544;" xml:space="preserve">
<style type="text/css">
	.st0{fill:#626262;}
</style>
<path class="st0" d="M0,34c0-9.3,3.3-17.3,10-24S24.7,0,34,0s17.3,3.3,24,10l452,452L955,17c6.7-6.7,14.7-10,24-10s17.3,3.3,24,10
	s10,14.7,10,24s-3.3,17.3-10,24L534,534c-6.7,6.7-14.7,10-24,10c-9.3,0-17.3-3.3-24-10L10,59c-1.3-1.3-2.5-2.8-3.5-4.5
	s-1.8-3.3-2.5-5l-2-5l-1.5-5L0,34z"/>
</svg>
