<?xml version="1.0" encoding="utf-8"?>
<!-- Generator: Adobe Illustrator 25.2.3, SVG Export Plug-In . SVG Version: 6.00 Build 0)  -->
<svg version="1.1" id="Layer_1" xmlns="http://www.w3.org/2000/svg" xmlns:xlink="http://www.w3.org/1999/xlink" x="0px" y="0px"
	 viewBox="0 0 124.12 87.7" style="enable-background:new 0 0 124.12 87.7;" xml:space="preserve">
<g>
	<path fill="#006E73" d="M22.08,20.75c0.35-5.15,1.19-9.57,2.5-13.17c-4.63,3.56-8.53,8.29-11.41,13.85
		C15.61,21.54,18.69,21.3,22.08,20.75z"/>
	<path fill="#006E73" d="M11.15,21.81c-0.12,0.24-0.11,0.52,0.02,0.76c0.13,0.23,0.37,0.39,0.63,0.42c0.79,0.08,1.66,0.12,2.58,0.12
		c2.46,0,5.43-0.29,8.6-0.84c0.38-0.06,0.66-0.38,0.68-0.76c0.39-6.6,1.58-11.94,3.52-15.9c0.16-0.33,0.08-0.73-0.19-0.98
		c-0.28-0.25-0.68-0.27-0.99-0.07C19.8,8.61,14.66,14.57,11.15,21.81z M26.46,5.24c-1.98,4.02-3.21,9.53-3.61,16.21
		c-3.13,0.54-6.05,0.83-8.46,0.83c-0.9,0-1.74-0.04-2.5-0.11C15.32,15.08,20.41,9.19,26.46,5.24z"/>
	<path fill="#006E73" d="M14.39,22.28c2.42,0,5.33-0.28,8.46-0.83c0.4-6.68,1.63-12.19,3.61-16.21c-6.05,3.94-11.14,9.84-14.57,16.92
		C12.65,22.24,13.49,22.28,14.39,22.28z M24.58,7.58c-1.31,3.61-2.15,8.02-2.5,13.17c-3.38,0.55-6.46,0.79-8.91,0.68
		C16.05,15.87,19.95,11.14,24.58,7.58z"/>
	<path fill="#006E73" d="M30.13,4.84c-1.8,3.31-2.92,8.55-3.21,14.96c4.13-0.95,8.39-2.25,12.42-3.79
		C36.01,10.77,32.78,6.86,30.13,4.84z"/>
	<path fill="#006E73" d="M25.53,21.46c0.15,0.12,0.33,0.19,0.52,0.19c0.06,0,0.12-0.01,0.17-0.02c4.85-1.05,9.91-2.59,14.63-4.46
		c0.23-0.09,0.4-0.27,0.48-0.51c0.08-0.23,0.05-0.48-0.08-0.69C37.3,9.61,33.55,5.14,30.43,3.04c-0.21-0.14-0.46-0.18-0.7-0.1
		l-0.15,0.05c-0.19,0.06-0.36,0.18-0.47,0.35c-2.3,3.71-3.64,9.75-3.87,17.47C25.23,21.06,25.34,21.3,25.53,21.46z M29.8,3.77
		c0.05-0.02,0.11-0.03,0.16-0.05c3.01,2.02,6.73,6.48,10.59,12.69c-4.66,1.84-9.73,3.38-14.5,4.42C26.28,13.33,27.6,7.33,29.8,3.77z
		"/>
	<path fill="#006E73" d="M29.97,3.72c-0.06,0.02-0.11,0.03-0.16,0.05c-2.2,3.56-3.52,9.56-3.75,17.06c4.78-1.03,9.84-2.58,14.5-4.42
		C36.7,10.2,32.98,5.74,29.97,3.72z M30.13,4.84c2.65,2.02,5.88,5.93,9.21,11.17c-4.04,1.54-8.29,2.84-12.42,3.79
		C27.21,13.39,28.33,8.15,30.13,4.84z"/>
	<path fill="#006E73" d="M44.3,13.93c3.36-1.54,6.29-3.16,8.54-4.75c-5.67-3.19-11.68-5-17.52-5.28c3.33,2.93,6.41,6.95,8.62,10.18
		C44.06,14.04,44.18,13.99,44.3,13.93z"/>
	<path fill="#006E73" d="M32.48,3.73c4.04,2.93,7.94,8.06,10.49,11.85c0.16,0.23,0.41,0.36,0.68,0.36c0.11,0,0.22-0.02,0.33-0.07
		c0.33-0.15,0.67-0.3,1-0.45c4-1.83,7.4-3.79,9.85-5.67c0.22-0.17,0.33-0.43,0.32-0.7c-0.02-0.27-0.16-0.52-0.4-0.66
		C48,4.37,40.73,2.23,33.73,2.23c-0.26,0-0.53,0-0.79,0.01c-0.35,0.01-0.66,0.24-0.76,0.58C32.07,3.16,32.19,3.52,32.48,3.73z
		 M33.73,3.05c6.88,0,13.97,2.09,20.61,6.05c-2.41,1.85-5.72,3.76-9.7,5.57c-0.33,0.15-0.66,0.3-0.99,0.44
		c-2.82-4.18-6.67-9.15-10.69-12.06C33.21,3.06,33.47,3.05,33.73,3.05z"/>
	<path fill="#006E73" d="M43.65,15.12c0.33-0.14,0.66-0.29,0.99-0.44c3.97-1.82,7.29-3.72,9.7-5.57C47.7,5.14,40.6,3.05,33.73,3.05
		c-0.26,0-0.51,0-0.77,0.01C36.98,5.97,40.83,10.95,43.65,15.12z M35.32,3.91C41.16,4.19,47.16,6,52.84,9.19
		c-2.25,1.58-5.18,3.21-8.54,4.75c-0.12,0.05-0.24,0.11-0.35,0.16C41.73,10.86,38.65,6.84,35.32,3.91z"/>
	<path fill="#006E73" d="M45.84,1.69c3.57,1.02,7.09,2.51,10.51,4.46c0.84-0.97,1.13-1.66,1.13-2.07C53.75,2.69,49.84,1.89,45.84,1.69z
		"/>
	<path fill="#006E73" d="M38.71,1.95C44.66,2.61,50.5,4.61,56.09,7.9c0.13,0.08,0.27,0.11,0.42,0.11c0.22,0,0.43-0.09,0.59-0.25
		c1.81-1.88,2.41-3.46,1.78-4.67c-0.09-0.18-0.25-0.31-0.43-0.39C53.81,0.91,48.9,0,43.86,0c-1.72,0-3.45,0.11-5.15,0.32
		c-0.41,0.05-0.72,0.4-0.72,0.82C37.99,1.56,38.3,1.9,38.71,1.95z M43.86,0.82c4.94,0,9.75,0.89,14.29,2.65
		c0.58,1.11-0.67,2.72-1.64,3.73C50.85,3.86,44.81,1.8,38.8,1.14C40.49,0.92,42.17,0.82,43.86,0.82z"/>
	<path fill="#006E73" d="M58.15,3.47C53.6,1.71,48.8,0.82,43.86,0.82c-1.69,0-3.37,0.1-5.05,0.32c6.01,0.67,12.04,2.73,17.7,6.06
		C57.48,6.19,58.72,4.58,58.15,3.47z M45.84,1.69c4.01,0.2,7.91,1,11.64,2.4c0,0.4-0.29,1.1-1.13,2.07
		C52.93,4.2,49.41,2.71,45.84,1.69z"/>
	<path fill="#006E73" d="M8.22,20.29c0.91-1.69,1.91-3.31,2.99-4.85c-1.23,1.35-2.36,2.79-3.36,4.29C7.86,19.86,7.92,20.06,8.22,20.29z
		"/>
	<path fill="#006E73" d="M8.24,22.16c0.11,0.04,0.22,0.07,0.32,0.07c0.3,0,0.58-0.16,0.73-0.44c2.65-5.13,6.13-9.6,10.34-13.29
		c0.32-0.28,0.37-0.76,0.12-1.1s-0.72-0.44-1.09-0.21c-4.93,3.02-9.18,7.1-12.29,11.81c-0.06,0.09-0.1,0.19-0.12,0.3
		C6.1,20.14,6.31,21.33,8.24,22.16z M7.06,19.44c3.08-4.67,7.2-8.61,12.03-11.56c-4.24,3.71-7.84,8.32-10.53,13.53
		C6.98,20.73,6.98,19.9,7.06,19.44z"/>
	<path fill="#006E73" d="M8.56,21.41c2.69-5.22,6.29-9.82,10.53-13.53c-4.83,2.96-8.95,6.89-12.03,11.56
		C6.98,19.9,6.98,20.73,8.56,21.41z M11.21,15.44c-1.08,1.54-2.08,3.16-2.99,4.85c-0.3-0.23-0.36-0.42-0.37-0.56
		C8.86,18.22,9.98,16.79,11.21,15.44z"/>
	<path fill="#006E73" d="M10.78,26.87c-2.84,7.79-3.61,16.39-2.19,24.36c1.33,0.17,2.83,0.26,4.47,0.26c3.47,0,7.46-0.37,11.89-1.1
		c-1.96-7.92-3.03-16.39-3.05-24.06C17.58,26.99,13.79,27.18,10.78,26.87z"/>
	<path fill="#006E73" d="M22.59,24.55c-4.88,0.82-9.11,1.04-12.24,0.61c-0.37-0.05-0.74,0.17-0.88,0.52c-3.2,8.41-4.05,17.8-2.38,26.43
		c0.07,0.34,0.34,0.6,0.68,0.65c1.55,0.24,3.33,0.36,5.3,0.36c3.79,0,8.17-0.43,13.04-1.28c0.22-0.04,0.42-0.17,0.55-0.36
		c0.12-0.19,0.16-0.43,0.11-0.65c-2.15-8.37-3.29-17.42-3.22-25.47c0-0.24-0.1-0.47-0.29-0.63C23.07,24.58,22.82,24.51,22.59,24.55z
		 M25.96,51.05c-4.82,0.84-9.16,1.26-12.9,1.26c-1.93,0-3.66-0.12-5.17-0.35c-1.64-8.52-0.81-17.68,2.35-25.98
		c1.07,0.14,2.27,0.22,3.58,0.22c2.61,0,5.6-0.28,8.9-0.84C22.65,33.53,23.79,42.56,25.96,51.05z"/>
	<path fill="#006E73" d="M13.82,26.2c-1.31,0-2.51-0.07-3.58-0.22c-3.16,8.3-3.99,17.47-2.35,25.98c1.51,0.23,3.25,0.35,5.17,0.35
		c3.74,0,8.07-0.42,12.9-1.26c-2.18-8.48-3.32-17.51-3.24-25.68C19.42,25.92,16.43,26.2,13.82,26.2z M13.06,51.49
		c-1.64,0-3.14-0.09-4.47-0.26c-1.42-7.97-0.65-16.57,2.19-24.36c3.01,0.32,6.8,0.12,11.12-0.54c0.02,7.67,1.09,16.14,3.05,24.06
		C20.52,51.12,16.53,51.49,13.06,51.49z"/>
	<path fill="#006E73" d="M42.17,20.75c-4.96,1.94-10.22,3.54-15.3,4.65c0.2,7.58,1.42,16.04,3.45,23.97
		c6.29-1.35,12.99-3.32,19.26-5.64c0.17-1.43,0.75-2.73,1.62-3.79C48.56,33.17,45.42,26.49,42.17,20.75z"/>
	<path fill="#006E73" d="M49.53,44.61c-6.48,2.39-13.33,4.37-19.8,5.72c-2.24-8.48-3.55-17.5-3.69-25.59
		c5.48-1.15,11.15-2.87,16.5-5.01c3.35,5.84,6.56,12.62,9.29,19.54c0.21-0.2,0.43-0.38,0.66-0.56c-2.72-6.86-5.93-13.62-9.23-19.39
		c-0.2-0.36-0.63-0.5-1.02-0.35c-5.28,2.11-10.94,3.83-16.36,4.97c-0.38,0.08-0.66,0.42-0.65,0.82c0.15,8.12,1.47,17.28,3.72,25.79
		c0.1,0.37,0.43,0.61,0.79,0.61c0.06,0,0.11-0.01,0.17-0.02c6.38-1.33,13.2-3.3,19.63-5.65v-0.86
		C49.53,44.61,49.53,44.61,49.53,44.61z"/>
	<path fill="#006E73" d="M30.32,49.36c-2.04-7.93-3.26-16.39-3.45-23.97c5.08-1.11,10.34-2.7,15.3-4.65
		c3.24,5.74,6.39,12.42,9.03,19.18c0.19-0.23,0.4-0.45,0.62-0.66c-2.73-6.92-5.94-13.7-9.29-19.54c-5.34,2.14-11.01,3.86-16.5,5.01
		c0.15,8.09,1.45,17.11,3.69,25.59c6.46-1.35,13.32-3.33,19.8-5.72c0-0.3,0.02-0.6,0.06-0.89C43.31,46.04,36.61,48.01,30.32,49.36z"
		/>
	<path fill="#006E73" d="M64.22,37.2c3.64-1.95,6.76-3.93,9.17-5.86c-3.46-7.35-8.95-14.03-15.57-18.92c-2.72,2.12-6.47,4.29-10.9,6.32
		c3.36,5.54,6.56,11.97,9.23,18.51c0.26-0.03,0.52-0.04,0.78-0.04H64.22z"/>
	<path fill="#006E73" d="M45.74,18.37c0.27-0.12,0.54-0.24,0.81-0.36c4.67-2.13,8.54-4.41,11.25-6.62c7.15,5.14,13,12.26,16.6,20.18
		c-2.23,1.85-5.1,3.75-8.47,5.63h1.65c2.87-1.67,5.35-3.35,7.34-5c0.28-0.24,0.38-0.63,0.22-0.97c-3.64-8.02-9.63-15.3-16.87-20.51
		c-0.3-0.22-0.71-0.2-1,0.03c-2.65,2.16-6.48,4.41-11.07,6.51c-0.27,0.12-0.53,0.24-0.8,0.36c-0.22,0.1-0.38,0.28-0.45,0.51
		c-0.07,0.23-0.04,0.47,0.09,0.67c3.45,5.57,6.74,12.12,9.49,18.81c0.26-0.09,0.52-0.17,0.79-0.23
		C52.56,30.62,49.25,24.04,45.74,18.37z"/>
	<path fill="#006E73" d="M46.93,18.73c4.43-2.02,8.18-4.2,10.9-6.32c6.61,4.89,12.11,11.57,15.57,18.92c-2.41,1.93-5.53,3.91-9.17,5.86
		h1.71c3.37-1.88,6.23-3.78,8.47-5.63c-3.6-7.92-9.45-15.04-16.6-20.18c-2.71,2.21-6.58,4.48-11.25,6.62
		c-0.27,0.12-0.54,0.24-0.81,0.36c3.51,5.67,6.81,12.25,9.58,19.01c0.27-0.06,0.55-0.11,0.83-0.14
		C53.49,30.7,50.29,24.28,46.93,18.73z"/>
	<path fill="#006E73" d="M77.01,27.87c1.38-1.69,1.92-3.14,1.5-4.07l-0.87-1.77c-1.08-2.05-1.11-2.1-3.57-5.64l-0.38-0.49
		c-2.94-3.76-6.71-6.99-10.96-9.38c-0.29,0.89-0.82,1.8-1.58,2.74C67.77,14.11,73.35,20.65,77.01,27.87z"/>
	<path fill="#006E73" d="M76.08,29.68c0.12,0.24,0.35,0.42,0.61,0.46c0.04,0.01,0.08,0.01,0.13,0.01c0.22,0,0.44-0.09,0.6-0.26
		c3.17-3.36,3.15-5.54,2.58-6.8l-0.89-1.81c-1.14-2.18-1.24-2.31-3.71-5.87l-0.4-0.53c-3.3-4.22-7.6-7.8-12.44-10.34
		c-0.24-0.13-0.53-0.12-0.77,0c-0.24,0.13-0.4,0.37-0.43,0.64c-0.11,1.09-0.78,2.32-2.01,3.65c-0.16,0.17-0.24,0.41-0.21,0.64
		c0.02,0.23,0.15,0.45,0.34,0.58C66.52,15.05,72.42,22.01,76.08,29.68z M62.16,5.29c4.74,2.49,8.93,5.96,12.18,10.12l0.4,0.52
		c2.47,3.56,2.52,3.63,3.64,5.75l0.88,1.79c0.66,1.44-0.2,3.5-2.44,5.87c-3.73-7.84-9.66-14.84-16.88-19.92
		C61.47,7.75,62.06,6.38,62.16,5.29z"/>
	<path fill="#006E73" d="M76.82,29.33c2.24-2.37,3.1-4.43,2.44-5.87l-0.88-1.79c-1.12-2.12-1.16-2.19-3.64-5.75l-0.4-0.52
		c-3.25-4.16-7.43-7.63-12.18-10.12c-0.11,1.1-0.7,2.47-2.22,4.12C67.16,14.49,73.08,21.49,76.82,29.33z M62.73,6.53
		c4.25,2.39,8.02,5.62,10.96,9.38l0.38,0.49c2.46,3.54,2.5,3.6,3.57,5.64l0.87,1.77c0.43,0.92-0.12,2.38-1.5,4.07
		c-3.67-7.22-9.24-13.76-15.86-18.6C61.91,8.33,62.44,7.41,62.73,6.53z"/>
	<path fill="#006E73" d="M5.8,25.5c-0.31-0.17-0.59-0.36-0.84-0.56C4.03,27,3.3,29.13,2.77,31.31l-0.41,1.91
		c-0.43,2.27-0.43,2.35-0.7,6.54c-0.05,2.32-0.05,2.32,0.4,6.65l0.32,1.93c0.04,0.22,0.15,0.43,0.29,0.62
		C1.77,41.18,2.86,32.95,5.8,25.5z"/>
	<path fill="#006E73" d="M3.74,51.61c0.17,0,0.34-0.05,0.49-0.16c0.25-0.18,0.37-0.49,0.32-0.79C3.22,42.36,4.31,33.4,7.6,25.42
		c0.17-0.41-0.02-0.89-0.43-1.06c-0.8-0.35-1.41-0.79-1.82-1.31c-0.17-0.22-0.45-0.34-0.73-0.31c-0.28,0.03-0.53,0.2-0.65,0.45
		c-1.21,2.47-2.15,5.08-2.8,7.76L0.75,32.9c-0.45,2.39-0.46,2.56-0.73,6.82c-0.05,2.43-0.04,2.51,0.41,6.94l0.33,1.97
		c0.22,1.17,1.1,2.14,2.61,2.88C3.5,51.58,3.62,51.61,3.74,51.61z M1.57,48.48l-0.33-1.95c-0.45-4.39-0.45-4.41-0.4-6.79
		c0.27-4.26,0.28-4.34,0.72-6.69l0.42-1.93c0.63-2.61,1.55-5.15,2.74-7.57c0.44,0.57,1.11,1.11,2.14,1.56
		c-3.38,8.18-4.46,17.19-3.1,25.68C2.69,50.27,1.77,49.52,1.57,48.48z"/>
	<path fill="#006E73" d="M6.85,25.11c-1.02-0.45-1.7-0.99-2.14-1.56c-1.19,2.42-2.11,4.96-2.74,7.57l-0.42,1.93
		c-0.44,2.35-0.44,2.43-0.72,6.69c-0.05,2.38-0.05,2.4,0.4,6.79l0.33,1.95c0.2,1.04,1.12,1.78,2.17,2.3
		C2.38,42.29,3.47,33.28,6.85,25.11z M2.38,48.35l-0.32-1.93c-0.44-4.33-0.44-4.33-0.4-6.65c0.27-4.19,0.27-4.27,0.7-6.54l0.41-1.91
		C3.3,29.13,4.03,27,4.96,24.94c0.26,0.2,0.54,0.39,0.84,0.56c-2.94,7.45-4.03,15.68-3.13,23.47C2.53,48.78,2.42,48.57,2.38,48.35z"
		/>
	<path fill="#006E73" d="M26.51,55.99c-6.38,1.08-11.99,1.45-16.45,1.09c2.47,7.56,6.82,13.79,12.6,18.02
		c3.07,0.49,7.43,0.35,12.44-0.39c-3.17-4.6-6.01-10.68-8.27-17.69C26.73,56.69,26.62,56.34,26.51,55.99z"/>
	<path fill="#006E73" d="M37.3,75.63c0.11-0.26,0.07-0.57-0.1-0.8c-3.38-4.57-6.42-10.9-8.81-18.31c-0.18-0.56-0.36-1.13-0.53-1.7
		c-0.12-0.4-0.52-0.64-0.93-0.57c-5,0.88-9.5,1.32-13.38,1.32c-1.65,0-3.18-0.08-4.56-0.25c-0.28-0.04-0.55,0.08-0.72,0.29
		c-0.18,0.21-0.24,0.5-0.16,0.76c0.1,0.34,0.21,0.69,0.32,1.02c2.59,8.05,7.23,14.67,13.42,19.15c0.1,0.07,0.22,0.12,0.34,0.14
		c1.34,0.23,2.9,0.34,4.65,0.34c2.87,0,6.18-0.3,9.82-0.91C36.96,76.08,37.19,75.89,37.3,75.63z M26.85,76.21
		c-1.7,0-3.22-0.11-4.51-0.33c-6.05-4.38-10.58-10.85-13.12-18.73c-0.11-0.33-0.21-0.67-0.31-1.01c1.41,0.17,2.97,0.25,4.66,0.25
		c3.93,0,8.47-0.45,13.52-1.33c0.17,0.57,0.35,1.15,0.53,1.71c2.42,7.53,5.49,13.9,8.93,18.54C32.94,75.91,29.69,76.21,26.85,76.21z
		"/>
	<path fill="#006E73" d="M27.08,55.06c-5.04,0.89-9.59,1.33-13.52,1.33c-1.69,0-3.25-0.09-4.66-0.25c0.1,0.34,0.2,0.67,0.31,1.01
		c2.54,7.88,7.07,14.36,13.12,18.73c1.29,0.22,2.81,0.33,4.51,0.33c2.83,0,6.09-0.3,9.69-0.89c-3.44-4.65-6.5-11.02-8.93-18.54
		C27.43,56.21,27.26,55.64,27.08,55.06z M22.66,75.1c-5.78-4.24-10.13-10.46-12.6-18.02c4.46,0.37,10.08-0.01,16.45-1.09
		c0.11,0.35,0.22,0.69,0.33,1.03c2.26,7.01,5.1,13.09,8.27,17.69C30.09,75.46,25.73,75.59,22.66,75.1z"/>
	<path fill="#006E73" d="M31.92,54.95c0.06,0.2,0.13,0.41,0.19,0.61c2.39,7.43,5.32,13.7,8.5,18.16c2.9-0.62,5.91-1.4,8.91-2.3V49.9
		C43.73,51.95,37.66,53.7,31.92,54.95z"/>
	<path fill="#006E73" d="M40.26,74.63c-3.35-4.56-6.43-11.05-8.93-18.82c-0.16-0.49-0.31-0.98-0.46-1.47
		c6.09-1.28,12.51-3.11,18.65-5.3v-0.87c-6.18,2.22-12.71,4.09-18.82,5.37c-0.22,0.05-0.42,0.19-0.54,0.38
		c-0.12,0.2-0.15,0.44-0.08,0.66c0.15,0.5,0.31,0.99,0.46,1.49c2.52,7.84,5.65,14.43,9.05,19.06c0.16,0.21,0.4,0.33,0.66,0.33
		c0.06,0,0.11-0.01,0.17-0.02c2.95-0.61,6.03-1.4,9.1-2.31v-0.85C46.41,73.2,43.28,74,40.26,74.63z"/>
	<path fill="#006E73" d="M40.61,73.72c-3.18-4.47-6.11-10.73-8.5-18.16c-0.06-0.2-0.13-0.4-0.19-0.61c5.75-1.25,11.81-2.99,17.61-5.04
		v-0.87c-6.14,2.19-12.56,4.02-18.65,5.3c0.15,0.49,0.3,0.98,0.46,1.47c2.5,7.77,5.58,14.26,8.93,18.82
		c3.02-0.62,6.15-1.43,9.27-2.36v-0.85C46.53,72.32,43.51,73.1,40.61,73.72z"/>
	<path fill="#006E73" d="M75.58,36.89c0-0.01,0-0.01,0-0.02c-0.14,0.11-0.3,0.22-0.45,0.33h0.55C75.64,37.09,75.61,36.99,75.58,36.89z"
		/>
	<path fill="#006E73" d="M75.98,35.51c0.13,0.37,0.26,0.75,0.37,1.12c0.06,0.19,0.11,0.38,0.17,0.56h0.86
		c-0.08-0.27-0.16-0.54-0.25-0.81c-0.12-0.38-0.25-0.76-0.38-1.14c-0.09-0.25-0.29-0.44-0.55-0.52c-0.25-0.07-0.53-0.02-0.74,0.15
		c-0.96,0.77-2.03,1.55-3.19,2.33h1.43C74.52,36.63,75.28,36.07,75.98,35.51z"/>
	<path fill="#006E73" d="M75.57,36.87c0,0,0,0.01,0,0.02c0.03,0.1,0.06,0.21,0.09,0.31h0.86c-0.06-0.19-0.11-0.38-0.17-0.56
		c-0.12-0.37-0.24-0.75-0.37-1.12c-0.7,0.56-1.47,1.12-2.27,1.69h1.41C75.27,37.09,75.43,36.98,75.57,36.87z"/>
	<path fill="#006E73" d="M81.55,35.48c-0.21-1.45-0.31-2.15-0.56-3.19c-0.35,0.43-0.73,0.87-1.15,1.31c0.15,0.43,0.3,0.86,0.44,1.29
		c0.25,0.77,0.47,1.54,0.67,2.31h0.76C81.66,36.71,81.61,36.15,81.55,35.48z"/>
	<path fill="#006E73" d="M79.49,35.14c-0.19-0.58-0.39-1.17-0.6-1.75c1.08-1.08,1.87-2.08,2.45-3c0.62,2.27,0.71,2.84,1.02,5.01
		c0.06,0.71,0.12,1.29,0.16,1.8h0.82c-0.05-0.53-0.1-1.15-0.17-1.91c-0.31-2.17-0.4-2.77-1.04-5.11c-0.09-0.31-0.35-0.55-0.67-0.6
		c-0.32-0.04-0.64,0.1-0.81,0.37c-0.58,0.92-1.37,1.88-2.34,2.86c-0.22,0.23-0.3,0.56-0.19,0.86c0.21,0.57,0.41,1.15,0.59,1.72
		c0.19,0.6,0.37,1.21,0.54,1.81h0.85C79.91,36.51,79.71,35.82,79.49,35.14z"/>
	<path fill="#006E73" d="M80.27,34.89c-0.14-0.43-0.28-0.86-0.44-1.29c0.42-0.44,0.8-0.88,1.15-1.31c0.25,1.05,0.35,1.74,0.56,3.19
		c0.06,0.67,0.11,1.23,0.16,1.72h0.82c-0.05-0.51-0.1-1.09-0.16-1.8c-0.31-2.17-0.4-2.74-1.02-5.01c-0.58,0.92-1.37,1.92-2.45,3
		c0.21,0.58,0.41,1.17,0.6,1.75c0.22,0.69,0.42,1.37,0.61,2.06h0.84C80.74,36.43,80.52,35.66,80.27,34.89z"/>
	<path fill="#006E73" d="M6.09,57.07c-0.22-0.67-0.42-1.36-0.6-2.04c-0.07-0.26-0.27-0.48-0.53-0.56c-0.46-0.16-0.9-0.34-1.28-0.52
		c-0.3-0.15-0.67-0.1-0.91,0.13c-0.25,0.23-0.33,0.58-0.21,0.9c0.61,1.59,1.29,3.2,1.66,4.06c1.05,2.15,1.14,2.31,3.31,5.64
		c0.16,0.24,0.42,0.37,0.69,0.37c0.14,0,0.29-0.04,0.42-0.11c0.38-0.22,0.51-0.7,0.31-1.09C7.81,61.71,6.85,59.43,6.09,57.07z
		 M4.95,58.66c-0.48-1.11-1.1-2.6-1.64-3.99c0.42,0.21,0.88,0.39,1.38,0.56c0.19,0.7,0.39,1.4,0.61,2.08
		c0.78,2.43,1.75,4.73,2.91,6.89C6.06,60.9,5.97,60.76,4.95,58.66z"/>
	<path fill="#006E73" d="M4.69,55.24c-0.5-0.17-0.96-0.36-1.38-0.56c0.53,1.39,1.15,2.88,1.64,3.99c1.02,2.1,1.1,2.24,3.26,5.55
		c-1.15-2.16-2.13-4.47-2.91-6.89C5.09,56.63,4.88,55.94,4.69,55.24z"/>
	<path fill="#006E73" d="M32.51,79.85c0.62,0.17,1.25,0.31,1.88,0.43c0.61,0.12,1.41,0.23,2.12,0.34l0.7,0.1
		c1.47,0.17,1.93,0.2,3.48,0.25c-0.7-0.57-1.4-1.21-2.09-1.93C36.45,79.42,34.42,79.69,32.51,79.85z"/>
	<path fill="#006E73" d="M43.72,81.1c-1.41-0.82-2.83-2-4.23-3.49c-0.19-0.2-0.47-0.3-0.74-0.25c-3.92,0.7-7.46,1.05-10.51,1.06
		c-0.39,0-0.72,0.27-0.8,0.66c-0.08,0.38,0.12,0.76,0.48,0.92c1.98,0.85,4.05,1.49,6.17,1.9c0.63,0.12,1.46,0.24,2.19,0.35
		l0.73,0.11c1.84,0.21,2.21,0.22,4.64,0.29c0.01,0,0.08,0,0.08,0l0.41,0c0.46,0,0.77,0,1.22-0.02c0.36-0.02,0.67-0.27,0.76-0.62
		C44.19,81.65,44.03,81.28,43.72,81.1z M42.12,81.83l-0.4,0c-2.48-0.08-2.81-0.09-4.63-0.29l-0.7-0.1
		c-0.72-0.11-1.53-0.22-2.16-0.34c-2.06-0.4-4.06-1.02-5.99-1.85c3.1-0.01,6.68-0.37,10.65-1.08c1.46,1.56,2.94,2.78,4.42,3.64
		C42.87,81.82,42.57,81.83,42.12,81.83z"/>
	<path fill="#006E73" d="M38.89,78.16c-3.97,0.71-7.55,1.07-10.65,1.08c1.93,0.83,3.94,1.45,5.99,1.85c0.62,0.12,1.44,0.24,2.16,0.34
		l0.7,0.1c1.82,0.21,2.15,0.21,4.63,0.29l0.4,0c0.45,0,0.75-0.01,1.18-0.02C41.83,80.95,40.35,79.73,38.89,78.16z M37.21,80.73
		l-0.7-0.1c-0.71-0.1-1.51-0.22-2.12-0.34c-0.63-0.12-1.26-0.27-1.88-0.43c1.91-0.17,3.94-0.44,6.09-0.81
		c0.69,0.71,1.39,1.36,2.09,1.93C39.13,80.92,38.68,80.89,37.21,80.73z"/>
	<path fill="#006E73" d="M44.24,77.9c1.93,1.74,3.74,2.54,5.29,2.37v-3.76C47.76,77.01,45.99,77.49,44.24,77.9z"/>
	<path fill="#006E73" d="M42.59,77.43c2.3-0.5,4.62-1.1,6.94-1.76v-0.86c-2.38,0.69-4.77,1.31-7.11,1.82
		c-0.29,0.06-0.52,0.28-0.61,0.56c-0.09,0.28-0.01,0.59,0.19,0.81c2.48,2.6,4.92,3.94,7.13,3.94c0.2,0,0.39-0.01,0.59-0.04
		c-0.06-0.27-0.11-0.55-0.14-0.83C47.47,81.29,45.07,80.03,42.59,77.43z"/>
	<path fill="#006E73" d="M49.53,80.26c-1.55,0.17-3.35-0.63-5.29-2.37c1.75-0.41,3.52-0.89,5.29-1.39v-0.84
		c-2.32,0.67-4.64,1.26-6.94,1.76c2.48,2.6,4.89,3.85,6.98,3.64c-0.03-0.26-0.04-0.53-0.04-0.8V80.26z"/>
	<path fill="#FFFFFF" d="M53.2,42.88c-0.06,0.12-0.1,0.25-0.15,0.38c0.08-0.03,0.17-0.06,0.25-0.1C53.27,43.07,53.23,42.98,53.2,42.88z
		"/>
	<path fill="#FFFFFF" d="M57.53,40.48h-0.09c0,0.01,0.01,0.02,0.01,0.03C57.48,40.5,57.5,40.49,57.53,40.48z"/>
	<path fill="#FFFFFF" d="M69.14,52.36c2.74,0,4.97,2.23,4.97,4.97c0,2.74-2.23,4.97-4.97,4.97c-2.74,0-4.97-2.23-4.97-4.97
		C64.17,54.58,66.39,52.36,69.14,52.36z"/>
	<path fill="#006E73" d="M51.16,72.62c-0.55,0.17-1.09,0.34-1.64,0.5v1.69c0.55-0.16,1.09-0.32,1.64-0.49V72.62z"/>
	<path fill="#006E73" d="M116.71,37.2H83.35c0.06,0.67,0.1,1.2,0.13,1.64h33.22c3.18,0,5.78,2.6,5.78,5.78v35.66
		c0,3.18-2.6,5.78-5.78,5.78H56.94c-2.73,0-5.03-1.92-5.63-4.48c-0.4,0.09-0.82,0.18-1.16,0.26c0,0-0.01,0-0.01,0
		c-0.14,0.03-0.29,0.05-0.44,0.06c0.74,3.31,3.7,5.8,7.23,5.8h59.76c4.09,0,7.42-3.33,7.42-7.42V44.62
		C124.12,40.53,120.8,37.2,116.71,37.2z"/>
	<path fill="#006E73" d="M55.15,39.13c-0.2-0.51-0.41-1.01-0.62-1.52c-0.75,0.26-1.44,0.63-2.06,1.1c0.21,0.54,0.42,1.07,0.63,1.61
		C53.7,39.79,54.39,39.38,55.15,39.13z"/>
	<path fill="#006E73" d="M69.69,38.84c0.9-0.55,1.78-1.09,2.59-1.64h-4.69c-0.94,0.55-1.93,1.1-2.96,1.64H69.69z"/>
	<path fill="#006E73" d="M79.67,38.84c-0.13-0.55-0.27-1.09-0.42-1.64h-1.87c0.17,0.55,0.32,1.09,0.46,1.64H79.67z"/>
	<path fill="#006E73" d="M51.16,44.87c-0.54,0.21-1.09,0.41-1.64,0.61v2.68c0.55-0.2,1.1-0.39,1.64-0.59V44.87z"/>
	<path fill="#006E73" d="M49.59,43.72c0.61-0.23,1.21-0.46,1.81-0.69c0.13-0.44,0.3-0.85,0.52-1.24c-0.23-0.62-0.47-1.24-0.71-1.86
		C50.33,40.99,49.76,42.29,49.59,43.72z"/>
	<path fill="#006E73" d="M51.16,44.62c0-0.22,0.01-0.43,0.04-0.64c-0.56,0.21-1.11,0.42-1.68,0.63c0,0,0,0.01,0,0.01v0.86
		c0.55-0.2,1.1-0.4,1.64-0.61V44.62z"/>
	<path fill="#006E73" d="M52.48,40.96c0.19-0.23,0.41-0.45,0.63-0.65c-0.21-0.54-0.42-1.07-0.63-1.61c-0.23,0.17-0.45,0.36-0.66,0.56
		C52.04,39.83,52.26,40.4,52.48,40.96z"/>
	<path fill="#006E73" d="M49.59,43.72c-0.04,0.29-0.06,0.59-0.06,0.89c0.56-0.21,1.12-0.42,1.68-0.63c0.04-0.33,0.1-0.64,0.19-0.95
		C50.79,43.26,50.19,43.49,49.59,43.72z"/>
	<path fill="#006E73" d="M51.91,41.79c0.16-0.29,0.35-0.57,0.56-0.83c-0.22-0.57-0.43-1.13-0.66-1.7c-0.22,0.21-0.43,0.43-0.62,0.66
		C51.45,40.55,51.68,41.17,51.91,41.79z"/>
	<path fill="#006E73" d="M61.02,38.84c1.11-0.54,2.18-1.09,3.2-1.64h-7.28c-0.26,0-0.53,0.02-0.78,0.04c0.22,0.53,0.43,1.07,0.64,1.6
		c0.05,0,0.1-0.01,0.14-0.01H61.02z"/>
	<path fill="#006E73" d="M55.96,38.93c-0.21-0.52-0.42-1.03-0.63-1.55c-0.27,0.06-0.53,0.14-0.79,0.23c0.21,0.51,0.42,1.01,0.62,1.52
		C55.41,39.04,55.68,38.98,55.96,38.93z"/>
	<path fill="#006E73" d="M62.85,38.84h1.77c1.03-0.54,2.02-1.09,2.96-1.64h-1.65C64.95,37.75,63.92,38.29,62.85,38.84z"/>
	<path fill="#006E73" d="M56.16,37.24c-0.28,0.03-0.56,0.08-0.83,0.14c0.21,0.52,0.42,1.03,0.63,1.55c0.28-0.05,0.56-0.08,0.84-0.08
		C56.59,38.31,56.38,37.77,56.16,37.24z"/>
	<path fill="#006E73" d="M61.02,38.84h1.83c1.07-0.54,2.1-1.09,3.08-1.64h-1.71C63.2,37.75,62.13,38.29,61.02,38.84z"/>
	<path fill="#006E73" d="M49.53,49.9v21.51c0.55-0.16,1.09-0.34,1.64-0.51V49.32C50.62,49.52,50.07,49.71,49.53,49.9z"/>
	<path fill="#006E73" d="M51.16,48.44v-0.87c-0.54,0.2-1.09,0.4-1.64,0.59v0.87C50.07,48.84,50.62,48.64,51.16,48.44z"/>
	<path fill="#006E73" d="M51.16,71.77c-0.55,0.17-1.09,0.34-1.64,0.51v0.85c0.55-0.16,1.09-0.33,1.64-0.5V71.77z"/>
	<path fill="#006E73" d="M51.16,49.32v-0.88c-0.54,0.2-1.09,0.4-1.64,0.6v0.87C50.07,49.71,50.62,49.52,51.16,49.32z"/>
	<path fill="#006E73" d="M49.53,71.42v0.85c0.55-0.16,1.09-0.33,1.64-0.51v-0.86C50.62,71.08,50.07,71.25,49.53,71.42z"/>
	<path fill="#006E73" d="M75.67,37.2h-0.55c-0.74,0.54-1.52,1.09-2.35,1.64h3.38C76,38.29,75.85,37.74,75.67,37.2z"/>
	<path fill="#006E73" d="M77,38.84h0.85c-0.14-0.55-0.3-1.09-0.46-1.64h-0.86C76.7,37.74,76.86,38.29,77,38.84z"/>
	<path fill="#006E73" d="M71.26,38.84c0.87-0.55,1.68-1.09,2.45-1.64h-1.43c-0.81,0.55-1.69,1.09-2.59,1.64H71.26z"/>
	<path fill="#006E73" d="M76.15,38.84H77c-0.15-0.55-0.3-1.09-0.47-1.64h-0.86C75.85,37.74,76,38.29,76.15,38.84z"/>
	<path fill="#006E73" d="M75.12,37.2h-1.41c-0.78,0.55-1.59,1.09-2.45,1.64h1.51C73.6,38.29,74.38,37.74,75.12,37.2z"/>
	<path fill="#006E73" d="M81.7,37.2h-0.76c0.15,0.55,0.28,1.09,0.41,1.64h0.49C81.81,38.4,81.76,37.87,81.7,37.2z"/>
	<path fill="#006E73" d="M80.52,38.84c-0.13-0.55-0.27-1.09-0.42-1.64h-0.85c0.15,0.55,0.29,1.09,0.42,1.64H80.52z"/>
	<path fill="#006E73" d="M82.66,38.84h0.82c-0.03-0.44-0.07-0.97-0.13-1.64h-0.82C82.59,37.87,82.63,38.4,82.66,38.84z"/>
	<path fill="#006E73" d="M80.94,37.2H80.1c0.15,0.55,0.29,1.09,0.42,1.64h0.84C81.23,38.29,81.09,37.74,80.94,37.2z"/>
	<path fill="#006E73" d="M81.84,38.84h0.82c-0.03-0.44-0.08-0.97-0.14-1.64H81.7C81.76,37.87,81.81,38.4,81.84,38.84z"/>
	<path fill="#006E73" d="M49.53,76.51v3.76c0.1-0.01,0.2-0.01,0.3-0.03c0.39-0.08,0.89-0.19,1.34-0.3v-3.9
		C50.62,76.2,50.07,76.35,49.53,76.51z"/>
	<path fill="#006E73" d="M50.16,81.84c0.34-0.07,0.76-0.16,1.16-0.26c-0.06-0.26-0.11-0.53-0.13-0.81c-0.41,0.09-0.85,0.19-1.2,0.26
		c-0.14,0.03-0.28,0.03-0.42,0.04c0.03,0.28,0.08,0.56,0.14,0.83c0.15-0.02,0.29-0.04,0.44-0.06
		C50.15,81.84,50.15,81.84,50.16,81.84z M49.99,81.03L49.99,81.03L49.99,81.03z"/>
	<path fill="#006E73" d="M51.16,75.18v-0.86c-0.55,0.17-1.09,0.33-1.64,0.49v0.86C50.07,75.51,50.62,75.35,51.16,75.18z"/>
	<path fill="#006E73" d="M51.16,79.93c-0.45,0.1-0.95,0.21-1.34,0.3c-0.1,0.02-0.2,0.02-0.3,0.03v0.02c0,0.27,0.02,0.53,0.04,0.8
		c0.14-0.01,0.28-0.01,0.42-0.04c0.35-0.07,0.79-0.17,1.2-0.26c-0.01-0.16-0.02-0.32-0.02-0.49V79.93z"/>
	<path fill="#006E73" d="M51.16,76.03v-0.85c-0.55,0.17-1.09,0.33-1.64,0.48v0.84C50.07,76.35,50.62,76.2,51.16,76.03z"/>
	<path fill="#006E73" d="M80.03,40.48c-0.11-0.55-0.22-1.09-0.35-1.64h-1.82c0.14,0.55,0.28,1.09,0.4,1.64H80.03z"/>
	<path fill="#006E73" d="M116.71,40.48c2.28,0,4.14,1.86,4.14,4.14v35.66c0,2.28-1.86,4.14-4.14,4.14H56.94
		c-1.97,0-3.62-1.39-4.03-3.23c-0.26,0.07-0.46,0.12-0.91,0.24c-0.21,0.05-0.45,0.1-0.69,0.16c0.59,2.56,2.89,4.48,5.63,4.48h59.76
		c3.18,0,5.78-2.6,5.78-5.78V44.62c0-3.18-2.6-5.78-5.78-5.78H83.48c0.05,0.65,0.06,1.13,0.06,1.64H116.71z"/>
	<path fill="#006E73" d="M52.8,44.62c0-0.14,0.03-0.27,0.04-0.4c-0.56,0.22-1.11,0.44-1.68,0.65v2.7c0.55-0.21,1.09-0.42,1.64-0.63
		V44.62z"/>
	<path fill="#006E73" d="M52.8,72.1c-0.54,0.18-1.09,0.35-1.64,0.52v1.7c0.55-0.17,1.09-0.34,1.64-0.52V72.1z"/>
	<path fill="#006E73" d="M55.75,40.67c-0.2-0.52-0.39-1.03-0.6-1.55c-0.77,0.25-1.46,0.66-2.05,1.19c0.22,0.57,0.43,1.14,0.64,1.71
		C54.26,41.39,54.95,40.91,55.75,40.67z"/>
	<path fill="#006E73" d="M66.86,40.48c0.99-0.54,1.93-1.09,2.83-1.64h-5.07c-1.04,0.55-2.1,1.1-3.22,1.64H66.86z"/>
	<path fill="#006E73" d="M52.26,42.7c-0.11-0.3-0.23-0.6-0.35-0.91c-0.22,0.39-0.39,0.8-0.52,1.24C51.68,42.91,51.97,42.81,52.26,42.7z
		"/>
	<path fill="#006E73" d="M53.75,42.02c-0.21-0.57-0.42-1.14-0.64-1.71c-0.23,0.2-0.44,0.42-0.63,0.65c0.24,0.64,0.49,1.28,0.72,1.92
		C53.34,42.57,53.53,42.28,53.75,42.02z"/>
	<path fill="#006E73" d="M53.05,43.26c-0.61,0.24-1.23,0.48-1.85,0.72c-0.02,0.21-0.04,0.42-0.04,0.64v0.25
		c0.56-0.21,1.12-0.43,1.68-0.65C52.88,43.88,52.94,43.56,53.05,43.26z"/>
	<path fill="#006E73" d="M53.2,42.88c-0.23-0.64-0.48-1.28-0.72-1.92c-0.21,0.26-0.4,0.53-0.56,0.83c0.11,0.3,0.23,0.6,0.35,0.91
		c-0.28,0.11-0.58,0.22-0.86,0.33c-0.09,0.31-0.16,0.63-0.19,0.95c0.62-0.24,1.24-0.48,1.85-0.72C53.1,43.13,53.14,43,53.2,42.88z"
		/>
	<path fill="#006E73" d="M58.32,40.12c0.93-0.42,1.82-0.85,2.7-1.28h-4.08c-0.05,0-0.1,0.01-0.14,0.01c0.21,0.54,0.43,1.09,0.64,1.63
		h0.09C57.79,40.36,58.06,40.24,58.32,40.12z"/>
	<path fill="#006E73" d="M56.57,40.51c-0.2-0.53-0.4-1.06-0.61-1.59c-0.27,0.05-0.54,0.11-0.8,0.2c0.2,0.52,0.4,1.03,0.6,1.55
		C56.01,40.59,56.29,40.54,56.57,40.51z"/>
	<path fill="#006E73" d="M61.41,40.48c1.12-0.54,2.18-1.09,3.22-1.64h-1.77c-1.08,0.55-2.21,1.1-3.37,1.64H61.41z"/>
	<path fill="#006E73" d="M58.32,40.12c-0.26,0.12-0.53,0.24-0.79,0.36h1.95c1.16-0.54,2.29-1.09,3.37-1.64h-1.83
		C60.14,39.27,59.25,39.69,58.32,40.12z"/>
	<path fill="#006E73" d="M56.94,40.48h0.5c-0.21-0.54-0.43-1.09-0.64-1.63c-0.29,0.01-0.57,0.04-0.84,0.08
		c0.21,0.53,0.41,1.06,0.61,1.59C56.69,40.5,56.82,40.48,56.94,40.48z"/>
	<path fill="#006E73" d="M51.16,49.32v21.59c0.55-0.17,1.09-0.35,1.64-0.53V48.7C52.26,48.9,51.72,49.11,51.16,49.32z"/>
	<path fill="#006E73" d="M52.8,71.24c-0.54,0.18-1.09,0.35-1.64,0.53v0.86c0.55-0.17,1.09-0.34,1.64-0.52V71.24z"/>
	<path fill="#006E73" d="M52.8,46.94c-0.54,0.21-1.09,0.42-1.64,0.63v0.87c0.55-0.2,1.09-0.41,1.64-0.62V46.94z"/>
	<path fill="#006E73" d="M52.8,48.7v-0.88c-0.54,0.21-1.09,0.42-1.64,0.62v0.88C51.72,49.11,52.26,48.9,52.8,48.7z"/>
	<path fill="#006E73" d="M52.8,70.37c-0.55,0.18-1.09,0.36-1.64,0.53v0.86c0.55-0.17,1.09-0.35,1.64-0.53V70.37z"/>
	<path fill="#006E73" d="M76.15,38.84h-3.38c-0.83,0.55-1.7,1.09-2.62,1.64h6.41C76.44,39.93,76.3,39.38,76.15,38.84z"/>
	<path fill="#006E73" d="M78.25,40.48c-0.12-0.55-0.25-1.09-0.4-1.64H77c0.15,0.55,0.28,1.09,0.41,1.64H78.25z"/>
	<path fill="#006E73" d="M68.53,40.48c0.95-0.55,1.87-1.09,2.73-1.64h-1.57c-0.9,0.55-1.84,1.09-2.83,1.64H68.53z"/>
	<path fill="#006E73" d="M76.57,40.48h0.84c-0.12-0.55-0.26-1.09-0.41-1.64h-0.85C76.3,39.38,76.44,39.93,76.57,40.48z"/>
	<path fill="#006E73" d="M70.15,40.48c0.91-0.55,1.79-1.09,2.62-1.64h-1.51c-0.87,0.55-1.78,1.09-2.73,1.64H70.15z"/>
	<path fill="#006E73" d="M81.84,38.84h-0.49c0.13,0.55,0.24,1.09,0.34,1.64h0.21C81.91,39.98,81.89,39.51,81.84,38.84z"/>
	<path fill="#006E73" d="M82.73,40.48h0.82c0-0.51-0.02-0.99-0.06-1.64h-0.82C82.71,39.5,82.73,39.97,82.73,40.48z"/>
	<path fill="#006E73" d="M80.86,40.48c-0.11-0.55-0.22-1.09-0.34-1.64h-0.84c0.13,0.55,0.25,1.09,0.35,1.64H80.86z"/>
	<path fill="#006E73" d="M81.69,40.48c-0.1-0.55-0.22-1.09-0.34-1.64h-0.84c0.13,0.55,0.24,1.09,0.34,1.64H81.69z"/>
	<path fill="#006E73" d="M81.91,40.48h0.82c0-0.51-0.02-0.98-0.06-1.64h-0.82C81.89,39.51,81.91,39.98,81.91,40.48z"/>
	<path fill="#006E73" d="M51.16,76.03v3.9c0.16-0.04,0.31-0.07,0.45-0.1c0.59-0.15,0.73-0.19,1.19-0.32v-4
		C52.26,75.69,51.71,75.87,51.16,76.03z"/>
	<path fill="#006E73" d="M52.91,81.19c-0.06-0.27-0.09-0.54-0.1-0.82c-0.32,0.09-0.51,0.14-1.01,0.27c-0.19,0.04-0.4,0.09-0.61,0.14
		c0.02,0.28,0.07,0.55,0.13,0.81c0.24-0.05,0.47-0.11,0.69-0.16C52.45,81.31,52.65,81.26,52.91,81.19z"/>
	<path fill="#006E73" d="M52.8,73.81c-0.55,0.18-1.09,0.35-1.64,0.52v0.86c0.55-0.17,1.09-0.34,1.64-0.52V73.81z"/>
	<path fill="#006E73" d="M52.8,75.52v-0.85c-0.55,0.18-1.09,0.35-1.64,0.52v0.85C51.71,75.87,52.26,75.69,52.8,75.52z"/>
	<path fill="#006E73" d="M52.81,80.36c0-0.03-0.01-0.05-0.01-0.08v-0.77c-0.46,0.13-0.61,0.17-1.19,0.32c-0.14,0.03-0.29,0.07-0.45,0.1
		v0.35c0,0.16,0.01,0.33,0.02,0.49c0.21-0.05,0.42-0.1,0.61-0.14C52.31,80.5,52.49,80.45,52.81,80.36z"/>
	<circle  fill="#D51342" cx="69.14" cy="57.33" r="4.97"/>
	<path fill="#D51342" d="M75.11,65.43c-0.21-0.18-0.43-0.34-0.65-0.5c-0.04-0.03-0.08-0.06-0.12-0.09c-0.25-0.17-0.51-0.33-0.77-0.47
		c-0.52-0.28-1.07-0.52-1.65-0.7c-0.38-0.12-0.77-0.2-1.16-0.27c-0.46-0.08-0.93-0.13-1.4-0.14c-0.07,0-0.14-0.01-0.21-0.01
		c-2.01,0-3.86,0.64-5.37,1.72c-0.26,0.19-0.52,0.39-0.76,0.61c-0.27,0.24-0.52,0.49-0.76,0.76c-1.24,1.38-2.07,3.12-2.31,5.06
		c-0.05,0.37-0.08,0.75-0.08,1.14h0.7h1.68h0.83h0.81h2.75h1.33h1.27h9.19C78.42,69.69,77.13,67.14,75.11,65.43z"/>
	<path fill="#006E73" d="M84.77,54.87h29.47c0.91,0,1.64-0.73,1.64-1.64c0-0.91-0.73-1.64-1.64-1.64H84.77c-0.91,0-1.64,0.73-1.64,1.64
		C83.13,54.13,83.86,54.87,84.77,54.87z"/>
	<path fill="#006E73" d="M114.24,60.72H84.77c-0.91,0-1.64,0.73-1.64,1.64c0,0.91,0.73,1.64,1.64,1.64h29.47
		c0.91,0,1.64-0.73,1.64-1.64C115.88,61.46,115.14,60.72,114.24,60.72z"/>
	<path fill="#006E73" d="M114.24,68.89H84.77c-0.91,0-1.64,0.73-1.64,1.64c0,0.91,0.73,1.64,1.64,1.64h29.47
		c0.91,0,1.64-0.73,1.64-1.64C115.88,69.63,115.14,68.89,114.24,68.89z"/>
</g>
</svg>
