<?xml version="1.0" encoding="utf-8"?>
<!-- Generator: Adobe Illustrator 25.2.3, SVG Export Plug-In . SVG Version: 6.00 Build 0)  -->
<svg version="1.1" id="Layer_1" xmlns="http://www.w3.org/2000/svg" xmlns:xlink="http://www.w3.org/1999/xlink" x="0px" y="0px"
	 viewBox="0 0 136.69 79.33" style="enable-background:new 0 0 136.69 79.33;" xml:space="preserve">
<style type="text/css">
	.st0{fill:#007476;}
	.st1{fill:#D71F4D;}
</style>
<g>
	<g>
		<circle class="st0" cx="24.61" cy="39.02" r="13.17"/>
	</g>
	<g>
		<path class="st0" d="M0,79.33c0-13.59,11.02-24.61,24.61-24.61s24.61,11.02,24.61,24.61"/>
	</g>
</g>
<g>
	<g>
		<circle class="st0" cx="112.08" cy="39.02" r="13.17"/>
	</g>
	<g>
		<path class="st0" d="M87.47,79.33c0-13.59,11.02-24.61,24.61-24.61s24.61,11.02,24.61,24.61"/>
	</g>
</g>
<g>
	<path class="st1" d="M92.37,0H81.11H65.99c-3.58,0-6.49,3.52-6.49,7.85v6.48h14.37c4.13,0,7.49,3.97,7.49,8.85v4.68h1.04l8.69,6.67
		l0.1-6.67h1.18c3.58,0,6.49-3.52,6.49-7.85V7.85C98.86,3.52,95.94,0,92.37,0z"/>
	<path class="st1" d="M73.87,16.33H59.5H47.49c-3.03,0-5.49,3.07-5.49,6.85v12.16c0,3.77,2.46,6.85,5.49,6.85h2.17l0.08,5.67
		l7.38-5.67h16.74c1.89,0,3.63-1.21,4.65-3.24c0.55-1.09,0.84-2.34,0.84-3.6v-7.48v-4.68C79.36,19.4,76.9,16.33,73.87,16.33z"/>
</g>
</svg>
