<?xml version="1.0" encoding="utf-8"?>
<!-- Generator: Adobe Illustrator 25.2.3, SVG Export Plug-In . SVG Version: 6.00 Build 0)  -->
<svg version="1.1" id="Layer_1" xmlns="http://www.w3.org/2000/svg" xmlns:xlink="http://www.w3.org/1999/xlink" x="0px" y="0px"
	 viewBox="0 0 118.82 96.07" style="enable-background:new 0 0 118.82 96.07;" xml:space="preserve">
<g>
	<g>
		<circle  fill="#007476" cx="59.41" cy="8.91" r="8.91"/>
	</g>
	<g>
		<path fill="#007476" d="M42.77,36.18c0-9.19,7.45-16.65,16.65-16.65s16.65,7.45,16.65,16.65"/>
	</g>
</g>
<g>
	<g>
		<circle  fill="#007476" cx="16.65" cy="27.7" r="8.91"/>
	</g>
	<g>
		<path fill="#007476" d="M0,54.97c0-9.19,7.45-16.65,16.65-16.65s16.65,7.45,16.65,16.65"/>
	</g>
</g>
<g>
	<g>
		<circle  fill="#007476" cx="31.72" cy="68.8" r="8.91"/>
	</g>
	<g>
		<path fill="#007476" d="M15.07,96.07c0-9.19,7.45-16.65,16.65-16.65s16.65,7.45,16.65,16.65"/>
	</g>
</g>
<g>
	<g>
		<circle  fill="#007476" cx="87.56" cy="68.8" r="8.91"/>
	</g>
	<g>
		<path fill="#007476" d="M70.92,96.07c0-9.19,7.45-16.65,16.65-16.65s16.65,7.45,16.65,16.65"/>
	</g>
</g>
<g>
	<g>
		<circle  fill="#007476" cx="102.18" cy="27.7" r="8.91"/>
	</g>
	<g>
		<path fill="#007476" d="M85.53,54.97c0-9.19,7.45-16.65,16.65-16.65s16.65,7.45,16.65,16.65"/>
	</g>
</g>
<rect x="44.61" y="43.02"  fill="#D8204D" width="28.48" height="35.36"/>
<g>
	<g>
		<path fill="#FFFFFF" d="M53.38,71.01c-0.05,0-0.11-0.01-0.16-0.03c-0.17-0.06-0.3-0.2-0.33-0.38c-0.06-0.32-0.25-0.86-0.54-1.61
			l-0.34-0.83c-0.71-1.76-1.32-3-1.8-3.69c-0.41-0.59-0.84-0.91-1.27-0.96c-0.2-0.02-0.36-0.15-0.42-0.34s-0.01-0.39,0.14-0.53
			c0.89-0.82,1.68-1.21,2.4-1.21c1.05,0,2.04,1.13,3.12,3.56l0.12,0.28c1.65-2.8,3.61-5.42,5.84-7.8c2.46-2.63,5.11-4.8,7.86-6.44
			c0.08-0.05,0.17-0.07,0.26-0.07c0.04,0,0.08,0,0.13,0.02c0.13,0.03,0.24,0.12,0.31,0.23l0.44,0.76c0.13,0.22,0.07,0.51-0.14,0.66
			c-2.81,1.98-5.45,4.53-7.85,7.58c-2.4,3.04-4.15,6.05-5.21,8.96c-0.04,0.1-0.11,0.19-0.19,0.25l-0.64,0.42
			c-0.54,0.35-1,0.7-1.38,1.04C53.63,70.96,53.51,71.01,53.38,71.01z"/>
		<path fill="#FFFFFF" d="M68.27,51.46l0.44,0.76c-2.86,2.02-5.51,4.58-7.95,7.68c-2.44,3.1-4.2,6.13-5.29,9.1l-0.64,0.42
			c-0.56,0.36-1.04,0.72-1.44,1.08c-0.07-0.35-0.26-0.92-0.57-1.7l-0.34-0.83c-0.73-1.81-1.35-3.07-1.85-3.79
			c-0.5-0.72-1.05-1.11-1.63-1.17c0.79-0.72,1.48-1.08,2.07-1.08c0.81,0,1.7,1.09,2.67,3.27l0.53,1.17c1.73-3.1,3.82-5.95,6.26-8.55
			C62.96,55.21,65.54,53.09,68.27,51.46 M68.27,50.46c-0.18,0-0.36,0.05-0.51,0.14c-2.79,1.67-5.48,3.87-7.97,6.53
			c-2.04,2.18-3.86,4.55-5.42,7.07c-1.08-2.26-2.12-3.27-3.31-3.27c-0.85,0-1.75,0.44-2.74,1.35c-0.29,0.27-0.4,0.68-0.27,1.05
			c0.12,0.37,0.46,0.64,0.85,0.68c0.35,0.03,0.69,0.42,0.91,0.74c0.46,0.65,1.05,1.86,1.75,3.59l0.34,0.83
			c0.38,0.94,0.49,1.35,0.52,1.52c0.07,0.35,0.32,0.64,0.66,0.76c0.1,0.03,0.21,0.05,0.32,0.05c0.24,0,0.48-0.09,0.67-0.26
			c0.36-0.32,0.8-0.66,1.31-0.99l0.65-0.43c0.18-0.12,0.32-0.29,0.39-0.49c1.04-2.86,2.77-5.82,5.13-8.82
			c2.37-3.01,4.98-5.52,7.75-7.48c0.42-0.3,0.55-0.87,0.29-1.32l-0.44-0.76c-0.13-0.23-0.36-0.4-0.61-0.47
			C68.44,50.47,68.35,50.46,68.27,50.46L68.27,50.46z"/>
	</g>
</g>
</svg>
