<?xml version="1.0" encoding="utf-8"?>
<!-- Generator: Adobe Illustrator 25.2.3, SVG Export Plug-In . SVG Version: 6.00 Build 0)  -->
<svg version="1.1" id="Layer_1" xmlns="http://www.w3.org/2000/svg" xmlns:xlink="http://www.w3.org/1999/xlink" x="0px" y="0px"
	 viewBox="0 0 126.13 66.64" style="enable-background:new 0 0 126.13 66.64;" xml:space="preserve">
<polygon  fill="#007476" points="114.86,1.97 114.86,8.32 115.56,12.91 108.08,19.56 109.88,47.39 115.76,53.02 114.86,64.67
	120.17,63.26 123.09,58.23 124.74,52.66 124.74,12.2 122.52,6.46 120.17,3.61 "/>
<g>
	<path fill="#007476" stroke="#007476" stroke-width="0.25" stroke-miterlimit="10" d="M0,53.86V12.78C0,5.73,5.73,0,12.78,0h100.56c7.05,0,12.78,5.73,12.78,12.78v41.08
		c0,7.05-5.73,12.78-12.78,12.78H12.78C5.73,66.64,0,60.91,0,53.86z M122.52,12.78c0-5.06-4.11-9.17-9.17-9.17H12.78
		c-5.06,0-9.17,4.11-9.17,9.17v41.08c0,5.06,4.11,9.17,9.17,9.17h100.56c5.06,0,9.17-4.11,9.17-9.17V12.78z"/>
	<path fill="none" d="M67.28,44.94H46.89c-1.21,0-2.2-0.99-2.2-2.2V28.02c0-1.21,0.99-2.2,2.2-2.2h20.39c1.21,0,2.2,0.99,2.2,2.2
		v14.73C69.48,43.95,68.49,44.94,67.28,44.94z"/>
	<g>
		<path fill="#FFFFFF" d="M112.16,31.98c0-0.84,0.27-1.66,0.77-2.35c0.63-0.86,1.56-1.43,2.61-1.59c2.18-0.34,4.23,1.16,4.57,3.34
			c0.16,1.06-0.09,2.11-0.73,2.97c-0.63,0.86-1.56,1.43-2.61,1.59c-1.05,0.16-2.11-0.09-2.98-0.73c-0.86-0.63-1.43-1.56-1.59-2.61
			l0,0C112.18,32.39,112.16,32.18,112.16,31.98z"/>
	</g>
	<path fill="#007476" stroke="#007476" stroke-width="0.25" stroke-miterlimit="10" d="M108.08,47.79V19.56c0-0.21,0.07-0.41,0.2-0.57l5.67-6.97V2.87c0-0.5,0.4-0.9,0.9-0.9c0.5,0,0.9,0.4,0.9,0.9
		v9.47c0,0.21-0.07,0.41-0.2,0.57l-5.67,6.97v27.51l5.57,4.95c0.19,0.17,0.3,0.42,0.3,0.67v10.75c0,0.5-0.4,0.9-0.9,0.9
		c-0.5,0-0.9-0.4-0.9-0.9V53.42l-5.57-4.95C108.19,48.3,108.08,48.05,108.08,47.79z"/>
	<g>
		<path fill="#D71F4D" d="M56.75,10.68c-12.49,0-22.61,10.12-22.61,22.61S44.26,55.9,56.75,55.9c12.49,0,22.61-10.12,22.61-22.61
			S69.23,10.68,56.75,10.68z M50.19,44.64v-22.7l19.66,11.35L50.19,44.64z"/>
	</g>
</g>
</svg>
