<?xml version="1.0" encoding="utf-8"?>
<!-- Generator: Adobe Illustrator 25.3.1, SVG Export Plug-In . SVG Version: 6.00 Build 0)  -->
<svg version="1.1" id="Layer_1" xmlns="http://www.w3.org/2000/svg" xmlns:xlink="http://www.w3.org/1999/xlink" x="0px" y="0px"
	 viewBox="0 0 251.7 191.4" style="enable-background:new 0 0 251.7 191.4;" xml:space="preserve">
<g id="Ikoner">
	<path fill="#D8204D" d="M7.3,116c-4.1,0-7.3-3.3-7.3-7.4c0-3.8,2.9-6.9,6.7-7.3c0.7,0,68.1-5.7,117.2-5.2s120.2,5.2,120.9,5.2
		c4.1,0.3,7.1,3.8,6.8,7.8c-0.3,4.1-3.8,7.1-7.8,6.8l0,0c-0.7,0-71.4-4.8-120-5.2C75.4,110.4,8.6,115.9,8,116L7.3,116z"/>
	<path fill="#D8204D" d="M37.9,191.4c-4.1-0.1-7.3-3.4-7.2-7.5c0.1-3.8,3-6.9,6.8-7.2c0.5,0,50-2.6,81-2.6s90.5,1.3,91.1,1.3
		c4.1,0,7.4,3.2,7.4,7.3c0,4.1-3.2,7.4-7.3,7.4c-0.1,0-0.3,0-0.4,0c-0.6,0-60.1-1.3-90.8-1.3s-79.7,2.6-80.2,2.6L37.9,191.4z"/>
	<circle fill="#007476" cx="72.6" cy="136.2" r="11"/>
	<path fill="#007476" d="M52,169.9c0-11.4,9.2-20.6,20.6-20.6s20.6,9.2,20.6,20.6l0,0"/>
	<circle fill="#007476" cx="49.8" cy="57.6" r="11"/>
	<path fill="#007476" d="M29.2,91.4c0-11.4,9.2-20.6,20.6-20.6S70.4,80,70.4,91.4"/>
	<circle fill="#007476" cx="99.5" cy="57.3" r="11"/>
	<path fill="#007476" d="M79,91c0-11.4,9.2-20.6,20.6-20.6s20.6,9.2,20.6,20.6"/>
	<circle fill="#007476" cx="149.3" cy="57.3" r="11"/>
	<path fill="#007476" d="M128.7,91c0-11.4,9.2-20.6,20.6-20.6c11.4,0,20.6,9.2,20.6,20.6"/>
	<circle fill="#007476" cx="199" cy="57.3" r="11"/>
	<path fill="#007476" d="M178.4,91c0-11.4,9.2-20.6,20.6-20.6c11.4,0,20.6,9.2,20.6,20.6"/>
	<circle fill="#007476" cx="121.1" cy="135.8" r="11"/>
	<path fill="#007476" d="M100.5,169.5c0-11.4,9.2-20.6,20.6-20.6c11.4,0,20.6,9.2,20.6,20.6l0,0"/>
	<circle fill="#007476" cx="169.6" cy="135.8" r="11"/>
	<path fill="#007476" d="M149,169.5c0-11.4,9.2-20.6,20.6-20.6c11.4,0,20.6,9.2,20.6,20.6l0,0"/>
	<path fill="#007476" d="M152.7,4.4c1.8,0,3.2,1.4,3.2,3.2c0,0,0,0,0,0v26.6c0,2.2-1.7,3.9-3.9,3.9c0,0,0,0,0,0h-23.8l-10.5,11.5
		l0.2-11.5h-4.8c-2.3,0-4.2-1.8-4.2-4.1c0,0,0,0,0,0V7.7c0-1.8,1.5-3.3,3.3-3.3l0,0H152.7 M152.7,0h-40.5c-4.3,0-7.7,3.5-7.7,7.7V34
		c0,4.7,3.8,8.6,8.6,8.6h0.3l-0.1,7.1c0,1.8,1.1,3.5,2.8,4.2c0.5,0.2,1.1,0.3,1.6,0.3c1.2,0,2.4-0.5,3.3-1.4l9.2-10.1H152
		c4.6,0,8.3-3.7,8.3-8.3V7.6C160.3,3.4,156.9,0,152.7,0L152.7,0z"/>
	<path fill="#FFFFFF" d="M231.6,134.1h-22.5l-9.9,10.9l0.2-10.9h-4.5c-2.2,0-3.9-1.8-3.9-3.9v-24.8c0-1.7,1.4-3.1,3.1-3.1h38.2
		c1.7,0,3,1.3,3,2.9c0,0,0,0,0,0.1v25.1C235.4,132.4,233.7,134.1,231.6,134.1C231.7,134.1,231.7,134.1,231.6,134.1z"/>
	<path fill="#007476" d="M232.3,102.3c1.7,0,3,1.3,3,2.9c0,0,0,0,0,0.1v25.1c0,2-1.7,3.7-3.7,3.7c0,0,0,0,0,0h-22.5l-9.9,10.9l0.2-10.9
		h-4.5c-2.2,0-3.9-1.8-3.9-3.9v-24.7c0-1.7,1.4-3.1,3.1-3.1H232.3 M232.3,97.9h-38.2c-4.2,0-7.5,3.4-7.5,7.5v24.8
		c0,4.6,3.7,8.3,8.4,8.4l0,0l-0.1,6.4c0,2.4,2,4.4,4.4,4.4c1.2,0,2.4-0.5,3.3-1.4l8.6-9.4h20.5c4.5,0,8.1-3.6,8.1-8.1v-25.1
		C239.7,101.2,236.4,97.9,232.3,97.9L232.3,97.9z"/>
	<path fill="#FFFFFF" d="M21.7,131.6H39l7.6,8.4l-0.1-8.4h3.5c1.7,0,3-1.3,3-3v-19c0-1.3-1.1-2.4-2.4-2.4l0,0H21.2
		c-1.3,0-2.3,1-2.3,2.3v19.3C18.8,130.3,20.1,131.6,21.7,131.6C21.7,131.6,21.7,131.6,21.7,131.6z"/>
	<path fill="#007476" d="M50.6,107.1c1.3,0,2.4,1.1,2.4,2.4l0,0v19c0,1.7-1.3,3-3,3h-3.5l0.1,8.4l-7.6-8.4H21.7c-1.6,0-2.8-1.2-2.8-2.8
		v-19.3c0-1.3,1.1-2.3,2.3-2.3L50.6,107.1 M50.6,102.7H21.2c-3.7,0-6.8,3-6.8,6.8c0,0,0,0,0,0v19.3c0,4,3.3,7.3,7.3,7.3H37l6.3,6.9
		c0.8,0.9,2,1.4,3.3,1.4c0.6,0,1.1-0.1,1.6-0.3c1.7-0.7,2.8-2.3,2.8-4.2l-0.1-4c3.7-0.5,6.4-3.7,6.4-7.4v-19
		C57.3,105.8,54.3,102.7,50.6,102.7L50.6,102.7z"/>
</g>
</svg>
