<?xml version="1.0" encoding="utf-8"?>
<!-- Generator: Adobe Illustrator 25.2.3, SVG Export Plug-In . SVG Version: 6.00 Build 0)  -->
<svg version="1.1" id="Layer_1" xmlns="http://www.w3.org/2000/svg" xmlns:xlink="http://www.w3.org/1999/xlink" x="0px" y="0px"
	 viewBox="0 0 87.58 100.54" style="enable-background:new 0 0 87.58 100.54;" xml:space="preserve">
<style type="text/css">
	.st0{fill:#007476;}
	.st1{fill:#FFFFFF;}
	.st2{fill:#D71F4D;}
</style>
<g>
	<path class="st0" d="M62.21,100.37l-42.25-5.23c-6.09-0.75-9.94-6.47-8.59-12.74l13.95-64.96c1.35-6.27,7.01-10.82,12.63-10.13
		l40.99,5.04c5.62,0.69,9.39,6.39,8.41,12.72l-12.29,65.2C74.05,96.59,68.29,101.12,62.21,100.37z M37.14,11.25
		c-3.69-0.45-7.41,2.52-8.27,6.63L15.13,82.87c-0.87,4.11,1.66,7.86,5.63,8.35l42.11,5.21c3.97,0.49,7.75-2.48,8.41-6.62
		l12.51-65.17c0.66-4.14-1.82-7.88-5.51-8.33L37.14,11.25z"/>
</g>
<path class="st0" d="M65.93,88.56c-0.06,0-0.12,0-0.18-0.01l-41.14-4.95c-0.82-0.1-1.41-0.85-1.31-1.67
	c0.1-0.82,0.84-1.41,1.67-1.31l39.73,4.78l11.37-63.1c0.15-0.82,0.93-1.36,1.74-1.21c0.82,0.15,1.36,0.93,1.21,1.74L67.4,87.33
	C67.27,88.05,66.64,88.56,65.93,88.56z"/>
<g>
	<path class="st1" d="M52.87,1.51l14.52,1.02c2.31,0.16,3.84,2.03,3.13,3.83l-3.61,9.17c-0.54,1.36-2.19,2.21-3.92,2.02l-10.91-1.2
		c-1.79-0.2-3.13-1.44-3.13-2.92V4.44C48.95,2.72,50.76,1.36,52.87,1.51z"/>
	<path class="st0" d="M63.46,19.08c-0.21,0-0.43-0.01-0.64-0.04l-10.91-1.2c-2.54-0.28-4.46-2.17-4.46-4.41V4.44
		c0-1.13,0.49-2.21,1.37-3.03c1.07-1,2.57-1.51,4.16-1.4L67.5,1.03c1.72,0.12,3.24,0.98,4.07,2.29c0.69,1.1,0.82,2.41,0.35,3.59
		l-3.62,9.17C67.59,17.88,65.62,19.08,63.46,19.08z M52.55,3c-0.66,0-1.28,0.22-1.69,0.6c-0.19,0.18-0.41,0.46-0.41,0.84v8.98
		c0,0.69,0.79,1.32,1.79,1.43l10.91,1.2c1.05,0.11,2.08-0.36,2.36-1.08l3.62-9.17c0.12-0.3,0.09-0.6-0.1-0.89
		c-0.25-0.39-0.83-0.83-1.74-0.89L52.76,3.01C52.69,3,52.62,3,52.55,3z"/>
</g>
<path class="st0" d="M65.82,33.88c-0.06,0-0.11,0-0.17-0.01l-26.58-2.95c-0.82-0.09-1.42-0.83-1.33-1.66
	c0.09-0.82,0.83-1.42,1.66-1.33l26.58,2.95c0.82,0.09,1.42,0.83,1.33,1.66C67.22,33.31,66.57,33.88,65.82,33.88z"/>
<path class="st0" d="M63.38,43.01c-0.06,0-0.11,0-0.17-0.01l-26.58-2.95c-0.82-0.09-1.42-0.83-1.33-1.66
	c0.09-0.82,0.84-1.41,1.66-1.33l26.58,2.95c0.82,0.09,1.42,0.83,1.33,1.66C64.78,42.45,64.13,43.01,63.38,43.01z"/>
<path class="st0" d="M61.46,52.15c-0.06,0-0.11,0-0.17-0.01l-26.58-2.95c-0.82-0.09-1.42-0.83-1.33-1.66
	c0.09-0.82,0.84-1.42,1.66-1.33l26.58,2.95c0.82,0.09,1.42,0.83,1.33,1.66C62.86,51.59,62.21,52.15,61.46,52.15z"/>
<path class="st0" d="M60.44,61.29c-0.06,0-0.11,0-0.17-0.01L33.7,58.33c-0.82-0.09-1.42-0.83-1.33-1.66
	c0.09-0.82,0.83-1.42,1.66-1.33l26.58,2.95c0.82,0.09,1.42,0.83,1.33,1.66C61.85,60.72,61.2,61.29,60.44,61.29z"/>
<path class="st0" d="M39.34,68.22c-0.06,0-0.11,0-0.17-0.01l-6.68-0.74c-0.82-0.09-1.42-0.83-1.33-1.66
	c0.09-0.82,0.83-1.42,1.66-1.33l6.68,0.74c0.82,0.09,1.42,0.83,1.33,1.66C40.74,67.65,40.09,68.22,39.34,68.22z"/>
<g>
	<path class="st2" d="M0.97,9.21l3.2-2.34c1.16-0.85,2.91-0.08,3.89,1.7l12.04,21.9l-7.42,5.43L0.65,13.99
		C-0.33,12.21-0.18,10.05,0.97,9.21z"/>
	<path class="st2" d="M29.84,61.78l3.2-2.35c1.16-0.84-11.69-26.7-11.69-26.7l-7.41,5.43C13.94,38.16,28.68,62.63,29.84,61.78z"/>
	<path class="st2" d="M34.62,63.56c0.03,0.21,0.07,0.56,0.1,0.77l0.35,2.57c0.03,0.21-0.07,0.29-0.23,0.17l-1.87-1.46
		c-0.15-0.12-0.41-0.32-0.56-0.44l-1.39-1.09l3.32-2.43L34.62,63.56z"/>
</g>
</svg>
