<?xml version="1.0" encoding="utf-8"?>
<!-- Generator: Adobe Illustrator 25.2.3, SVG Export Plug-In . SVG Version: 6.00 Build 0)  -->
<svg version="1.1" id="Layer_1" xmlns="http://www.w3.org/2000/svg" xmlns:xlink="http://www.w3.org/1999/xlink" x="0px" y="0px"
	 viewBox="0 0 73.1 88.3" style="enable-background:new 0 0 73.1 88.3;" xml:space="preserve">
<style type="text/css">
	.st0{fill:#006E73;}
</style>
<g>
	<g>
		<path class="st0" d="M63.5,87H9.6C4.3,87,0,82.7,0,77.4V9.6C0,4.3,4.3,0,9.6,0h53.9c5.3,0,9.6,4.3,9.6,9.6v67.8
			C73.1,82.7,68.8,87,63.5,87L63.5,87z M9.6,3.8c-3.2,0-5.8,2.6-5.8,5.8v67.8c0,3.2,2.6,5.8,5.8,5.8h53.9c3.2,0,5.8-2.6,5.8-5.8V9.6
			c0-3.2-2.6-5.8-5.8-5.8H9.6L9.6,3.8z"/>
	</g>
	<g>
		<g>
			<path class="st0" d="M15.5,14.4c-0.4,0-0.8,0.4-0.8,0.8v2.4c0,0.4,0.4,0.8,0.8,0.8h42.1c0.4,0,0.8-0.4,0.8-0.8v-2.4
				c0-0.4-0.3-0.8-0.8-0.8C57.6,14.4,15.5,14.4,15.5,14.4z"/>
		</g>
		<g>
			<path class="st0" d="M15.5,51.4c-0.4,0-0.8,0.3-0.8,0.8v2.3c0,0.4,0.4,0.8,0.8,0.8h42.1c0.4,0,0.8-0.3,0.8-0.8v-2.3
				c0-0.4-0.3-0.8-0.8-0.8H15.5z"/>
		</g>
		<g>
			<path class="st0" d="M15.5,32.9c-0.4,0-0.8,0.3-0.8,0.8V36c0,0.4,0.4,0.8,0.8,0.8h42.1c0.4,0,0.8-0.3,0.8-0.8v-2.3
				c0-0.4-0.3-0.8-0.8-0.8H15.5z"/>
		</g>
		<g>
			<path class="st0" d="M15.5,69.9c-0.4,0-0.8,0.3-0.8,0.8v2.3c0,0.4,0.4,0.8,0.8,0.8h30c0.4,0,0.8-0.3,0.8-0.8v-2.3
				c0-0.4-0.3-0.8-0.8-0.8H15.5z"/>
		</g>
	</g>
</g>
</svg>
