<?xml version="1.0" encoding="utf-8"?>
<!-- Generator: Adobe Illustrator 25.2.3, SVG Export Plug-In . SVG Version: 6.00 Build 0)  -->
<svg version="1.1" id="Layer_1" xmlns="http://www.w3.org/2000/svg" xmlns:xlink="http://www.w3.org/1999/xlink" x="0px" y="0px"
	 viewBox="0 0 142.91 87.18" style="enable-background:new 0 0 142.91 87.18;" xml:space="preserve">
<style type="text/css">
	.st0{fill:#007476;}
	.st1{fill:#D8204D;}
</style>
<g>
	<path class="st0" d="M34.28,33.02c5.95,0.65,9.15-4.12,8.1-11.52c-0.53-3.74-2.44-4.86-4.56-6.8c-3.56-3.24-6.35-7.78-9.61-11.58
		c-4.24-4.95-8.15-3.85-11.19,2.14c-1.32,2.6-3.74,4.41-5.81,6.3c-2.97,2.7-6.26,4.91-9.04,7.87c-0.71,0.75-0.04,3.56,0,5.42
		c0.03,0.08,0.07,0.16,0.11,0.23c1.76,1.73,3.44,3.61,5.29,5.15c2.37,1.96,3.37,6.72,7.6,5.89c-1.63-3.39-3.1-6.44-4.56-9.48
		c0,0,0,0.01,0.01,0.01c-0.01-0.04-0.03-0.07-0.04-0.11c2.88,3.47,5.84,6.84,8.56,10.48c0.69,0.93,1.02,2.83,0.85,4.14
		c-0.68,5.29-1.61,10.53-2.5,16.07c-3.44-1.06-5.86-2.56-5.47-7.33c5.56-2.44,5.78-3.9,1.34-8.78c-1.25-1.38-2.55-2.74-3.97-3.81
		c-0.5-0.37-1.59-0.13-2.13,0.33c-1.87,1.61-3.66,3.38-5.41,5.19c-2.58,2.66-2.49,5.16,0.59,6.11c5.03,1.55,8.66,5.7,12.53,9.41
		c1.06,1.02,1.81,3.19,1.95,4.93c0.29,3.78,0.09,17.8,0.09,21.84c2.7,0,4.9,0,7.31,0c-0.89-4.61-2.08-18.96-2.43-23.25
		c-0.45-5.68-0.9-11.84,5.31-13.71c0.28-0.09,0.42-0.97,0.62-1.48c2.22-0.27,4.45-0.41,6.65-0.87c0.59-0.12,1.56-1.64,1.5-1.77
		c-0.95-1.72-1.91-3.52-3.19-4.81c-0.51-0.52-1.9-0.14-2.68,0.34c-1.29,0.8-2.42,2.01-3.62,3.05c1.44-2.98,2.89-5.96,4.33-8.95
		c-0.11-0.16-0.22-0.32-0.34-0.47c-0.28-0.37-0.57-0.74-0.85-1.1c-0.28-0.37-0.57-0.74-0.83-1.12c-0.26-0.38-0.5-0.77-0.71-1.19
		c0.21,0.41,0.45,0.81,0.71,1.19c0.26,0.38,0.54,0.75,0.83,1.12c0.29,0.37,0.57,0.73,0.85,1.1c0.12,0.16,0.23,0.31,0.34,0.47
		c0,0,0,0,0,0c0.02,0.03,0.05,0.06,0.07,0.09l0,0c0,0,0,0,0,0c0,0-0.01-0.03-0.03-0.06c-0.01-0.03-0.03-0.06-0.03-0.06
		C31.96,33.43,33.14,32.9,34.28,33.02z"/>
	<path class="st0" d="M0.65,26.96c0.78,3.55,2.85,5.03,5.97,4.61c-1.45-2.16-2.91-4.33-4.36-6.49c-0.04-0.07-0.07-0.15-0.11-0.23
		C1.63,25.56,0.54,26.47,0.65,26.96z"/>
</g>
<path class="st1" d="M137.13,83.32V48.85h-20.64v-37.6H75.51v21.37H33.96v46.47l76.31,4.23H33.96H13.24v3.86h129.68v-3.86H137.13z
	 M56.45,65.6H42.58v-9.68h13.88V65.6z M56.45,49.21H42.58v-9.68h13.88V49.21z M99.36,61.77H85.49v-9.68h13.88V61.77z M99.36,44.37
	H85.49v-9.68h13.88V44.37z M99.36,27.98H85.49V18.3h13.88V27.98z M133.26,76.23h-10.89v-7.6h10.89V76.23z M133.26,62.58h-10.89v-7.6
	h10.89V62.58z"/>
</svg>
