<?xml version="1.0" encoding="utf-8"?>
<!-- Generator: Adobe Illustrator 25.2.3, SVG Export Plug-In . SVG Version: 6.00 Build 0)  -->
<svg version="1.1" id="Layer_1" xmlns="http://www.w3.org/2000/svg" xmlns:xlink="http://www.w3.org/1999/xlink" x="0px" y="0px"
	 viewBox="0 0 99.21 86.61" style="enable-background:new 0 0 99.21 86.61;" xml:space="preserve">
<g>
	<path fill="#D71F4D" d="M93.68,1.65c1.46,1.87,1.13,4.58-0.75,6.06c0,0-21.35,16.48-21.98,16.62c-0.41,0.29-27.1,7.5-27.58,7.46
		L6.49,53.24c-2.06,1.19-4.7,0.5-5.91-1.56c-1.2-2.06-0.49-4.7,1.57-5.87l37.07-21.57c0.79-0.46,28.11-7.58,28.11-7.58
		c0.08-0.03,0.15-0.02,0.23-0.04L87.61,0.93C89.49-0.56,92.2-0.22,93.68,1.65z"/>
	<path fill="#007476" d="M38.21,86.61h23.12c1.68,0,3.03-1.36,3.03-3.03V40.97c0-2-1.91-3.46-3.84-2.93l-16.69,4.59
		c-0.29,0.08-0.56,0.2-0.81,0.36l-6.42,4.04c-0.88,0.56-1.42,1.53-1.42,2.57v33.97C35.18,85.25,36.54,86.61,38.21,86.61z"/>
	<path fill="#007476" d="M21.65,57.71L2.58,69.72c-0.82,0.52-1.31,1.41-1.31,2.38v11.69c0,1.55,1.26,2.81,2.81,2.81h19.07
		c1.55,0,2.81-1.26,2.81-2.81v-23.7C25.96,57.88,23.52,56.53,21.65,57.71z"/>
	<path fill="#007476" d="M72.59,33.45v50.62c0,1.4,1.14,2.54,2.54,2.54h21.55c1.4,0,2.54-1.14,2.54-2.54V15.95
		c0-2.14-2.48-3.32-4.14-1.97l-21.55,17.5C72.93,31.97,72.59,32.69,72.59,33.45z"/>
</g>
</svg>
