<?xml version="1.0" encoding="utf-8"?>
<!-- Generator: Adobe Illustrator 25.2.3, SVG Export Plug-In . SVG Version: 6.00 Build 0)  -->
<svg version="1.1" id="Layer_1" xmlns="http://www.w3.org/2000/svg" xmlns:xlink="http://www.w3.org/1999/xlink" x="0px" y="0px"
	 viewBox="0 0 101.19 91.27" style="enable-background:new 0 0 101.19 91.27;" xml:space="preserve">
<path fill="#D51342" d="M98.59,78.74c0.96-0.2,1.38-0.93,1.21-1.91c-0.51-2.96-1.28-5.83-3-8.36c-1.44-2.11-3.33-3.35-5.99-3.17
	c-0.88,0.06-1.78,0.07-2.66,0c-2.73-0.2-5.93,2.9-8.2,4.13c-0.49,0.27-3.4-5.54-4.31-7.24c-0.61-1.15-1.29-1.61-2.27-1.25
	c-1.13,0.41-0.75,1.74-0.35,2.85c0.4,1.11,4.46,9.22,5.4,9.63c1.04,0.46,1.69,0.46,5.93-2.41c0.15,0.02,0.14,0.82,0.14,1.24
	c0,5.42-0.01,10.83,0.02,16.25c0.01,0.99-0.06,3.11,1.81,3.11s2.02-2.95,2.02-2.95c-0.07-3.01,0.03-4.1,0.03-7.7
	c0.81,0,1.33,0,2.21,0c0,3.55-0.01,4.2-0.01,7.79c0,0,0.16,2.86,2.03,2.86s1.79-2.15,1.79-3.15c0.03-5.83,0.01-11.66,0.26-17.62
	c0.22,0.45,0.51,0.89,0.65,1.37c0.5,1.69,0.99,3.4,1.43,5.11C96.97,78.33,97.52,78.96,98.59,78.74z"/>
<path fill="#006E73" d="M57.66,5.33c-0.75-1.31-1.76-2.43-2.97-3.31C52.94,0.75,50.81,0,48.5,0c-5.82,0-10.55,4.72-10.55,10.55
	c0,1.09,0.17,2.15,0.47,3.14c0.1,0.33,0.22,0.65,0.35,0.97c1.6,3.79,5.35,6.44,9.72,6.44c2.31,0,4.45-0.75,6.19-2.02
	c1.21-0.88,2.23-2.01,2.97-3.31c0.2-0.36,0.4-0.73,0.56-1.11c0.13-0.32,0.25-0.64,0.35-0.97c0.31-0.99,0.47-2.04,0.47-3.14
	C59.04,8.65,58.54,6.87,57.66,5.33z"/>
<path fill="#006E73" d="M27.78,5.33c-0.75-1.31-1.76-2.43-2.97-3.31C23.07,0.75,20.93,0,18.62,0C12.79,0,8.07,4.72,8.07,10.55
	c0,1.09,0.17,2.15,0.47,3.14c0.1,0.33,0.22,0.65,0.35,0.97c1.6,3.79,5.35,6.44,9.72,6.44c2.31,0,4.45-0.75,6.19-2.02
	c1.21-0.88,2.23-2.01,2.97-3.31c0.2-0.36,0.4-0.73,0.56-1.11c0.13-0.32,0.25-0.64,0.35-0.97c0.31-0.99,0.47-2.04,0.47-3.14
	C29.17,8.65,28.66,6.87,27.78,5.33z"/>
<g>
	<polygon  fill="none" points="7.19,62.87 12.03,91.43 7.19,62.87 	"/>
	<path fill="#006E73" d="M34.87,50.37c-0.09,0.06-0.18,0.13-0.27,0.19C34.69,50.5,34.78,50.43,34.87,50.37z"/>
	<path fill="#006E73" d="M24.11,58.34c0.18-0.12,0.35-0.25,0.54-0.36C24.47,58.09,24.29,58.21,24.11,58.34z"/>
	<path fill="#006E73" d="M35.34,49.99c-0.08,0.07-0.16,0.15-0.25,0.22C35.17,50.14,35.25,50.06,35.34,49.99z"/>
	<path fill="#006E73" d="M36.15,49.12c-0.07,0.09-0.14,0.18-0.21,0.27C36.02,49.3,36.08,49.21,36.15,49.12z"/>
	<path fill="#006E73" d="M35.77,49.57c-0.08,0.08-0.15,0.17-0.23,0.24C35.62,49.74,35.69,49.66,35.77,49.57z"/>
	<path fill="#006E73" d="M26.1,57.32c0.2-0.07,0.4-0.13,0.61-0.18C26.5,57.19,26.3,57.26,26.1,57.32z"/>
	<path fill="#006E73" d="M25.07,57.76c0.19-0.1,0.38-0.19,0.57-0.27C25.45,57.57,25.26,57.66,25.07,57.76z"/>
	<path fill="#006E73" d="M36.79,48.11c-0.05,0.1-0.1,0.21-0.16,0.31C36.69,48.32,36.74,48.22,36.79,48.11z"/>
	<path fill="#006E73" d="M36.49,48.63c-0.06,0.1-0.12,0.19-0.18,0.29C36.38,48.83,36.43,48.73,36.49,48.63z"/>
	<path fill="#006E73" d="M33.83,50.98c-0.1,0.05-0.19,0.09-0.29,0.13C33.63,51.07,33.73,51.02,33.83,50.98z"/>
	<path fill="#006E73" d="M21.4,61.2c0.23-0.34,0.47-0.67,0.72-0.98C21.87,60.54,21.63,60.86,21.4,61.2z"/>
	<path fill="#006E73" d="M32.67,51.38c-0.1,0.03-0.21,0.05-0.31,0.07C32.46,51.44,32.57,51.41,32.67,51.38z"/>
	<path fill="#006E73" d="M32.06,51.5c-0.11,0.02-0.22,0.03-0.33,0.04C31.85,51.53,31.95,51.52,32.06,51.5z"/>
	<path fill="#006E73" d="M17.79,73.8c-0.14-0.23-0.23-0.49-0.28-0.78C17.55,73.31,17.64,73.57,17.79,73.8z"/>
	<path fill="#006E73" d="M22.37,59.95c0.17-0.2,0.35-0.4,0.53-0.59C22.71,59.54,22.54,59.74,22.37,59.95z"/>
	<path fill="#006E73" d="M37.03,47.56c-0.04,0.11-0.08,0.22-0.13,0.33C36.95,47.78,36.99,47.67,37.03,47.56z"/>
	<path fill="#006E73" d="M34.36,50.7c-0.09,0.05-0.19,0.11-0.28,0.16C34.18,50.81,34.27,50.75,34.36,50.7z"/>
	<path fill="#006E73" d="M33.26,51.21c-0.1,0.04-0.2,0.07-0.31,0.11C33.06,51.28,33.16,51.24,33.26,51.21z"/>
	<path fill="#006E73" d="M23.22,59.06c0.17-0.16,0.34-0.31,0.52-0.46C23.56,58.75,23.39,58.9,23.22,59.06z"/>
	<path fill="#006E73" d="M38.52,58.57c0.17,0.14,0.34,0.29,0.51,0.44C38.86,58.86,38.7,58.7,38.52,58.57z"/>
	<path fill="#006E73" d="M35.6,57.14c0.2,0.05,0.39,0.11,0.59,0.17C35.99,57.25,35.8,57.19,35.6,57.14z"/>
	<path fill="#006E73" d="M39.36,59.3c0.18,0.18,0.35,0.37,0.52,0.57C39.71,59.67,39.54,59.48,39.36,59.3z"/>
	<path fill="#006E73" d="M37.62,57.96c0.18,0.1,0.35,0.22,0.52,0.34C37.97,58.18,37.8,58.06,37.62,57.96z"/>
	<path fill="#006E73" d="M29.19,51.27c-0.59-0.19-1.14-0.47-1.63-0.81C28.05,50.8,28.6,51.08,29.19,51.27z"/>
	<path fill="#006E73" d="M36.65,57.48c0.19,0.08,0.37,0.17,0.55,0.26C37.02,57.65,36.83,57.56,36.65,57.48z"/>
	<path fill="#006E73" d="M27.21,57.04c0.21-0.04,0.43-0.07,0.65-0.09C27.64,56.97,27.42,57,27.21,57.04z"/>
	<path fill="#006E73" d="M28.71,56.89c-0.1,0-0.2,0.02-0.3,0.02c0.34-0.01,0.68-0.02,1.03,0.01C29.19,56.9,28.95,56.89,28.71,56.89z"/>
	<path fill="#006E73" d="M32.94,56.92c-0.59,0.04-1.18,0.06-1.77,0.06C31.76,56.98,32.35,56.96,32.94,56.92z"/>
	<path fill="#006E73" d="M34.47,56.95c0.21,0.02,0.42,0.05,0.63,0.09C34.89,57.01,34.68,56.98,34.47,56.95z"/>
	<path fill="#006E73" d="M33.61,56.9c-0.22,0-0.44,0.01-0.66,0.02c0.34-0.02,0.66-0.01,0.98,0C33.82,56.92,33.72,56.9,33.61,56.9z"/>
	<path fill="#006E73" d="M41.51,74.24c-0.06-0.05-0.11-0.11-0.16-0.17C41.41,74.14,41.46,74.19,41.51,74.24z"/>
	<path fill="#006E73" d="M40.13,60.15c0.25,0.3,0.49,0.62,0.72,0.96C40.62,60.77,40.38,60.45,40.13,60.15z"/>
	<path fill="#006E73" d="M41.05,73.61c-0.04-0.08-0.08-0.18-0.12-0.27C40.97,73.44,41.01,73.53,41.05,73.61z"/>
	<path fill="#006E73" d="M40.88,73.22c-0.05-0.14-0.1-0.29-0.14-0.44C40.78,72.93,40.83,73.07,40.88,73.22z"/>
	<path fill="#006E73" d="M41.26,73.96c-0.05-0.07-0.09-0.14-0.13-0.21C41.17,73.82,41.21,73.89,41.26,73.96z"/>
	<path fill="#006E73" d="M41.82,74.47c-0.07-0.04-0.13-0.08-0.2-0.13C41.68,74.39,41.75,74.43,41.82,74.47z"/>
	<path fill="#006E73" d="M44.85,72.59c0.01,0.3-0.03,0.58-0.12,0.82C44.81,73.17,44.86,72.89,44.85,72.59z"/>
	<path fill="#006E73" d="M42.68,74.69c0.01,0,0.01,0,0.02,0c-0.14,0-0.28-0.01-0.4-0.04C42.41,74.68,42.54,74.69,42.68,74.69z"/>
	<path fill="#006E73" d="M42.21,74.63c-0.1-0.02-0.19-0.05-0.28-0.09C42.02,74.58,42.11,74.6,42.21,74.63z"/>
	<path fill="#006E73" d="M18.04,74.11c0.29,0.28,0.69,0.48,1.21,0.55c0.13,0.02,0.26,0.03,0.37,0.03c0.02,0,0.04-0.01,0.06-0.01
		c-0.14,0-0.28,0-0.44-0.02C18.73,74.59,18.33,74.39,18.04,74.11z"/>
	<path fill="#006E73" d="M21.62,72.64c-0.04,0.16-0.08,0.31-0.13,0.45C21.54,72.95,21.58,72.8,21.62,72.64z"/>
	<path fill="#006E73" d="M27.5,40.25c0.09-0.06,0.17-0.13,0.26-0.19C27.66,40.13,27.58,40.19,27.5,40.25z"/>
	<path fill="#006E73" d="M21.03,73.99c-0.05,0.06-0.09,0.12-0.15,0.17C20.93,74.11,20.98,74.05,21.03,73.99z"/>
	<path fill="#006E73" d="M31.14,39.03c-0.09,0-0.17,0.01-0.26,0.01c0.13-0.01,0.26-0.01,0.38-0.01C31.22,39.03,31.18,39.03,31.14,39.03
		z"/>
	<path fill="#006E73" d="M27.03,40.63c0.08-0.07,0.16-0.14,0.24-0.21C27.19,40.49,27.11,40.56,27.03,40.63z"/>
	<path fill="#006E73" d="M22.66,69.51c-0.27,0.7-0.52,1.39-0.74,2.09C22.14,70.9,22.39,70.2,22.66,69.51z"/>
	<path fill="#006E73" d="M37.44,45.5c0,0.21-0.02,0.42-0.05,0.63C37.42,45.92,37.44,45.71,37.44,45.5z"/>
	<path fill="#006E73" d="M21.25,73.64c-0.04,0.08-0.08,0.15-0.13,0.22C21.17,73.79,21.21,73.72,21.25,73.64z"/>
	<path fill="#006E73" d="M29.66,39.23c0.1-0.03,0.2-0.05,0.31-0.07C29.87,39.17,29.77,39.2,29.66,39.23z"/>
	<path fill="#006E73" d="M28.53,39.64c0.09-0.05,0.19-0.09,0.29-0.13C28.72,39.54,28.62,39.59,28.53,39.64z"/>
	<path fill="#006E73" d="M21.44,73.22c-0.04,0.09-0.07,0.19-0.11,0.27C21.37,73.41,21.4,73.32,21.44,73.22z"/>
	<path fill="#006E73" d="M26.6,41.05c0.07-0.08,0.14-0.16,0.22-0.23C26.74,40.89,26.67,40.97,26.6,41.05z"/>
	<path fill="#006E73" d="M28,39.92c0.09-0.05,0.18-0.11,0.27-0.16C28.18,39.81,28.09,39.87,28,39.92z"/>
	<path fill="#006E73" d="M30.26,39.11c0.11-0.02,0.21-0.03,0.32-0.04C30.47,39.07,30.37,39.09,30.26,39.11z"/>
	<path fill="#006E73" d="M24.9,45.15c0-0.21,0.02-0.42,0.04-0.62C24.92,44.73,24.91,44.94,24.9,45.15z"/>
	<path fill="#006E73" d="M37.22,46.97c-0.03,0.12-0.06,0.24-0.1,0.36C37.16,47.21,37.19,47.09,37.22,46.97z"/>
	<path fill="#006E73" d="M25.12,43.69c0.03-0.12,0.06-0.24,0.1-0.36C25.18,43.45,25.15,43.57,25.12,43.69z"/>
	<path fill="#006E73" d="M29.19,51.27c0.59,0.19,1.22,0.3,1.87,0.3c0.02,0,0.05,0,0.07,0c0.1,0,0.2-0.01,0.3-0.01
		c-0.12,0.01-0.25,0.02-0.37,0.01C30.41,51.57,29.78,51.46,29.19,51.27z"/>
	<path fill="#006E73" d="M25.32,43.1c0.04-0.11,0.08-0.22,0.13-0.33C25.4,42.88,25.36,42.99,25.32,43.1z"/>
	<path fill="#006E73" d="M20.1,74.63c-0.08,0.02-0.16,0.03-0.24,0.04C19.94,74.66,20.02,74.65,20.1,74.63z"/>
	<path fill="#006E73" d="M76.47,57.37c-1-1.62-13.73-22.15-13.73-22.15l-0.98-1.25c-1.1-1.47-1.58-2.04-2.41-3.12
		c-0.55-0.72-1.16-1.41-1.8-2.04c-0.65-0.64-1.34-1.23-2.06-1.78c-0.73-0.54-1.5-1.04-2.3-1.48c-0.1-0.05-0.2-0.1-0.3-0.15
		c-0.31-0.16-0.61-0.32-0.93-0.47c-0.66-0.31-1.35-0.56-2.05-0.8c-0.18-0.06-0.36-0.13-0.55-0.19c-1.79-0.53-3.68-0.82-5.64-0.82
		c-4.42,0-8.5,1.46-11.79,3.91c-0.08,0.06-0.16,0.13-0.24,0.19c-0.08-0.06-0.16-0.13-0.25-0.2c-0.73-0.54-1.5-1.04-2.3-1.48
		c-0.1-0.05-0.2-0.1-0.3-0.15c-0.31-0.16-0.61-0.32-0.93-0.47c-0.66-0.31-1.35-0.56-2.05-0.8c-0.18-0.06-0.36-0.13-0.55-0.19
		c-1.79-0.53-3.68-0.82-5.64-0.82c-4.42,0-8.5,1.46-11.79,3.91c-0.51,0.38-0.99,0.78-1.46,1.2c-0.23,0.21-0.46,0.43-0.68,0.65
		c-0.45,0.45-0.87,0.91-1.27,1.4c-0.2,0.24-0.4,0.49-0.59,0.74c-0.57,0.76-1.08,1.56-1.54,2.4c-0.46,0.84-0.85,1.71-1.18,2.62
		c-0.33,0.91-0.6,1.84-0.8,2.8C0.14,40.14,0,41.47,0,42.83v0h0.02c0,0,0,0,0,0c0,0,0.4,19.25,0.4,19.3c0.02,0.44,0,1.96,0.67,2.98
		c0.52,0.7,1.3,1.12,2.32,1.25c0.23,0.03,0.45,0.05,0.67,0.05c1.7,0,2.51-0.97,2.89-1.79c0.1-0.21,0.17-0.42,0.23-0.61l4.66,27.45
		c0.02,0.09,0.09,0.15,0.18,0.15h11.04c-0.07-1.06-0.13-4.85-0.22-12.66c-0.02-1.29-0.03-2.66-0.05-4.01
		c-0.95,1.47-2.32,1.73-3.18,1.73c-0.22,0-0.44-0.02-0.66-0.05c-1.15-0.17-2.09-0.71-2.72-1.56c-0.66-0.9-0.9-2.06-0.68-3.34
		c0.82-4.96,2.11-8.55,4.18-11.65c2.3-3.45,5.32-5.2,8.97-5.2h0c0.29,0,0.58,0.01,0.88,0.03c0.51,0.04,1.03,0.06,1.57,0.06
		c0.54,0,1.09-0.02,1.66-0.06c0.27-0.02,0.54-0.03,0.8-0.03c3.6,0,6.59,1.71,8.89,5.08c2.63,3.86,3.64,8.13,4.27,11.8
		c0.42,2.4-0.85,4.33-3.16,4.81c-0.32,0.07-0.63,0.1-0.94,0.1c-0.66,0-2-0.18-2.99-1.49c-0.05,2.29-0.1,4.6-0.15,6.73
		c-0.12,5.42-0.19,8.67-0.25,9.68h11.65c0.09,0,0.16-0.06,0.18-0.15l9.12-47.05c0,0,10.1,15.29,11.18,16.38
		c1.08,1.09,2.54,3.2,4.74,2.07C78.36,61.74,77.47,58.99,76.47,57.37z M7.19,62.87L7.19,62.87l4.85,28.57L7.19,62.87z M31.14,53.57
		l-0.1,0c-2.21-0.02-4.28-0.91-5.8-2.48c-1.55-1.6-2.37-3.72-2.33-5.98c0.09-4.45,3.78-8.08,8.24-8.08l0.16,0
		c2.21,0.04,4.27,0.96,5.81,2.56c1.55,1.61,2.37,3.73,2.32,5.95C39.34,50.05,35.69,53.57,31.14,53.57z"/>
	<path fill="#006E73" d="M25.56,42.53c0.05-0.1,0.1-0.2,0.15-0.3C25.66,42.33,25.61,42.43,25.56,42.53z"/>
	<path fill="#006E73" d="M24.98,44.32c0.02-0.14,0.04-0.27,0.07-0.41C25.03,44.05,25.01,44.19,24.98,44.32z"/>
	<path fill="#006E73" d="M25.86,42.01c0.06-0.09,0.12-0.19,0.18-0.28C25.98,41.82,25.92,41.91,25.86,42.01z"/>
	<path fill="#006E73" d="M37.36,46.33c-0.02,0.14-0.04,0.27-0.07,0.41C37.32,46.6,37.34,46.47,37.36,46.33z"/>
	<path fill="#006E73" d="M23.48,67.42c-0.27,0.7-0.55,1.39-0.82,2.09C22.93,68.81,23.21,68.11,23.48,67.42z"/>
	<path fill="#006E73" d="M20.76,74.27c-0.05,0.05-0.11,0.09-0.17,0.13C20.65,74.36,20.71,74.32,20.76,74.27z"/>
	<path fill="#006E73" d="M26.21,41.51c0.07-0.09,0.13-0.17,0.2-0.26C26.34,41.34,26.28,41.42,26.21,41.51z"/>
	<path fill="#006E73" d="M29.08,39.4c0.1-0.04,0.2-0.07,0.3-0.1C29.28,39.33,29.18,39.37,29.08,39.4z"/>
	<path fill="#006E73" d="M20.46,74.49c-0.06,0.03-0.13,0.06-0.2,0.09C20.32,74.55,20.39,74.52,20.46,74.49z"/>
	<path fill="#D51342" d="M40.74,72.77c0.04,0.16,0.09,0.3,0.14,0.44c0.02,0.04,0.04,0.09,0.05,0.13c0.04,0.09,0.08,0.18,0.12,0.27
		c0.02,0.05,0.05,0.09,0.08,0.14c0.04,0.07,0.09,0.14,0.13,0.21c0.03,0.04,0.06,0.08,0.1,0.12c0.05,0.06,0.1,0.11,0.16,0.17
		c0.04,0.03,0.07,0.07,0.11,0.1c0.06,0.05,0.13,0.09,0.2,0.13c0.04,0.02,0.07,0.05,0.11,0.07c0.09,0.04,0.18,0.07,0.28,0.09
		c0.03,0.01,0.05,0.02,0.08,0.03c0.13,0.03,0.26,0.04,0.4,0.04c0.16,0,0.33-0.02,0.51-0.06c0.79-0.16,1.3-0.6,1.52-1.22
		c0.09-0.25,0.13-0.52,0.12-0.82c0-0.15-0.02-0.31-0.05-0.47c-0.25-1.46-0.55-2.91-0.95-4.32c-0.66-2.36-1.59-4.62-3.01-6.7
		c-0.23-0.34-0.47-0.65-0.72-0.96c-0.08-0.1-0.17-0.19-0.25-0.28c-0.17-0.19-0.34-0.39-0.52-0.57c-0.11-0.1-0.22-0.2-0.33-0.29
		c-0.17-0.15-0.33-0.3-0.51-0.44c-0.12-0.1-0.25-0.18-0.38-0.27c-0.17-0.12-0.34-0.24-0.52-0.34c-0.14-0.08-0.28-0.15-0.42-0.22
		c-0.18-0.09-0.36-0.18-0.55-0.26c-0.15-0.06-0.31-0.11-0.46-0.16c-0.19-0.06-0.39-0.12-0.59-0.17c-0.16-0.04-0.33-0.07-0.5-0.1
		c-0.21-0.04-0.42-0.07-0.63-0.09c-0.18-0.02-0.36-0.03-0.54-0.03c-0.32-0.01-0.64-0.02-0.98,0c-0.59,0.04-1.18,0.06-1.77,0.06
		c-0.01,0-0.01,0-0.02,0c-0.57,0-1.15-0.02-1.72-0.06c-0.36-0.03-0.7-0.02-1.03-0.01c-0.18,0.01-0.36,0.02-0.54,0.04
		c-0.22,0.02-0.44,0.05-0.65,0.09c-0.17,0.03-0.34,0.06-0.5,0.1c-0.21,0.05-0.41,0.11-0.61,0.18c-0.15,0.05-0.31,0.1-0.46,0.17
		c-0.2,0.08-0.38,0.17-0.57,0.27c-0.14,0.07-0.28,0.14-0.42,0.22c-0.19,0.11-0.36,0.23-0.54,0.36c-0.13,0.09-0.25,0.17-0.37,0.27
		c-0.18,0.14-0.35,0.3-0.52,0.46c-0.11,0.1-0.22,0.19-0.32,0.3c-0.18,0.18-0.36,0.39-0.53,0.59c-0.08,0.1-0.17,0.18-0.25,0.28
		c-0.25,0.31-0.49,0.63-0.72,0.98c-2.19,3.29-3.23,7.01-3.87,10.86c-0.06,0.34-0.06,0.66-0.02,0.95c0.04,0.29,0.13,0.55,0.28,0.78
		c0.07,0.11,0.15,0.22,0.25,0.31c0.29,0.28,0.69,0.48,1.21,0.55c0.16,0.02,0.3,0.03,0.44,0.02c0.06,0,0.12-0.01,0.17-0.02
		c0.08-0.01,0.16-0.02,0.24-0.04c0.05-0.01,0.11-0.03,0.16-0.05c0.07-0.03,0.14-0.05,0.2-0.09c0.05-0.03,0.09-0.05,0.14-0.08
		c0.06-0.04,0.12-0.08,0.17-0.13c0.04-0.03,0.08-0.07,0.12-0.11c0.05-0.05,0.1-0.11,0.15-0.17c0.03-0.04,0.07-0.08,0.1-0.13
		c0.05-0.07,0.09-0.14,0.13-0.22c0.03-0.05,0.05-0.09,0.08-0.14c0.04-0.09,0.08-0.18,0.11-0.27c0.02-0.05,0.04-0.09,0.05-0.13
		c0.05-0.14,0.09-0.29,0.13-0.45c0.09-0.35,0.19-0.69,0.3-1.04c0.22-0.7,0.47-1.39,0.74-2.09c0.27-0.7,0.55-1.39,0.82-2.09
		c0.41-1.04,0.79-2.09,1.08-3.12c0.2,0.02,0.35,25.84,0.52,27.3l4.64,0.01c0-4.66-0.79-13.76,1.45-13.76
		c2.25,0,1.46,9.04,1.46,13.77l4.65,0.01c0.14-1.52,0.39-19.53,0.72-27.39C38.3,64.83,40.16,70.51,40.74,72.77z"/>
	<path fill="#FFFFFF" d="M22.9,59.36c0.1-0.11,0.22-0.2,0.32-0.3C23.11,59.16,23,59.25,22.9,59.36z"/>
	<path fill="#FFFFFF" d="M39.88,59.87c0.08,0.1,0.17,0.18,0.25,0.28C40.05,60.05,39.96,59.96,39.88,59.87z"/>
	<path fill="#FFFFFF" d="M37.2,57.74c0.14,0.07,0.29,0.14,0.42,0.22C37.48,57.88,37.34,57.81,37.2,57.74z"/>
	<path fill="#FFFFFF" d="M38.14,58.3c0.13,0.09,0.26,0.17,0.38,0.27C38.4,58.47,38.27,58.39,38.14,58.3z"/>
	<path fill="#FFFFFF" d="M23.74,58.61c0.12-0.1,0.25-0.18,0.37-0.27C23.99,58.43,23.86,58.51,23.74,58.61z"/>
	<path fill="#FFFFFF" d="M24.65,57.98c0.14-0.08,0.28-0.15,0.42-0.22C24.93,57.83,24.79,57.9,24.65,57.98z"/>
	<path fill="#FFFFFF" d="M39.03,59.01c0.11,0.1,0.22,0.19,0.33,0.29C39.25,59.2,39.14,59.1,39.03,59.01z"/>
	<path fill="#FFFFFF" d="M20.59,74.4c-0.04,0.03-0.09,0.06-0.14,0.08C20.5,74.46,20.55,74.43,20.59,74.4z"/>
	<path fill="#FFFFFF" d="M27.86,56.95c0.18-0.02,0.36-0.03,0.54-0.04C28.22,56.92,28.04,56.93,27.86,56.95z"/>
	<path fill="#FFFFFF" d="M19.86,74.67c-0.06,0.01-0.11,0.02-0.17,0.02C19.74,74.68,19.8,74.67,19.86,74.67z"/>
	<path fill="#FFFFFF" d="M22.12,60.23c0.08-0.1,0.17-0.19,0.25-0.28C22.28,60.04,22.2,60.13,22.12,60.23z"/>
	<path fill="#FFFFFF" d="M20.25,74.57c-0.05,0.02-0.1,0.04-0.16,0.05C20.15,74.61,20.2,74.59,20.25,74.57z"/>
	<path fill="#FFFFFF" d="M36.18,57.32c0.16,0.05,0.31,0.1,0.46,0.16C36.5,57.42,36.34,57.37,36.18,57.32z"/>
	<path fill="#FFFFFF" d="M35.1,57.04c0.17,0.03,0.34,0.06,0.5,0.1C35.43,57.1,35.26,57.07,35.1,57.04z"/>
	<path fill="#FFFFFF" d="M40.93,73.34c-0.02-0.04-0.04-0.08-0.05-0.13C40.89,73.26,40.91,73.3,40.93,73.34z"/>
	<path fill="#FFFFFF" d="M33.93,56.92c0.18,0.01,0.36,0.02,0.54,0.03C34.29,56.94,34.11,56.93,33.93,56.92z"/>
	<path fill="#FFFFFF" d="M31.17,56.98c-0.58,0-1.16-0.02-1.73-0.06c0.57,0.04,1.14,0.06,1.72,0.06C31.16,56.98,31.16,56.98,31.17,56.98
		z"/>
	<path fill="#FFFFFF" d="M41.62,74.34c-0.04-0.03-0.07-0.06-0.11-0.1C41.55,74.28,41.59,74.31,41.62,74.34z"/>
	<path fill="#FFFFFF" d="M41.36,74.08c-0.03-0.04-0.06-0.08-0.1-0.12C41.29,74,41.32,74.04,41.36,74.08z"/>
	<path fill="#FFFFFF" d="M41.13,73.75c-0.03-0.04-0.05-0.09-0.08-0.14C41.07,73.66,41.1,73.7,41.13,73.75z"/>
	<path fill="#FFFFFF" d="M21.32,73.5c-0.02,0.05-0.05,0.09-0.08,0.14C21.27,73.59,21.3,73.55,21.32,73.5z"/>
	<path fill="#FFFFFF" d="M21.49,73.09c-0.02,0.05-0.04,0.09-0.05,0.13C21.45,73.18,21.47,73.14,21.49,73.09z"/>
	<path fill="#FFFFFF" d="M44.85,72.59c0-0.15-0.02-0.31-0.05-0.47c-0.25-1.46-0.55-2.91-0.95-4.32c0.4,1.41,0.7,2.86,0.95,4.32
		C44.83,72.28,44.84,72.44,44.85,72.59z"/>
	<path fill="#FFFFFF" d="M41.93,74.53c-0.04-0.02-0.08-0.04-0.11-0.07C41.86,74.49,41.89,74.52,41.93,74.53z"/>
	<path fill="#FFFFFF" d="M21.12,73.86c-0.03,0.05-0.06,0.09-0.1,0.13C21.06,73.95,21.09,73.91,21.12,73.86z"/>
	<path fill="#FFFFFF" d="M43.21,74.64c-0.18,0.04-0.35,0.05-0.51,0.06C42.86,74.69,43.02,74.67,43.21,74.64z"/>
	<path fill="#FFFFFF" d="M25.64,57.49c0.15-0.06,0.3-0.11,0.46-0.17C25.95,57.37,25.79,57.43,25.64,57.49z"/>
	<path fill="#FFFFFF" d="M26.71,57.14c0.16-0.04,0.33-0.07,0.5-0.1C27.04,57.07,26.87,57.1,26.71,57.14z"/>
	<path fill="#FFFFFF" d="M42.29,74.66c-0.03-0.01-0.05-0.02-0.08-0.03C42.24,74.64,42.26,74.65,42.29,74.66z"/>
	<path fill="#FFFFFF" d="M20.88,74.16c-0.04,0.04-0.08,0.07-0.12,0.11C20.8,74.24,20.84,74.2,20.88,74.16z"/>
	<path fill="#D51342" d="M37.22,46.97c0.02-0.08,0.05-0.15,0.06-0.23c0.03-0.13,0.05-0.27,0.07-0.41c0.01-0.07,0.03-0.13,0.04-0.2
		c0.03-0.21,0.04-0.42,0.05-0.63c0.08-3.48-2.71-6.4-6.18-6.47c-0.13,0-0.26,0.01-0.38,0.01c-0.1,0-0.2,0.01-0.3,0.02
		c-0.11,0.01-0.21,0.03-0.32,0.04c-0.1,0.01-0.2,0.03-0.29,0.05c-0.1,0.02-0.21,0.05-0.31,0.07c-0.09,0.02-0.19,0.05-0.28,0.07
		c-0.1,0.03-0.2,0.07-0.3,0.1c-0.09,0.03-0.18,0.06-0.27,0.1c-0.1,0.04-0.19,0.09-0.29,0.13c-0.09,0.04-0.17,0.08-0.26,0.12
		c-0.09,0.05-0.18,0.11-0.27,0.16c-0.08,0.05-0.16,0.09-0.24,0.15c-0.09,0.06-0.17,0.12-0.26,0.19c-0.08,0.06-0.15,0.11-0.23,0.17
		c-0.08,0.07-0.16,0.14-0.24,0.21c-0.07,0.06-0.14,0.12-0.21,0.19c-0.08,0.07-0.15,0.15-0.22,0.23c-0.06,0.07-0.13,0.13-0.19,0.2
		c-0.07,0.08-0.13,0.17-0.2,0.26c-0.06,0.07-0.11,0.14-0.17,0.22c-0.06,0.09-0.12,0.19-0.18,0.28c-0.05,0.08-0.1,0.15-0.14,0.23
		c-0.06,0.1-0.1,0.2-0.15,0.3c-0.04,0.08-0.08,0.15-0.12,0.23c-0.05,0.11-0.09,0.22-0.13,0.33c-0.03,0.08-0.07,0.16-0.09,0.24
		c-0.04,0.12-0.07,0.24-0.1,0.36c-0.02,0.08-0.05,0.15-0.06,0.23c-0.03,0.13-0.05,0.27-0.07,0.41c-0.01,0.07-0.03,0.13-0.04,0.2
		c-0.03,0.21-0.04,0.41-0.04,0.62c-0.04,2.21,1.01,4.15,2.65,5.31c0.49,0.35,1.04,0.62,1.63,0.81c0.59,0.19,1.22,0.3,1.87,0.3
		c0.13,0,0.25-0.01,0.37-0.01c0.1,0,0.2-0.01,0.3-0.01c0.11-0.01,0.22-0.03,0.33-0.04c0.1-0.01,0.2-0.02,0.29-0.04
		c0.11-0.02,0.21-0.05,0.31-0.07c0.1-0.02,0.19-0.04,0.29-0.07c0.1-0.03,0.2-0.07,0.31-0.11c0.09-0.03,0.18-0.06,0.27-0.1
		c0.1-0.04,0.2-0.09,0.29-0.13c0.08-0.04,0.17-0.08,0.25-0.12c0.1-0.05,0.19-0.11,0.28-0.16c0.08-0.05,0.16-0.09,0.24-0.14
		c0.09-0.06,0.18-0.13,0.27-0.19c0.07-0.05,0.15-0.1,0.22-0.16c0.09-0.07,0.17-0.14,0.25-0.22c0.07-0.06,0.13-0.11,0.2-0.17
		c0.08-0.08,0.16-0.16,0.23-0.24c0.06-0.06,0.12-0.12,0.18-0.19c0.07-0.09,0.14-0.18,0.21-0.27c0.05-0.07,0.11-0.13,0.16-0.2
		c0.07-0.09,0.12-0.19,0.18-0.29c0.05-0.07,0.09-0.14,0.14-0.22c0.06-0.1,0.11-0.2,0.16-0.31c0.04-0.08,0.08-0.15,0.12-0.23
		c0.05-0.11,0.09-0.22,0.13-0.33c0.03-0.08,0.06-0.15,0.09-0.23C37.16,47.21,37.19,47.09,37.22,46.97z"/>
	<path fill="#FFFFFF" d="M25.44,42.77c0.04-0.08,0.08-0.16,0.12-0.23C25.52,42.61,25.48,42.69,25.44,42.77z"/>
	<path fill="#FFFFFF" d="M27.27,40.42c0.07-0.06,0.15-0.11,0.23-0.17C27.42,40.31,27.34,40.36,27.27,40.42z"/>
	<path fill="#FFFFFF" d="M28.81,39.5c0.09-0.04,0.18-0.07,0.27-0.1C28.99,39.44,28.9,39.47,28.81,39.5z"/>
	<path fill="#FFFFFF" d="M28.27,39.76c0.08-0.04,0.17-0.08,0.26-0.12C28.44,39.68,28.35,39.72,28.27,39.76z"/>
	<path fill="#FFFFFF" d="M27.75,40.07c0.08-0.05,0.16-0.1,0.24-0.15C27.91,39.97,27.83,40.02,27.75,40.07z"/>
	<path fill="#FFFFFF" d="M26.04,41.73c0.05-0.07,0.11-0.14,0.17-0.22C26.15,41.58,26.09,41.65,26.04,41.73z"/>
	<path fill="#FFFFFF" d="M26.82,40.82c0.07-0.06,0.14-0.12,0.21-0.19C26.96,40.69,26.89,40.75,26.82,40.82z"/>
	<path fill="#FFFFFF" d="M26.41,41.25c0.06-0.07,0.13-0.14,0.19-0.2C26.54,41.12,26.47,41.18,26.41,41.25z"/>
	<path fill="#FFFFFF" d="M37.29,46.74c-0.02,0.08-0.04,0.15-0.06,0.23C37.25,46.89,37.27,46.82,37.29,46.74z"/>
	<path fill="#FFFFFF" d="M25.72,42.23c0.04-0.08,0.1-0.15,0.14-0.23C25.82,42.08,25.76,42.15,25.72,42.23z"/>
	<path fill="#FFFFFF" d="M37.03,47.56c0.03-0.08,0.06-0.15,0.09-0.23C37.1,47.4,37.06,47.48,37.03,47.56z"/>
	<path fill="#FFFFFF" d="M37.4,46.13c-0.01,0.07-0.02,0.13-0.04,0.2C37.37,46.26,37.39,46.2,37.4,46.13z"/>
	<path fill="#FFFFFF" d="M29.38,39.3c0.09-0.03,0.19-0.05,0.28-0.07C29.57,39.25,29.47,39.27,29.38,39.3z"/>
	<path fill="#FFFFFF" d="M29.97,39.15c0.1-0.02,0.19-0.03,0.29-0.05C30.17,39.12,30.07,39.13,29.97,39.15z"/>
	<path fill="#FFFFFF" d="M30.58,39.06c0.1-0.01,0.2-0.01,0.3-0.02C30.78,39.05,30.68,39.05,30.58,39.06z"/>
	<path fill="#FFFFFF" d="M35.53,49.82c-0.06,0.06-0.13,0.11-0.2,0.17C35.4,49.93,35.47,49.88,35.53,49.82z"/>
	<path fill="#FFFFFF" d="M35.09,50.21c-0.07,0.06-0.15,0.1-0.22,0.16C34.94,50.31,35.01,50.26,35.09,50.21z"/>
	<path fill="#FFFFFF" d="M25.22,43.33c0.03-0.08,0.06-0.16,0.09-0.24C25.28,43.17,25.25,43.25,25.22,43.33z"/>
	<path fill="#FFFFFF" d="M34.08,50.86c-0.08,0.04-0.17,0.08-0.25,0.12C33.91,50.94,34,50.9,34.08,50.86z"/>
	<path fill="#FFFFFF" d="M34.6,50.56c-0.08,0.05-0.16,0.09-0.24,0.14C34.44,50.65,34.52,50.61,34.6,50.56z"/>
	<path fill="#FFFFFF" d="M36.63,48.42c-0.04,0.07-0.09,0.14-0.14,0.22C36.54,48.56,36.59,48.49,36.63,48.42z"/>
	<path fill="#FFFFFF" d="M35.94,49.39c-0.06,0.06-0.12,0.12-0.18,0.19C35.83,49.51,35.89,49.45,35.94,49.39z"/>
	<path fill="#FFFFFF" d="M36.31,48.92c-0.05,0.07-0.1,0.13-0.16,0.2C36.21,49.05,36.26,48.99,36.31,48.92z"/>
	<path fill="#FFFFFF" d="M36.9,47.89c-0.03,0.08-0.08,0.15-0.12,0.23C36.83,48.04,36.87,47.96,36.9,47.89z"/>
	<path fill="#FFFFFF" d="M24.95,44.53c0.01-0.07,0.02-0.13,0.04-0.2C24.97,44.39,24.96,44.46,24.95,44.53z"/>
	<path fill="#FFFFFF" d="M31.74,51.55c-0.1,0.01-0.2,0.01-0.3,0.01C31.53,51.56,31.64,51.55,31.74,51.55z"/>
	<path fill="#FFFFFF" d="M25.06,43.92c0.02-0.08,0.04-0.15,0.06-0.23C25.1,43.77,25.07,43.84,25.06,43.92z"/>
	<path fill="#FFFFFF" d="M32.96,51.31c-0.09,0.03-0.19,0.05-0.29,0.07C32.77,51.36,32.86,51.34,32.96,51.31z"/>
	<path fill="#FFFFFF" d="M32.36,51.46c-0.1,0.02-0.2,0.03-0.29,0.04C32.16,51.49,32.26,51.48,32.36,51.46z"/>
	<path fill="#FFFFFF" d="M33.53,51.11c-0.09,0.04-0.18,0.06-0.27,0.1C33.35,51.17,33.44,51.15,33.53,51.11z"/>
</g>
<path fill="#D51342" d="M89.34,64.57c3.26,0.04,5.94-2.51,6.01-5.72c0.07-3.28-2.56-6.03-5.82-6.09c-3.19-0.06-5.93,2.57-5.99,5.76
	C83.47,61.85,86.04,64.53,89.34,64.57z"/>
</svg>
