<?xml version="1.0" encoding="utf-8"?>
<!-- Generator: Adobe Illustrator 25.2.3, SVG Export Plug-In . SVG Version: 6.00 Build 0)  -->
<svg version="1.1" id="Layer_1" xmlns="http://www.w3.org/2000/svg" xmlns:xlink="http://www.w3.org/1999/xlink" x="0px" y="0px"
	 viewBox="0 0 89.78 88.31" style="enable-background:new 0 0 89.78 88.31;" xml:space="preserve">
<style type="text/css">
	.st0{fill:#006E73;}
	.st1{fill:#D51342;}
</style>
<path class="st0" d="M89.3,42.89L46.03,0.46c-0.63-0.62-1.64-0.62-2.27,0L0.49,42.89c-0.47,0.46-0.61,1.16-0.37,1.77
	c0.25,0.61,0.84,1.01,1.5,1.01h8.14v41.03c0,0.89,0.72,1.62,1.62,1.62h23.76c0.9,0,1.62-0.73,1.62-1.62V61.77h15.43v24.92
	c0,0.89,0.72,1.62,1.62,1.62h22.06c0.9,0,1.62-0.73,1.62-1.62V45.66h10.68c0.66,0,1.25-0.4,1.5-1.01
	C89.91,44.05,89.77,43.35,89.3,42.89z"/>
<path class="st1" d="M72.04,22.76c-0.9,0-1.62-0.73-1.62-1.62V9.18H59.32c-0.9,0-1.62-0.73-1.62-1.62s0.72-1.62,1.62-1.62h12.73
	c0.9,0,1.62,0.73,1.62,1.62v13.58C73.66,22.03,72.94,22.76,72.04,22.76z"/>
</svg>
