<?xml version="1.0" encoding="utf-8"?>
<!-- Generator: Adobe Illustrator 26.0.3, SVG Export Plug-In . SVG Version: 6.00 Build 0)  -->
<svg version="1.1" id="Layer_1" xmlns="http://www.w3.org/2000/svg" xmlns:xlink="http://www.w3.org/1999/xlink" x="0px" y="0px"
	 viewBox="0 0 160.4 112.9" style="enable-background:new 0 0 160.4 112.9;" xml:space="preserve">
<g id="Ikoner">
	<path fill="#D8214E" d="M89.4,85.7c-0.3,0-0.6-0.1-0.9-0.3C48.6,58.1,2.7,83.2,2.3,83.5c-0.7,0.4-1.7,0.2-2.1-0.6S0,81.2,0.8,80.8
		c0.5-0.3,48-26.3,89.5,2.1c0.7,0.5,0.9,1.4,0.4,2.1C90.4,85.4,89.9,85.7,89.4,85.7z"/>
	<path fill="#D8214E" d="M3.6,94.3c-0.6,0-1.1-0.3-1.4-0.9c-0.4-0.8,0-1.7,0.8-2c1.6-0.8,40.3-18.1,69.4-2.8c0.8,0.4,1,1.3,0.6,2.1
		c-0.4,0.8-1.3,1-2.1,0.6C43.1,76.6,4.6,93.9,4.2,94.1C4,94.2,3.8,94.3,3.6,94.3z"/>
	<path fill="#D8214E" d="M6.2,107.7c-0.6,0-1.1-0.3-1.4-0.9c-0.4-0.8-0.1-1.7,0.7-2c1.3-0.6,31.8-15.3,55.3-6.7c0.8,0.3,1.2,1.2,0.9,2
		s-1.2,1.2-2,0.9c-22.3-8.2-52.6,6.4-52.9,6.6C6.6,107.6,6.4,107.7,6.2,107.7z"/>
	<path fill="#D8214E" d="M67.3,111.5c-0.3,0-0.7-0.1-1-0.4c-0.6-0.5-0.7-1.5-0.2-2.1c0.3-0.4,7.3-8.5,21.7-14.6
		c13.2-5.6,35.4-10.2,66.1-1c0.8,0.2,1.3,1.1,1,1.9c-0.2,0.8-1.1,1.3-1.9,1c-29.8-9-51.2-4.5-63.9,0.8
		c-13.8,5.8-20.6,13.7-20.7,13.8C68.2,111.3,67.8,111.5,67.3,111.5z"/>
	<path fill="#D8214E" d="M89.4,112.9c-0.4,0-0.8-0.2-1.2-0.5c-0.6-0.6-0.5-1.6,0.2-2.1c0.9-0.8,22.1-18.6,63.2-6.7
		c0.8,0.2,1.3,1.1,1,1.9s-1.1,1.3-1.9,1c-39.4-11.4-60.1,5.9-60.3,6.1C90.1,112.8,89.8,112.9,89.4,112.9z"/>
	<path fill="#007476" d="M126.6,42.5l-3.4-32.1c-0.3-3.1-1.8-5.9-4.3-7.8s-5.4-2.9-8.6-2.5l-66.8,7c-6.4,0.7-11,6.4-10.4,12.8L36.6,52
		c0.3,3.1,1.8,5.9,4.3,7.8c2.1,1.7,4.7,2.6,7.3,2.6c0.4,0,0.8,0,1.2-0.1l66.8-7c3.1-0.3,5.9-1.8,7.8-4.3
		C126,48.6,126.9,45.6,126.6,42.5z"/>
	<polygon fill="#007476" points="89.4,84.1 81.5,87 78.5,57.9 86.6,57 	"/>
	<path fill="#D8214E" d="M51.2,111.2c-0.3,0-0.6-0.1-0.9-0.3c-0.7-0.5-0.9-1.4-0.4-2.1c0.5-0.7,12.5-17.9,39.1-26.1
		c20.8-6.4,44.5-5.4,70.4,2.8c0.8,0.3,1.2,1.1,1,1.9c-0.3,0.8-1.1,1.2-1.9,1c-25.3-8.1-48.4-9-68.6-2.8
		c-25.6,7.9-37.3,24.8-37.5,24.9C52.1,111,51.7,111.2,51.2,111.2z"/>
	<g>
		<g>
			<path fill="#FFFFFF" d="M51.6,32.3l1,9.5l-2.8,0.3l-1-9.5l-3,0.3l-0.2-2.3l8.7-0.9l0.2,2.3L51.6,32.3z"/>
			<path fill="#FFFFFF" d="M49.6,42.4l-1-9.5l-3,0.3l-0.3-2.8l9.2-1l0.3,2.8l-3,0.3l1,9.5L49.6,42.4z M49,32.4l1,9.5l2.3-0.2l-1-9.5
				l3-0.3L54.1,30l-8.2,0.9l0.2,1.8L49,32.4z"/>
		</g>
		<g>
			<path fill="#FFFFFF" d="M57.1,41.4l-1.2-11.8l2.8-0.3l1.2,11.8L57.1,41.4z"/>
			<path fill="#FFFFFF" d="M56.9,41.7l-1.3-12.3l3.2-0.3l1.3,12.3L56.9,41.7z M56.1,29.8l1.2,11.3l2.2-0.2l-1.2-11.4L56.1,29.8z"/>
		</g>
		<g>
			<path fill="#FFFFFF" d="M62,40.9L60.8,29l2.8-0.3l1,9.5l4.2-0.4l0.2,2.4L62,40.9z"/>
			<path fill="#FFFFFF" d="M61.8,41.1l-1.3-12.3l3.3-0.3l1,9.5l4.2-0.4l0.3,2.9L61.8,41.1z M61.1,29.2l1.2,11.3l6.5-0.7L68.6,38
				l-4.2,0.4l-1-9.5L61.1,29.2z"/>
		</g>
		<g>
			<path fill="#FFFFFF" d="M78.3,39.5c-2.3,0.2-3.7-0.7-4.1-1l1-2c0.2,0.1,1.3,0.8,2.7,0.6c0.9-0.1,1.6-0.5,1.5-1.5
				c0-0.3-0.1-0.5-0.4-0.7c-0.6-0.5-2.9-0.8-4.2-1.9c-0.5-0.4-0.9-1-1-2c-0.2-2.1,1.4-3.8,3.7-4c2.1-0.2,3.5,0.7,3.8,0.9l-1,2
				c-0.2-0.1-1.2-0.7-2.4-0.6c-0.9,0.1-1.4,0.5-1.3,1.2c0,0.4,0.2,0.5,0.4,0.7c0.6,0.5,2.8,0.8,4.2,2c0.6,0.5,1,1.2,1.1,2.1
				C82.4,37.5,80.8,39.2,78.3,39.5z"/>
			<path fill="#FFFFFF" d="M77.6,39.8c-2.2,0-3.4-1-3.5-1.1L74,38.6l1.2-2.4l0.3,0.2c0.3,0.2,1.3,0.7,2.5,0.5c0.4,0,0.8-0.2,1-0.4
				c0.2-0.2,0.3-0.5,0.3-0.8c0-0.2-0.1-0.4-0.3-0.6c-0.2-0.2-0.7-0.3-1.3-0.5c-0.9-0.3-2.1-0.7-2.8-1.3c-0.5-0.4-1-1-1.1-2.2
				c-0.1-1.1,0.2-2.1,1-2.9c0.7-0.8,1.8-1.2,3-1.4c2.4-0.3,3.9,0.9,3.9,0.9l0.2,0.1l-1.2,2.4L80.2,30c-0.3-0.2-1.2-0.7-2.3-0.5
				c-0.4,0-1.2,0.2-1.1,0.9c0,0.3,0.2,0.4,0.3,0.5c0.2,0.2,0.7,0.3,1.3,0.5c0.9,0.3,2.1,0.7,2.9,1.4c0.7,0.5,1.1,1.3,1.2,2.3
				c0.2,2.4-1.4,4.3-4,4.6l0,0C78.1,39.7,77.8,39.8,77.6,39.8z M74.6,38.4c0.6,0.4,1.9,1,3.8,0.8l0,0c2.4-0.2,3.8-1.9,3.6-4
				c-0.1-0.8-0.4-1.5-1-1.9c-0.8-0.7-1.9-1-2.7-1.3c-0.6-0.2-1.2-0.4-1.4-0.6c-0.2-0.1-0.4-0.3-0.5-0.8c-0.1-0.8,0.5-1.4,1.6-1.5
				c1-0.1,1.9,0.3,2.3,0.5l0.8-1.5c-0.4-0.3-1.7-0.9-3.4-0.7c-1.1,0.1-2,0.5-2.7,1.2c-0.6,0.7-0.9,1.5-0.8,2.5c0.1,1,0.5,1.5,1,1.9
				c0.7,0.6,1.8,1,2.7,1.3c0.7,0.2,1.2,0.4,1.5,0.6c0.3,0.3,0.4,0.5,0.5,0.9c0.1,0.5-0.1,1-0.5,1.3c-0.3,0.3-0.7,0.4-1.3,0.5
				c-1.2,0.1-2.2-0.3-2.6-0.5L74.6,38.4z"/>
		</g>
		<g>
			<path fill="#FFFFFF" d="M91.6,37.8l-0.9-2.1l-3.9,0.4l-0.4,2.2l-2.8,0.3l2.8-12.3l2.8-0.3l5.3,11.4L91.6,37.8z M88.1,29.2l-0.8,4.6
				l2.6-0.3L88.1,29.2z"/>
			<path fill="#FFFFFF" d="M83.3,38.9l2.9-12.8l3.1-0.3l5.5,11.9L91.5,38l-0.9-2.1l-3.6,0.4l-0.4,2.2L83.3,38.9z M86.6,26.6L84,38.3
				l2.3-0.2l0.4-2.2l4.3-0.5l0.9,2.1l2.3-0.2L89,26.3L86.6,26.6z M87,34.1l1-5.7l2.2,5.4L87,34.1z M88.2,30.1l-0.6,3.4l1.9-0.2
				L88.2,30.1z"/>
		</g>
		<g>
			<path fill="#FFFFFF" d="M95.9,37.3l-1.2-11.8l2.8-0.3l1,9.5l4.2-0.4l0.2,2.4L95.9,37.3z"/>
			<path fill="#FFFFFF" d="M95.7,37.6l-1.3-12.3l3.3-0.3l1,9.5l4.2-0.4l0.3,2.9L95.7,37.6z M94.9,25.7L96.1,37l6.5-0.7l-0.2-1.9
				l-4.2,0.4l-1-9.5L94.9,25.7z"/>
		</g>
		<g>
			<path fill="#FFFFFF" d="M109.5,36.2c-3.4,0.4-6.1-1.7-6.5-5.5c-0.4-3.9,1.9-6.6,5.4-7c2.6-0.3,3.8,0.7,4.1,1l-1,2
				c-0.3-0.2-1.2-0.7-2.7-0.6c-2,0.2-3.2,1.8-3,4.1c0.3,2.7,2,3.7,3.8,3.5c0.8-0.1,1.3-0.3,1.5-0.4l-0.2-1.7l-2,0.2l-0.2-2.1
				l4.5-0.5l0.5,5.2C113.5,34.6,112.3,35.9,109.5,36.2z"/>
			<path fill="#FFFFFF" d="M108.8,36.5c-3.2,0-5.6-2.2-6-5.8c-0.2-2,0.2-3.7,1.3-5c1-1.3,2.5-2,4.3-2.2c2.5-0.2,3.8,0.6,4.3,1l0.1,0.1
				l-1.2,2.4l-0.3-0.2c-0.4-0.2-1.2-0.7-2.5-0.5c-0.9,0.1-1.7,0.5-2.2,1.2c-0.5,0.7-0.7,1.6-0.6,2.7c0.3,2.7,2.1,3.5,3.5,3.3
				c0.3,0,0.8-0.1,1.2-0.3l-0.1-1.3l-2,0.2l-0.3-2.6l5-0.5l0.6,5.5l-0.1,0.1c-1,1-2.5,1.6-4.2,1.8l0,0
				C109.3,36.5,109,36.5,108.8,36.5z M109.2,23.9c-0.3,0-0.5,0-0.8,0c-1.7,0.2-3,0.9-4,2c-1,1.2-1.4,2.8-1.2,4.6
				c0.4,3.6,2.8,5.7,6.2,5.3l0,0c1.6-0.2,2.9-0.7,3.8-1.6l-0.5-4.8l-4,0.4l0.2,1.6l2-0.2l0.2,2.1l-0.2,0.1c-0.4,0.2-1,0.3-1.5,0.4
				c-1.7,0.2-3.7-0.7-4-3.7c-0.1-1.2,0.1-2.2,0.7-3c0.6-0.8,1.5-1.2,2.5-1.3c1.3-0.1,2.2,0.2,2.6,0.5l0.8-1.6
				C111.7,24.4,110.8,23.9,109.2,23.9z"/>
		</g>
	</g>
</g>
</svg>
