<?xml version="1.0" encoding="utf-8"?>
<!-- Generator: Adobe Illustrator 25.2.3, SVG Export Plug-In . SVG Version: 6.00 Build 0)  -->
<svg version="1.1" id="Layer_1" xmlns="http://www.w3.org/2000/svg" xmlns:xlink="http://www.w3.org/1999/xlink" x="0px" y="0px"
	 viewBox="0 0 89.24 87" style="enable-background:new 0 0 89.24 87;" xml:space="preserve">
<style type="text/css">
	.st0{fill:#D71F4D;}
	.st1{fill:#007476;}
</style>
<g>
	<polygon class="st0" points="24.99,54.04 13.37,54.04 2.49,73.38 13.08,73.38 5.87,87 25.55,66.38 16.27,66.38 	"/>
	<g>
		<path class="st1" d="M44.62,26.36c-7.56,0-13.68-9.66-14.92-23.22C17.78,8.38,9.17,19.71,7.94,33.54l-0.11,1.23H0v9.67h89.24
			v-9.67H81.4l-0.11-1.23c-1.23-13.83-9.84-25.17-21.76-30.4C58.29,16.7,52.18,26.36,44.62,26.36z"/>
		<path class="st1" d="M44.62,19.72c3.07,0,7.7-6.67,8.4-18.73C50.32,0.36,47.52,0,44.62,0c-2.9,0-5.7,0.36-8.4,0.99
			C36.91,12.61,41.49,19.72,44.62,19.72z"/>
	</g>
	<path class="st0" d="M36.5,73.58c0-5.16,9.34-19.34,9.34-19.34s9.34,14.18,9.34,19.34c0,5.16-4.18,9.34-9.34,9.34
		S36.5,78.74,36.5,73.58z"/>
	<path class="st0" d="M77.26,72.06V53.9c0-1.19-0.97-2.16-2.16-2.16h-1.86c-1.19,0-2.16,0.97-2.16,2.16v18.17
		c-2.12,1.13-3.48,3.37-3.48,5.79c0,3.62,2.95,6.57,6.57,6.57c3.62,0,6.57-2.95,6.57-6.57C80.74,75.44,79.38,73.2,77.26,72.06z
		 M72.65,61.27V54.1c0-0.44,0.35-0.79,0.79-0.79h1.45c0.44,0,0.79,0.36,0.79,0.79v7.17H72.65z"/>
</g>
</svg>
