<?xml version="1.0" encoding="utf-8"?>
<!-- Generator: Adobe Illustrator 25.2.3, SVG Export Plug-In . SVG Version: 6.00 Build 0)  -->
<svg version="1.1" id="Layer_1" xmlns="http://www.w3.org/2000/svg" xmlns:xlink="http://www.w3.org/1999/xlink" x="0px" y="0px"
	 viewBox="0 0 142.99 101.04" style="enable-background:new 0 0 142.99 101.04;" xml:space="preserve">
<style type="text/css">
	.st0{fill:#006E73;}
	.st1{fill:#D51342;}
	.st2{fill-rule:evenodd;clip-rule:evenodd;fill:#006E73;}
	.st3{fill-rule:evenodd;clip-rule:evenodd;fill:#D51342;}
</style>
<g>
	<g>
		<path class="st0" d="M53.78,30.18l6.4,4.23c0,0,8.07-8.9,11.76-15.33S79.31,6.76,78.85,0c-6.57,2.66-10.88,9.34-14.43,13.89
			C60.87,18.44,53.78,30.18,53.78,30.18z"/>
		<path class="st0" d="M50.97,37.74l3.35,2.21c0,0,0.91-0.71,2.25-1.91c1.34-1.2,2.63-1.99,2.63-1.99l-6.3-4.38
			c0,0-0.62,2.11-1.08,3.12C51.37,35.81,50.97,37.74,50.97,37.74z"/>
		<path class="st1" d="M37.55,55.25c0.16,0.76,1.02,2.43,5.27,1.29s8.29-3.28,9.95-6.12c1.66-2.84,1.27-4.08,0.76-6.61
			c-0.52-2.53-0.6-2.91-1.36-3.41c-0.76-0.5-2.42,0.75-5.44,1.11c-3.47,0.42-6.27,2.72-6.11,4.94c0.15,1.99,1.32,3.95,1.37,5.39
			c0.08,2.57-1.2,2.49-1.89,3.02C39.43,55.39,37.4,54.49,37.55,55.25z"/>
	</g>
	<g>
		<ellipse class="st0" cx="6.66" cy="81.77" rx="6.66" ry="6.04"/>
		<ellipse class="st0" cx="26.05" cy="80.57" rx="6.88" ry="5.9"/>
		<polygon class="st0" points="11.18,80.57 11.18,54.79 32.93,52.84 32.93,80.57 30.98,76.46 30.98,57.99 13.31,60.12 13.31,82.84 
			11.18,84.34 		"/>
	</g>
	<path class="st2" d="M132.22,43.11l1.58-0.94l-3.17-1.94l0.07,2.09l-1.51-0.65c0.36-0.65,0.65-1.51,0.65-2.3
		c0.07-2.74-1.94-4.82-4.68-4.82c-2.66-0.22-4.83,1.94-4.9,4.68c-0.07,2.74,2.09,4.82,4.68,4.9c1.15,0,2.3-0.5,3.02-1.15l1.73,0.86
		l-1.66,0.94l3.17,1.87v-1.94l2.95,1.51c0.29,0.14,1.01-0.07,1.15-0.36l0.07-0.07c0.07-0.36-0.07-1.01-0.43-1.22L132.22,43.11z"/>
	<path class="st2" d="M131.21,66.29l1.08,2.23l7.92-2.45c2.09-0.5,2.88,2.52,1.22,3.24l-8.57,2.81c-1.44,0.58-3.02,0.43-3.89-1.22
		l-2.45-4.61l-1.51,0.22l-3.31,6.41l1.15,12.17c0.36,2.23-2.81,2.95-3.53,0.29l-1.37-11.23c-0.07-1.08-0.07-1.8,0.29-2.66l2.3-4.75
		l-1.94,0.14l3.17-9.29l-1.66-4.75l-4.39,2.52c-1.15,0.79-2.01,0.94-3.24-0.07l-3.6-4.32c-1.08-2.23,1.37-3.67,2.59-1.8l2.95,3.17
		l7.7-5.04c2.09-1.15,3.1-1.01,5.26-0.29l6.48,2.66c1.29,0.58,1.22,0.94,1.73,1.66l1.44,4.46c0.86,2.09-2.09,2.95-2.88,0.72
		l-1.22-3.46l-2.3-1.08l-2.16,5.76l3.81,8.57H131.21z"/>
	<path class="st2" d="M68.75,74.86l1.73,1.15l2.45-3.24l1.44,3.82l1.51-0.65l1.73,4.25l-1.58,17.64c-0.51,4.18,5.47,4.39,5.9,0
		l1.15-14.76c0.22-1.8,0.43-3.53,0.07-4.82l-1.94-4.46l1.87-0.86l-3.17-6.62l6.55-8.93l5.9,9.36c2.3,2.88,5.9,0.72,4.1-2.66
		L85.6,47.14c-2.02-3.46-4.61-3.46-8.14-2.02l-17.64,7.2c-3.45,1.8-1.44,5.83,1.8,4.46l10.87-4.03l-3.53,11.16l-5.69,6.7l1.08,0.79
		l-2.45,3.02l-9.65-4.75c-3.46-1.58-5.76,3.1-3.02,4.83l10.73,5.4c1.8,0.86,3.6,1.01,5.25-1.01L68.75,74.86z"/>
	<path class="st2" d="M89.77,44.77c-3.81,0-6.98-3.1-6.98-7.06c0-3.82,3.17-6.98,6.98-6.98c3.89,0,7.06,3.17,7.06,6.98
		C96.83,41.67,93.66,44.77,89.77,44.77z"/>
	<path class="st3" d="M100.53,96c-3.74,0-6.69-3.1-6.69-6.77c0-3.74,2.95-6.77,6.69-6.77c3.74,0,6.77,3.02,6.77,6.77
		C107.29,92.91,104.27,96,100.53,96z"/>
</g>
</svg>
