<?xml version="1.0" encoding="utf-8"?>
<!-- Generator: Adobe Illustrator 23.0.1, SVG Export Plug-In . SVG Version: 6.00 Build 0)  -->
<svg version="1.1" id="Layer_1" xmlns="http://www.w3.org/2000/svg" xmlns:xlink="http://www.w3.org/1999/xlink" x="0px" y="0px"
	 viewBox="0 0 1026 1024" style="enable-background:new 0 0 1026 1024;" xml:space="preserve">
<style type="text/css">
	.st0{fill:#626262;}
</style>
<path class="st0" d="M1026,512c0-44.7-5.7-88.3-17-131c-11.3-42.7-27.3-82.3-48-119s-45.8-70.5-75.5-101.5S823.3,102.7,788,80
	s-73.8-40.8-115.5-54.5S588,3.7,544,1c-3.3-0.7-6.3-1-9-1h-22c-69.3,0-135.7,13.5-199,40.5s-118,63.3-164,109S67.5,249.7,40.5,313
	S0,442.7,0,512c0,55.3,8.7,109.2,26,161.5s41.8,99.3,73.5,141s68.5,78.3,110.5,110s89.2,56.2,141.5,73.5s106.2,26,161.5,26h20
	l5.5-0.5l5.5-0.5c66-4,128.7-20.2,188-48.5S842.5,909.3,885.5,864s77.2-98.7,102.5-160C1013.3,642.7,1026,578.7,1026,512z M931,677
	c-34.7-10-81.3-18.7-140-26c6.7-45.3,10-91.7,10-139c0-37.3-2.3-74.3-7-111c29.3-3.3,56.3-7.3,81-12s40.7-8.2,48-10.5s13-4.2,17-5.5
	l-12-33c22.7,54.7,34,112,34,172c0,28.7-2.7,56.8-8,84.5S941,651,931,677z M286,512c0-12,0.3-23.8,1-35.5s1.5-23.2,2.5-34.5
	s2.2-22.7,3.5-34c18,1.3,36.5,2.5,55.5,3.5s39.8,1.8,62.5,2.5s45.7,1,69,1v222c-64.7,0.7-125.7,3.3-183,8
	C290.3,601,286.7,556.7,286,512z M544,68c26,7.3,50.5,23.8,73.5,49.5s43.3,57.8,61,96.5S710,296,720,344c-16.7,1.3-34,2.5-52,3.5
	s-37.5,1.8-58.5,2.5s-42.8,1.3-65.5,2V68z M480,69v283c-62.7-0.7-121.3-3.3-176-8c23.3-108.7,62.3-188.3,117-239
	C440.3,87.7,460,75.7,480,69z M480,701v254c-52-16.7-96.7-65-134-145c-14-32-25.7-66-35-102C363.7,704,420,701.7,480,701z M544,956
	V701c31.3,0.7,61.2,1.5,89.5,2.5s54.8,2.5,79.5,4.5c-16.7,66-40,121.2-70,165.5S580,945.3,544,956z M544,637V415
	c67.3-0.7,129.3-3.3,186-8c4.7,34.7,7,69.7,7,105c0,45.3-3.7,89.7-11,133C670.7,640.3,610,637.7,544,637z M916,314
	c-2,0.7-4.5,1.3-7.5,2s-7.2,1.7-12.5,3s-11.7,2.8-19,4.5s-15.5,3.3-24.5,5s-19.3,3.3-31,5s-23.8,3.2-36.5,4.5c-4-19.3-8.3-38-13-56
	s-9.8-35.3-15.5-52s-12-32.7-19-48s-14.3-29.7-22-43S700,113,692,101c48.7,21.3,92.3,50.3,131,87S892.7,266.7,916,314z M360,91
	c-26.7,30-50.2,66.2-70.5,108.5S253.3,288.3,242,339c-54.7-6-99.3-13.3-134-22c44.7-90.7,112-159,202-205C326.7,104,343.3,97,360,91
	z M85,377c34.7,9.3,83,17.7,145,25c-2.7,18-4.5,36.2-5.5,54.5S223,493.3,223,512c0,46.7,4,93,12,139c-56.7,6-103.7,13.3-141,22
	c-20-52-30-105.7-30-161C64,466,71,421,85,377z M122,732c35.3-7.3,77.7-13.7,127-19c12,44.7,27.5,85.7,46.5,123s40.5,69.7,64.5,97
	c-50.7-18-96.3-44.3-137-79S148.7,778.7,122,732z M692,923c18.7-26.7,35.5-57.7,50.5-93s27.2-74,36.5-116c19.3,2.7,37.8,5.3,55.5,8
	s31.3,5,41,7s18.5,4,26.5,6C852.7,821,782.7,883.7,692,923z"/>
</svg>
