<?xml version="1.0" encoding="utf-8"?>
<!-- Generator: Adobe Illustrator 26.0.3, SVG Export Plug-In . SVG Version: 6.00 Build 0)  -->
<svg version="1.1" id="Layer_1" xmlns="http://www.w3.org/2000/svg" xmlns:xlink="http://www.w3.org/1999/xlink" x="0px" y="0px"
	 viewBox="0 0 161.3 124.6" style="enable-background:new 0 0 161.3 124.6;" xml:space="preserve">
<g id="Ikoner">
	<g>
		<path fill="#007476" d="M43.1,89.6v31.1c0,2.1,1.7,3.9,3.8,3.9h29.3c2.1,0,3.8-1.7,3.8-3.9V74.5l-33,10.7L43.1,89.6z"/>
		<path fill="#007476" d="M80.1,58.2V46.8c0-2.5-2.4-4.4-4.9-3.7L44.9,54.5c-1.1,0.7-1.8,1.9-1.8,3.3v13.9l33.5-10.8L80.1,58.2z"/>
		<path fill="#007476" d="M0,115.9L0,115.9v5.1c0,2,1.6,3.6,3.6,3.6h24.2c2,0,3.6-1.6,3.6-3.6V100L1.1,115.6
			C0.8,115.8,0.4,115.9,0,115.9z"/>
		<path fill="#007476" d="M29.5,83.6l1.8-2V71.1c0-2.8-3.1-4.5-5.5-3L1.7,83.3c-1,0.7-1.7,1.8-1.7,3v14l26.9-13.9L29.5,83.6z"/>
		<path fill="#007476" d="M90.5,68v53.4c0,1.8,1.4,3.2,3.2,3.2h27.4c1.8,0,3.2-1.4,3.2-3.2V43L92,66.9L90.5,68z"/>
		<path fill="#007476" d="M122.6,26l1.7-1.6V15c0-2.7-3.1-4.2-5.2-2.5L91.7,34.8c-0.8,0.6-1.2,1.5-1.2,2.5v13.2L119,29.4L122.6,26z"/>
		<polygon fill="#D8204D" points="130.2,7 137.9,15.4 124.3,27.9 120.6,31.3 90.5,53.6 80.1,61.3 77.7,63.1 43.1,74.3 40.6,75.1
			31.4,85.2 28.5,88.4 0,103.2 0,113.4 31.4,97.2 34.1,95.8 43.1,85.9 45.7,83 80.1,71.9 81.9,71.3 90.5,64.9 124.3,39.9
			126.3,38.5 144.1,22 151.8,30.4 161.3,0 		"/>
		<polygon fill="#D8204D" points="0,103.2 28.5,88.4 28.5,88.4 		"/>
	</g>
</g>
</svg>
