<?xml version="1.0" encoding="utf-8"?>
<!-- Generator: Adobe Illustrator 25.2.3, SVG Export Plug-In . SVG Version: 6.00 Build 0)  -->
<svg version="1.1" id="Layer_1" xmlns="http://www.w3.org/2000/svg" xmlns:xlink="http://www.w3.org/1999/xlink" x="0px" y="0px"
	 viewBox="0 0 101.83 93.45" style="enable-background:new 0 0 101.83 93.45;" xml:space="preserve">
<path fill="#007476" d="M7.06,86.97c0.76-0.69,1.52-1.38,2.29-2.07c-0.13-0.12-0.26-0.24-0.39-0.35c-0.55-0.45-2.67-2.19-3.46-1.41
	C4.57,83.76,6.69,86.52,7.06,86.97z"/>
<path fill="#007476" d="M8.85,80.2L8.85,80.2l-2.09,1.83c1.52,0.49,2.95,1.47,4.05,2.64c0.93,0.98,1.77,2.17,2.55,3.3
	c0.74,1.05,1.36,2.38,1.24,3.7c0.14-0.12,0.29-0.25,0.43-0.37l1.53-1.34c-1.49-2.37-2.06-3.09-3.65-5.23
	C11.87,83.27,9.94,81.25,8.85,80.2z"/>
<path fill="#007476" d="M9.87,85.51l-3,2.71c-0.05,0.05-0.1,0.09-0.15,0.14c-0.89-1.01-3.56-4.11-2.03-5.58l3.53-3.09
	c-1.53-1.36-5.6-3.91-7.69-2.07c-0.57,0.48-0.71,1.62-0.24,3.23c0.62,2.15,2.27,4.97,4.66,7.65c1.77,2.04,3.75,3.52,5.32,4.27
	c0.53,0.25,1.01,0.42,1.43,0.5c2.73,0.51,1.57-3,0.69-4.55C11.71,87.54,10.8,86.49,9.87,85.51z"/>
<path fill="#007476" d="M96.13,7.98c-0.4-0.43-2.89-2.86-3.61-2.02c-0.87,0.69,0.6,3.01,0.99,3.6c0.09,0.15,0.2,0.29,0.3,0.43
	C94.58,9.32,95.35,8.65,96.13,7.98z"/>
<path fill="#007476" d="M96.36,14.36c-1.03-0.91-2.1-1.89-2.97-2.93c-1.03-1.24-1.83-2.77-2.13-4.34l-2.07,1.86l0,0
	c0.91,1.2,2.69,3.36,4,4.58c1.93,1.83,2.58,2.48,4.75,4.24l1.52-1.36c0.14-0.13,0.28-0.25,0.42-0.38
	C98.56,15.99,97.31,15.21,96.36,14.36z"/>
<path fill="#007476" d="M97.89,6.05c-2.38-2.69-4.98-4.66-7.04-5.54c-1.54-0.66-2.69-0.65-3.23-0.14c-2.07,1.86-0.03,6.21,1.14,7.89
	l3.49-3.13c1.64-1.34,4.4,1.68,5.29,2.69c-0.05,0.04-0.11,0.09-0.16,0.14l-3.05,2.65c0.87,1.03,1.8,2.07,2.89,2.87
	c1.43,1.06,4.78,2.63,4.6-0.14c-0.03-0.42-0.14-0.93-0.33-1.48C100.94,10.19,99.7,8.05,97.89,6.05z"/>
<path fill="#007476" d="M97.33,18.85c-1.31-1.23-2.57-2.51-3.85-3.77c-1.5-1.49-3.05-2.92-4.4-4.55c-1.77-2.14-3.92-5.09-3.71-8.02
	c-0.34,0.33-0.71,0.7-1.09,1.08c-6.6,6.47-19.01,19.25-28.18,28.44c-1.7,1.84-14.74,13.59-16.35,14.88
	c-9.69,7.67-25.87,19.93-34.44,26.82c-0.87,0.71-1.67,1.35-2.39,1.92c0.72,0.04,1.4,0.24,2.07,0.51c1.29,0.54,2.68,1.48,4.09,2.78
	c0.06,0.05,0.49,0.46,0.59,0.55v0c0.35,0.35,0.71,0.72,1.07,1.11c0.75,0.81,1.49,1.71,2.21,2.68c1.57,2.11,2.99,4.02,4.43,5.95
	c0.08,0.11,0.16,0.22,0.24,0.33c0.08,0.11,0.16,0.21,0.24,0.32c0.88,1.16,1.77,2.34,2.72,3.58c0,0,32.33-31.43,32.14-31.36
	c0.28-0.33,0.72-0.77,1.27-1.3l13.11-11.26c0.75-0.59,1.39-1.06,1.83-1.35l31.98-25.95C99.75,21.09,98.53,19.98,97.33,18.85z
	 M47.15,41.28L47.15,41.28L47.15,41.28L47.15,41.28z"/>
<polyline  fill="#D8204D" points="43.75,43.4 68.89,74.13 70.6,67.01 77.81,65.72 49.78,37.96 "/>
</svg>
