<?xml version="1.0" encoding="utf-8"?>
<!-- Generator: Adobe Illustrator 25.2.3, SVG Export Plug-In . SVG Version: 6.00 Build 0)  -->
<svg version="1.1" id="Layer_1" xmlns="http://www.w3.org/2000/svg" xmlns:xlink="http://www.w3.org/1999/xlink" x="0px" y="0px"
	 viewBox="0 0 87.24 60.24" style="enable-background:new 0 0 87.24 60.24;" xml:space="preserve">
<style type="text/css">
	.st0{fill:#D51342;}
	.st1{fill:#006E73;}
</style>
<g>
	<g>
		<circle class="st0" cx="59.52" cy="14.83" r="14.83"/>
	</g>
	<g>
		<path class="st0" d="M31.81,60.24c0-15.31,12.41-27.72,27.72-27.72s27.72,12.41,27.72,27.72"/>
	</g>
</g>
<g>
	<g>
		<circle class="st1" cx="27.23" cy="15.63" r="14.57"/>
	</g>
	<g>
		<path class="st1" d="M0,60.24c0-15.04,12.19-27.23,27.23-27.23s27.23,12.19,27.23,27.23"/>
	</g>
</g>
<path class="st0" d="M11.26,52.08c-1.08,0-2.17-0.35-3.09-1.07L5.48,48.9c-2.17-1.71-2.55-4.85-0.84-7.02
	c1.71-2.17,4.85-2.55,7.02-0.84l2.69,2.12c2.17,1.71,2.55,4.85,0.84,7.02C14.21,51.43,12.74,52.08,11.26,52.08z"/>
</svg>
