<?xml version="1.0" encoding="utf-8"?>
<!-- Generator: Adobe Illustrator 25.2.3, SVG Export Plug-In . SVG Version: 6.00 Build 0)  -->
<svg version="1.1" id="Layer_1" xmlns="http://www.w3.org/2000/svg" xmlns:xlink="http://www.w3.org/1999/xlink" x="0px" y="0px"
	 viewBox="0 0 135.89 86.55" style="enable-background:new 0 0 135.89 86.55;" xml:space="preserve">
<g>
	<g>
		<g>
			<circle  fill="#006E73" cx="90.76" cy="48.77" r="7.65"/>
		</g>
		<g>
			<path fill="#006E73" d="M76.46,72.2c0-7.9,6.4-14.3,14.3-14.3s14.3,6.4,14.3,14.3"/>
		</g>
	</g>
	<g>
		<g>
			<circle  fill="#006E73" cx="44.67" cy="48.77" r="7.65"/>
		</g>
		<g>
			<path fill="#006E73" d="M30.37,72.2c0-7.9,6.4-14.3,14.3-14.3s14.3,6.4,14.3,14.3"/>
		</g>
	</g>
	<g>
		<g>
			<circle  fill="#006E73" cx="22.65" cy="49.45" r="12.12"/>
		</g>
		<g>
			<path fill="#006E73" d="M0,86.55c0-12.51,10.14-22.65,22.65-22.65S45.3,74.05,45.3,86.55"/>
		</g>
	</g>
	<g>
		<g>
			<circle  fill="#006E73" cx="67.94" cy="49.45" r="12.12"/>
		</g>
		<g>
			<path fill="#006E73" d="M45.3,86.55c0-12.51,10.14-22.65,22.65-22.65s22.65,10.14,22.65,22.65"/>
		</g>
	</g>
	<g>
		<g>
			<circle  fill="#006E73" cx="113.24" cy="49.45" r="12.12"/>
		</g>
		<g>
			<path fill="#006E73" d="M90.59,86.55c0-12.51,10.14-22.65,22.65-22.65s22.65,10.14,22.65,22.65"/>
		</g>
	</g>
	<g>
		<path fill="#D51342" d="M87.53,0H63.47c-3.2,0-5.88,2.18-6.72,5.12h11.97c3.98,0,7.22,3.24,7.22,7.22v8.16c0,0.96-0.2,1.88-0.54,2.72
			h2.72l9.31,5.91l0.11-5.91c3.86,0,7.02-3.16,7.02-7.02V7.02C94.55,3.16,91.39,0,87.53,0z"/>
		<path fill="#D51342" d="M68.71,7.07H56.45h-9.14c-2.9,0-5.26,2.36-5.26,5.26v8.16c0,2.9,2.36,5.27,5.26,5.27h0.96l0.08,4.48
			l7.05-4.48h13.31c1.9,0,3.56-1.03,4.49-2.55c0.48-0.8,0.78-1.72,0.78-2.72v-8.16C73.98,9.43,71.62,7.07,68.71,7.07z"/>
	</g>
</g>
</svg>
