<?xml version="1.0" encoding="utf-8"?>
<!-- Generator: Adobe Illustrator 25.2.3, SVG Export Plug-In . SVG Version: 6.00 Build 0)  -->
<svg version="1.1" id="Layer_1" xmlns="http://www.w3.org/2000/svg" xmlns:xlink="http://www.w3.org/1999/xlink" x="0px" y="0px"
	 viewBox="0 0 152.04 88.26" style="enable-background:new 0 0 152.04 88.26;" xml:space="preserve">
<g>
	<g>
		<g>
			<circle  fill="#006E73" cx="130.12" cy="23.64" r="11.74"/>
		</g>
		<g>
			<path fill="#006E73" d="M108.19,59.56c0-12.11,9.82-21.93,21.93-21.93s21.93,9.82,21.93,21.93"/>
		</g>
	</g>
	<g>
		<g>
			<circle  fill="#006E73" cx="21.93" cy="23.64" r="11.74"/>
		</g>
		<g>
			<path fill="#006E73" d="M0,59.56c0-12.11,9.82-21.93,21.93-21.93s21.93,9.82,21.93,21.93"/>
		</g>
	</g>
	<g>
		<g>
			<circle  fill="#D51342" cx="75.45" cy="29.92" r="14.74"/>
		</g>
		<g>
			<path fill="#D51342" d="M47.92,75.03c0-15.21,12.33-27.53,27.53-27.53s27.53,12.33,27.53,27.53"/>
		</g>
	</g>
	<g>
		<path fill="#006E73" d="M76.27,63.19c-17.42,0-31.59-14.17-31.59-31.59S58.85,0,76.27,0s31.59,14.17,31.59,31.59
			S93.69,63.19,76.27,63.19z M76.27,5.15c-14.58,0-26.44,11.86-26.44,26.44s11.86,26.44,26.44,26.44
			c14.58,0,26.44-11.86,26.44-26.44S90.85,5.15,76.27,5.15z"/>

			<rect x="97.91" y="50.5" transform="matrix(0.8032 -0.5958 0.5958 0.8032 -20.4146 76.2695)"  fill="#006E73" width="14.6" height="37.06"/>
	</g>
</g>
</svg>
