<?xml version="1.0" encoding="utf-8"?>
<!-- Generator: Adobe Illustrator 25.2.3, SVG Export Plug-In . SVG Version: 6.00 Build 0)  -->
<svg version="1.1" id="Layer_1" xmlns="http://www.w3.org/2000/svg" xmlns:xlink="http://www.w3.org/1999/xlink" x="0px" y="0px"
	 viewBox="0 0 78.06 81.47" style="enable-background:new 0 0 78.06 81.47;" xml:space="preserve">
<path fill="#006E73" d="M67.69,10.43C60.97,3.7,52.03,0,42.52,0S24.07,3.7,17.35,10.43c-13.88,13.88-13.88,36.46,0,50.35
	C24.07,67.5,33.01,71.2,42.52,71.2c9.51,0,18.45-3.7,25.17-10.43c1.05-1.05,2.07-2.22,3.04-3.47c0.19-0.12,0.34-0.28,0.43-0.48
	c0.02-0.05,0.04-0.1,0.05-0.14C81.54,42.64,80.04,22.77,67.69,10.43z M57.14,53.23c-3.13,5.89-7.78,10.8-13.5,14.25V51.59
	C48.15,51.67,52.68,52.22,57.14,53.23z M60.32,19.4c-2.73-6.15-6.97-11.45-12.34-15.45c6.55,1.11,12.48,4.17,17.25,8.94
	c1.12,1.12,2.18,2.35,3.14,3.67C65.71,17.69,63.01,18.65,60.32,19.4z M61.48,34.48H43.64V24.07c5.14-0.08,10.3-0.76,15.34-2.02
	C60.51,26.03,61.35,30.2,61.48,34.48z M43.64,21.84V3.72c6.38,3.85,11.37,9.45,14.47,16.24C53.34,21.12,48.48,21.75,43.64,21.84z
	 M74.6,36.72c-0.22,6.45-2.32,12.57-6.09,17.75c-2.69-1.1-5.43-2.03-8.16-2.77c2.1-4.74,3.23-9.78,3.38-14.98H74.6z M59.38,53.77
	c2.59,0.68,5.17,1.53,7.69,2.54c-0.59,0.7-1.21,1.37-1.84,2c-4.77,4.77-10.7,7.84-17.25,8.94C52.75,63.69,56.66,59.07,59.38,53.77z
	 M43.64,49.35V36.72h17.84c-0.15,5.02-1.27,9.88-3.34,14.44C53.36,50.04,48.48,49.43,43.64,49.35z M74.6,34.48H63.72
	c-0.12-4.46-0.98-8.83-2.56-12.99c2.82-0.8,5.68-1.83,8.51-3.05C72.7,23.24,74.4,28.76,74.6,34.48z M26.56,19.88
	C29.72,13,34.83,7.35,41.35,3.51c0.02,0,0.04,0,0.05,0v18.32C36.4,21.74,31.42,21.09,26.56,19.88z M23.15,36.72H41.4v12.64
	c-5,0.08-10,0.71-14.87,1.88C24.43,46.66,23.29,41.78,23.15,36.72z M25.29,53.85c2.69,5.21,6.54,9.77,11.22,13.3
	c-6.34-1.19-12.08-4.22-16.7-8.84c-0.63-0.63-1.25-1.3-1.84-2C20.44,55.32,22.89,54.5,25.29,53.85z M41.4,51.6v16.09
	c-0.02,0-0.04,0-0.05,0c-5.85-3.45-10.61-8.41-13.81-14.38C32.09,52.25,36.75,51.68,41.4,51.6z M10.45,34.48
	c0.2-5.72,1.89-11.24,4.92-16.04c2.69,1.16,5.42,2.15,8.13,2.94c-1.6,4.19-2.47,8.6-2.6,13.1H10.45z M41.4,24.07v10.41H23.15
	c0.13-4.31,0.98-8.52,2.53-12.51C30.83,23.28,36.11,23.99,41.4,24.07z M24.36,19.3c-2.55-0.73-5.13-1.65-7.69-2.74
	c0.97-1.31,2.02-2.54,3.15-3.67c4.62-4.62,10.36-7.65,16.7-8.84C31.24,8.02,27.07,13.25,24.36,19.3z M24.32,51.8
	c-2.57,0.71-5.18,1.61-7.79,2.68c-3.77-5.18-5.87-11.3-6.09-17.75H20.9C21.05,41.96,22.2,47.03,24.32,51.8z"/>
<path fill="#D51342" d="M71.23,59.67c-1.34-1.47-3.63-1.58-5.1-0.23c0,0-4.22,3.39-6.82,4.79c-8.58,4.6-12.59,5.33-17.87,4.56
	c-3.25-0.47-6.48-1.14-9.51-1.87c-4.11-1.15-3.24-3.49-1.16-3.59H47.8c1.99,0,3.61-1.62,3.61-3.61c0-1.99-1.62-3.61-3.61-3.61H19.23
	c-4.6,0-9.69,3.89-12.31,6.2c-2.51,2.21-6.66,6.37-6.89,9.78c0,0.04-0.02,0.08-0.02,0.12c0,0.02,0,0.04,0,0.06
	c0,0.03,0,0.06-0.01,0.1c0,0.01,0,0.02,0,0.03c0,0.08,0.02,0.15,0.02,0.23c0,0.02,0,0.05,0.01,0.07c0.01,0.09,0,0.19,0.02,0.28
	c0.25,4.14,4.06,8.19,10.48,5.17c2.09-0.98,4.58-1.18,6.74-0.83c6.1,1.38,19.13,4.17,24.4,4.17c9.48,0,20.8-9.41,22.85-10.95
	c1.96-1.48,4.5-3.69,6.48-5.74C72.47,63.42,72.58,61.14,71.23,59.67z"/>
</svg>
