<?xml version="1.0" encoding="utf-8"?>
<!-- Generator: Adobe Illustrator 25.2.3, SVG Export Plug-In . SVG Version: 6.00 Build 0)  -->
<svg version="1.1" id="Layer_1" xmlns="http://www.w3.org/2000/svg" xmlns:xlink="http://www.w3.org/1999/xlink" x="0px" y="0px"
	 viewBox="0 0 127.57 81.64" style="enable-background:new 0 0 127.57 81.64;" xml:space="preserve">
<g>
	<path fill="#007476" d="M32.1,0.45L7.07,4.25c-4.3,0.65-7.26,4.68-6.61,8.97l9.31,61.28c0.65,4.29,4.68,7.26,8.97,6.61l25.03-3.8
		c4.3-0.65,7.26-4.68,6.61-8.97L41.07,7.06C40.42,2.76,36.39-0.2,32.1,0.45z M38.87,7.39l9.31,61.28c0.02,0.13,0.01,0.25,0.02,0.38
		l-5.1,0.77l-4.77-2.81c-0.11-0.07-0.24-0.09-0.37-0.07l-17.2,2.61c-0.16,0.02-0.3,0.11-0.38,0.25l-2.5,3.85l-5.84,0.89
		c-0.03-0.12-0.06-0.24-0.07-0.37L2.66,12.89C2.19,9.81,4.32,6.92,7.4,6.45l25.03-3.8C35.52,2.18,38.4,4.31,38.87,7.39z"/>
	<path fill="#FFFFFF" d="M29.59,71.73c0.51-0.08,1.04,0.01,1.51,0.25c0.59,0.31,1.02,0.82,1.21,1.44c0.41,1.3-0.32,2.69-1.61,3.09
		c-0.63,0.2-1.3,0.14-1.88-0.17c-0.59-0.31-1.02-0.82-1.21-1.44c-0.2-0.63-0.14-1.29,0.17-1.88c0.3-0.59,0.82-1.02,1.45-1.21l0,0
		C29.34,71.78,29.46,71.75,29.59,71.73z"/>
</g>
<path id="_x31_0"  fill="#D8204D" d="M36.39,32.71l-0.24-1.81c-0.85-6.54-6.87-11.17-13.42-10.32C16.19,21.43,11.57,27.45,12.42,34
	l0.24,1.81c-1.37,0.8-2.2,2.37-1.98,4.04l0.4,3.09c0.29,2.23,2.34,3.8,4.57,3.51l0.53-0.07c1.3-0.17,2.22-1.37,2.05-2.67l-0.84-6.46
	c-0.17-1.3-1.37-2.22-2.67-2.05l-0.1,0.01l-0.19-1.49c-0.71-5.44,3.14-10.45,8.58-11.16c5.44-0.71,10.45,3.14,11.16,8.58l0.19,1.49
	l-0.11,0.01c-1.3,0.17-2.22,1.37-2.05,2.67l0.84,6.46c0.15,1.16,1.12,2.01,2.24,2.07c-0.2,1.88-1.61,3.46-3.53,3.82
	c-0.09-0.09-0.18-0.18-0.28-0.26c-0.45-0.35-1-0.49-1.57-0.42l-2.05,0.27c-1.16,0.15-1.98,1.22-1.83,2.37
	c0.15,1.16,1.22,1.98,2.37,1.83l2.04-0.27c0,0,0,0,0,0c0.88-0.11,1.56-0.75,1.77-1.55c2.95-0.6,5.06-3.2,5.1-6.17
	c1.63-0.7,2.66-2.42,2.42-4.27l-0.4-3.09C39.12,34.44,37.92,33.13,36.39,32.71z M30.36,50.42L30.36,50.42L30.36,50.42L30.36,50.42z"
	/>
<g>
	<path fill="#007476" d="M126.28,29.89c-0.51-0.34-1.16-0.38-1.71-0.12L90.94,52.37c-0.45,0.2-1,0.16-1.42-0.11L59.73,25l-0.1-0.08
		c-0.5-0.35-1.16-0.4-1.71-0.14c-0.55,0.26-0.92,0.8-0.97,1.41l-2.13,28.44c-0.26,3.5,2.37,6.56,5.87,6.83l57.38,4.29
		c3.5,0.26,6.56-2.37,6.83-5.88l2.13-28.44C127.07,30.83,126.78,30.23,126.28,29.89z"/>
	<path fill="#007476" d="M58.18,20.26l30.34,27.65l0.1,0.08c0.56,0.39,1.21,0.62,1.88,0.67c0.66,0.05,1.34-0.08,1.95-0.38l34.23-22.89
		c0.54-0.3,0.89-0.88,0.88-1.5c-0.03-3.28-2.62-6.04-5.89-6.29L64.3,13.3c-3.27-0.25-6.24,2.1-6.76,5.34
		C57.44,19.25,57.69,19.88,58.18,20.26z"/>
</g>
<g>
	<path fill="#FFFFFF" d="M96.65,41.99c-2.03,0.88-4.04,1.12-6.42,0.95c-5.82-0.44-10.43-5.06-9.92-11.88
		c0.55-7.31,6.09-13.25,13.97-12.66c6.17,0.46,10,5.1,9.56,11.03c-0.4,5.32-3.61,8.22-6.95,7.97c-1.42-0.11-2.66-1.16-2.39-3.32
		l-0.14-0.01c-1.4,2-3.11,2.91-5.24,2.75c-2.06-0.15-3.71-1.95-3.5-4.76c0.33-4.4,4.11-8.15,9.04-7.78
		c1.53,0.11,2.85,0.54,3.74,1.03l-1.69,6.33c-0.73,2.66-0.4,3.93,0.77,4.05c1.81,0.17,4.01-2.09,4.32-6.21
		c0.39-5.15-2.43-9.07-7.93-9.48C88.09,19.58,82.88,23.79,82.34,31c-0.44,5.93,3.15,9.87,8.4,10.26c2.02,0.15,3.93-0.13,5.45-0.84
		L96.65,41.99z M95.84,26.51c-0.35-0.13-0.94-0.32-1.76-0.38c-3.12-0.23-5.86,2.52-6.12,5.97c-0.12,1.56,0.58,2.75,2.14,2.87
		c2.06,0.15,4.13-2.33,4.69-4.5L95.84,26.51z"/>
</g>
</svg>
