<?xml version="1.0" encoding="utf-8"?>
<!-- Generator: Adobe Illustrator 25.2.3, SVG Export Plug-In . SVG Version: 6.00 Build 0)  -->
<svg version="1.1" id="Layer_1" xmlns="http://www.w3.org/2000/svg" xmlns:xlink="http://www.w3.org/1999/xlink" x="0px" y="0px"
	 viewBox="0 0 173.02 81.26" style="enable-background:new 0 0 173.02 81.26;" xml:space="preserve">
<style type="text/css">
	.st0{fill:#007476;}
	.st1{fill-rule:evenodd;clip-rule:evenodd;fill:#007476;}
	.st2{fill:#D71F4D;}
</style>
<path class="st0" d="M19.75,74.33H1.82C0.82,74.33,0,75.15,0,76.15v3.28c0,1.01,0.82,1.82,1.82,1.82h162.35
	c1.01,0,1.82-0.82,1.82-1.82v-3.28c0-1.01-0.82-1.82-1.82-1.82h-12.62"/>
<path class="st1" d="M28.17,52.07c0,0.99-0.11,1.48-0.25,2.45c-0.19,1.29-0.55,1.74-0.43,3.06c0.1,1.05-0.09,1.89-0.09,2.68
	c0,0.57-0.57,1.15-0.46,1.5c0.11,0.36,0.47-0.24,0.43,0.32c-0.01,0.1,0.01,0.31,0.07,0.4h2.89c-0.13-1.03-0.88-1.19-1.23-1.65
	c-0.39-0.52-0.44-2,0.02-2.45c0.72-0.72,1.7-4.12,2.05-5.95c0.18,1.55,0.14,4.75,0.54,5.52c0.57,1.12,0.3,2.31,0.23,3.21
	c-0.05,0.64-0.23,1.05-0.12,1.34c0.1,0.29,0.44-0.12,0.45,0.08c0.01,0.2,0.04,0.41,0.12,0.57h2.89c-0.03-1.38-1.15-1.04-1.52-1.89
	c-0.26-0.6-0.4-2.15-0.44-2.56c-0.08-0.75-0.09-0.99,0.17-1.75c0.49-1.4,0.32-3.7,0.49-5.19c5.89-1.36,4.51-3.3,6.59-6.13
	c0.64-0.87,1.5-2.01,2.51-2.08c0.83-0.05,1.67,0.19,2.49,0.23c1.79,0.1,2.12-1.17,4.15-1.15c0.83,0.01,1.71-0.27,1.92-0.64
	c0.27-0.48,0.37-1.27,0.1-1.7c-0.11-0.18-2.43-2.14-3.46-3.12c-0.23-0.22-0.43-0.34-0.47-0.42c-0.05-0.11-0.02-0.34-0.04-0.46
	c-0.13-0.99-0.82-1.83-2.27-2.18c0.83-0.7,2.75-1.02,2.8-2.5c-0.52,1.21-2.81,1.17-3.57,1.58c-0.4,0.21-0.74,0.62-0.93,1.05
	c-0.09-0.03-0.17-0.05-0.26-0.08c-0.65-0.73-1.53-0.9-2.31-1.42c-0.46,1.28,0.3,2.19,0.55,3.23c-1.28,0.47-3.16,0.11-4.52,0.14
	c-1.85,0.04-1.8-1-4.92-0.95c-1.66,0.02-2.41,0.63-5.88,0.17c-3.67-0.49-5.82,0.08-9.98-1.08c-1.23-0.34-3.51-0.92-5.81-0.68
	c-2.72,0.28-5.49,1.81-5.61,5.33c-0.09,2.86,0.52,4.94,0.57,5.87c0.12,2.4,0.12,2.89,0.11,4.6c0,0.66-0.04,2.62-0.36,3.91
	c-0.41,1.61,0.48,2.78,0.21,5.04c1.7-2.36,1.17-2.81,0.91-5.45c-0.22-2.25,0-5.71-0.15-7.97c-0.08-1.12-0.08-1.47-0.08-2.92
	c0.19,1.66,0.25,2.16,0.61,3.26c0.53,1.61,0.87,2.08,0.99,3.77c0.08,1.17-0.06,1.6-0.77,3.14c-0.53,1.17,0.61,2.37,0.87,3.62
	c0.19,0.92,0.68,3.77,0.47,5.42c-0.06,0.49,0.25,0.47,0.43,0.47c0.4,0,0.07,1.11,0.09,1.52h2.98c-0.1-0.54-0.29-1.05-0.97-1.52
	c-0.09-0.06-0.29-0.8-0.34-0.9c-0.24-0.55-0.02,0.19-0.5-1.04c-0.79-1.99-0.57-4.07-0.14-6.03c0.81,1.4,3.32,5.23,3.3,6.93
	c-0.01,0.35,0.22,0.67,0.43,0.51c0.52-0.42,0.04,0.75,0.34,1.28h2.68c0.01-0.1-0.01-0.23-0.04-0.3c-0.45-1.19-1.24-0.84-1.54-1.74
	c-0.45-1.33-1.04-2.06-1.52-3.2c-0.26-0.61-0.3-1-0.36-1.67c-0.04-0.44,0.01-1.54,0.07-2.21c0.04,0.27,0.13,0.45,0.42,0.45
	c0.29,0,0.41-0.25,0.43-0.58c0.03,0.34,0.08,0.58,0.43,0.58c0.35,0,0.44-0.39,0.44-0.84l0-0.13c1-0.17,1.87-0.84,1.84-2.24
	C20.31,52.93,25.08,52.43,28.17,52.07L28.17,52.07z M46.32,37.28c0.23,0.06,0.61,0.56,0.36,0.65c-0.28,0.11-1.09-0.04-0.87-0.52
	C45.84,37.35,45.97,37.18,46.32,37.28L46.32,37.28z"/>
<g>
	<polygon class="st0" points="59.05,11.47 59.05,30.3 68.92,30.3 68.92,17.85 	"/>
	<polygon class="st0" points="28.93,11.47 28.93,30.3 19.06,30.3 19.06,17.85 	"/>
	<polygon class="st0" points="44.97,0.54 44.32,0 43.67,0.59 31.02,9.83 31.02,30.3 39.92,30.3 39.92,18.5 48.72,18.5 48.72,30.3 
		57.61,30.3 57.61,9.83 	"/>
</g>
<g>
	<path class="st2" d="M133.25,63.96c0-0.37,0-0.72,0-1.07c0-14.23,0-28.47,0-42.7c0-1.53,0-1.52-1.53-1.52
		c-16.84,0-48.67,0-65.51,0.01c-0.42,0-0.84,0.04-1.32,0.06c0,15.12,0,30.14,0,45.31c1.95,0,3.85,0.03,5.75-0.04
		c0.22-0.01,0.51-0.54,0.63-0.87c0.92-2.78,2.22-5.34,4.27-7.46c5.2-5.39,12.76-5.35,17.96,0.06c2.05,2.13,3.37,4.67,4.27,7.45
		c0.17,0.52,0.31,0.9,0.99,0.9c6.32-0.02,27.64-0.02,33.97-0.03C132.86,64.05,133,64.01,133.25,63.96z"/>
	<path class="st0" d="M168.67,61.27c-0.44-1.95-1.23-3.72-2.62-5.15c-3.8-3.89-8.5-4.95-13.65-3.78c-4.99,1.13-8.06,4.4-9.34,9.36
		c-0.59,2.3-0.76,2.35-3.12,2.4c-1.02,0.02-1.35-0.25-1.34-1.31c0.04-8.78,0.02-17.56,0.02-26.34c0-2.89,0.01-5.78,0-8.67
		c0-0.59,0.09-0.95,0.81-0.94c3.9,0.08,7.8,0.1,11.7,0.21c3.39,0.09,5.77,1.91,7.41,4.73c0.75,1.3,1.31,2.74,1.83,4.16
		c1,2.71,2.73,4.47,5.67,5.08c3.88,0.8,6.27,3.23,6.51,7.21c0.33,5.22,0.33,10.45,0.48,15.7C169.76,64.4,169.3,64.11,168.67,61.27z
		 M143.77,32.26c0.06,2.24,0.14,4.47,0.2,6.71c0.02,0.72,0.38,1.05,1.07,1.06c3.9,0.03,7.8,0.1,11.69,0.05
		c1.43-0.02,1.82-0.62,1.4-2.01c-0.52-1.68-1.11-3.36-1.87-4.95c-0.99-2.09-2.73-3.41-5.04-3.68c-2.42-0.28-4.87-0.33-7.46-0.48
		C143.76,30.25,143.74,31.26,143.77,32.26z"/>
	<path class="st0" d="M92.58,65.32c0,4.48-3.66,8.12-8.15,8.11c-4.42-0.01-8.05-3.66-8.06-8.09c-0.01-4.53,3.58-8.14,8.1-8.13
		C89.01,57.22,92.58,60.79,92.58,65.32z M84.52,68.32c1.67-0.02,3-1.4,2.98-3.07c-0.02-1.65-1.45-3.05-3.06-3.01
		c-1.68,0.05-2.98,1.4-2.97,3.09C81.48,67.03,82.83,68.35,84.52,68.32z"/>
	<path class="st0" d="M156.25,57.2c4.48,0.01,8.1,3.66,8.08,8.17c-0.02,4.45-3.74,8.11-8.21,8.07c-4.43-0.04-8.01-3.69-8-8.14
		C148.14,60.76,151.72,57.19,156.25,57.2z M159.25,65.29c-0.01-1.64-1.38-3.02-3.05-3.04c-1.59-0.02-3.06,1.46-3.03,3.06
		c0.03,1.68,1.38,3.01,3.05,3.01C157.89,68.32,159.25,66.96,159.25,65.29z"/>
</g>
</svg>
