<?xml version="1.0" encoding="utf-8"?>
<!-- Generator: Adobe Illustrator 25.2.3, SVG Export Plug-In . SVG Version: 6.00 Build 0)  -->
<svg version="1.1" id="Layer_1" xmlns="http://www.w3.org/2000/svg" xmlns:xlink="http://www.w3.org/1999/xlink" x="0px" y="0px"
	 viewBox="0 0 114.41 95.86" style="enable-background:new 0 0 114.41 95.86;" xml:space="preserve">
<g>
	<path fill="#D51342" d="M33.95,16.69c0.82-0.96,2.18-2.56,4.63-2.56c2.45,0,3.81,1.6,4.63,2.55l8.97,10.51
		c3.91-3.12,6.17-8.08,5.68-13.36c-0.7-7.54-7-13.51-14.56-13.82C34.6-0.34,27.4,6.64,27.4,15.27c0,2.49,0.61,4.89,1.74,7.05
		L33.95,16.69z"/>
	<path fill="#006E73" d="M109.15,68.43H90.3H48.2h-5.93c-0.71,0-1.28-0.57-1.28-1.28v-4.37c0-0.71,0.57-1.28,1.28-1.28h5.49
		c0.12,0,0.23-0.02,0.34-0.05h6.57c1.32,0,2.41-0.64,2.92-1.73c0.51-1.08,0.31-2.33-0.53-3.35l-4.99-6.05l0.13-0.02
		c1.17-0.13,2.13-0.81,2.58-1.8c0.45-0.99,0.32-2.16-0.34-3.13l-3.25-4.74c-0.55-0.81-0.03-1.91,0.94-2h0
		c1.24-0.11,2.23-0.8,2.66-1.85c0.43-1.05,0.2-2.24-0.6-3.18L41.29,18.51c-0.85-0.99-1.52-1.77-2.73-1.77
		c-1.22,0-1.89,0.78-2.73,1.77l-12.9,15.11c-0.81,0.94-1.03,2.13-0.6,3.18c0.43,1.05,1.42,1.74,2.66,1.85h0
		c0.97,0.09,1.5,1.19,0.94,2l-3.25,4.74c-0.67,0.97-0.79,2.14-0.34,3.13c0.45,0.99,1.42,1.66,2.58,1.8l0.15,0.02l-5.16,6.25
		c-0.81,0.99-1.01,2.2-0.51,3.24c0.49,1.05,1.55,1.67,2.83,1.67h12.64c0.71,0,1.28,0.57,1.28,1.28v4.37c0,0.71-0.57,1.28-1.28,1.28
		H3.28C2.57,68.43,2,69,2,69.71v2.3c0,0.71,0.57,1.28,1.28,1.28h105.87c0.71,0,1.28-0.57,1.28-1.28v-2.3
		C110.43,69,109.85,68.43,109.15,68.43z"/>
	<path fill="#006E73" d="M80.6,71.44v-15.3c0-0.76,0.62-1.38,1.39-1.38h5.95c0.13,0,0.25-0.02,0.37-0.05h7.12
		c1.43,0,2.61-0.7,3.17-1.87c0.55-1.17,0.34-2.53-0.57-3.63l-5.4-6.55l0.15-0.02c1.26-0.14,2.31-0.87,2.8-1.95
		c0.49-1.07,0.35-2.34-0.37-3.39l-3.52-5.13c-0.6-0.87-0.04-2.07,1.02-2.16h0c1.34-0.12,2.41-0.87,2.88-2
		c0.46-1.13,0.22-2.42-0.65-3.44L80.93,8.21c-0.92-1.07-1.64-1.92-2.96-1.92c-1.32,0-2.04,0.85-2.96,1.92L61.04,24.57
		c-0.87,1.02-1.12,2.31-0.65,3.44c0.46,1.13,1.54,1.88,2.88,2h0c1.06,0.09,1.62,1.29,1.02,2.16l-3.52,5.13
		c-0.72,1.05-0.86,2.32-0.37,3.39c0.49,1.08,1.54,1.8,2.8,1.95l0.16,0.02l-5.59,6.77c-0.88,1.07-1.09,2.38-0.56,3.51
		c0.53,1.13,1.68,1.81,3.06,1.81h13.69c0.76,0,1.38,0.62,1.38,1.38v15.3"/>
	<g>
		<path fill="none" stroke="#D51342" stroke-width="3" stroke-linecap="round" stroke-miterlimit="10" stroke-linejoin="round" d="M2,78.42c13.8,0,13.8,5.67,27.6,5.67c13.8,0,13.8-5.67,27.6-5.67c13.8,0,13.8,5.67,27.6,5.67
			s13.8-5.67,27.6-5.67"/>
	</g>
	<g>
		<path fill="none" stroke="#D51342" stroke-width="3" stroke-linecap="round" stroke-miterlimit="10" stroke-linejoin="round" d="M2,88.63c13.8,0,13.8,5.67,27.6,5.67c13.8,0,13.8-5.67,27.6-5.67c13.8,0,13.8,5.67,27.6,5.67
			s13.8-5.67,27.6-5.67"/>
	</g>
</g>
</svg>
