<?xml version="1.0" encoding="utf-8"?>
<!-- Generator: Adobe Illustrator 23.0.6, SVG Export Plug-In . SVG Version: 6.00 Build 0)  -->
<svg version="1.1" id="Layer_1" xmlns="http://www.w3.org/2000/svg" xmlns:xlink="http://www.w3.org/1999/xlink" x="0px" y="0px"
	 viewBox="0 0 75 54.2" style="enable-background:new 0 0 75 54.2;" xml:space="preserve">
<g>
	<path d="M43.8,31.2c0,3.5-2.8,6.2-6.2,6.2c-3.5,0-6.3-2.8-6.3-6.2S34,25,37.5,25C41,25,43.8,27.8,43.8,31.2"/>
	<path d="M68.8,8.3H52.1L47.9,0H27.1l-4.2,8.3H6.2C2.7,8.3,0,11,0,14.6v33.3c0,3.3,2.7,6.2,6.2,6.2h62.5c3.5,0,6.2-2.9,6.2-6.2V14.6
		C75,11,72.3,8.3,68.8,8.3z M37.5,45.8c-8.1,0-14.6-6.5-14.6-14.6s6.5-14.6,14.6-14.6s14.6,6.5,14.6,14.6S45.6,45.8,37.5,45.8z"/>
</g>
</svg>
