<?xml version="1.0" encoding="utf-8"?>
<!-- Generator: Adobe Illustrator 25.2.3, SVG Export Plug-In . SVG Version: 6.00 Build 0)  -->
<svg version="1.1" id="Layer_1" xmlns="http://www.w3.org/2000/svg" xmlns:xlink="http://www.w3.org/1999/xlink" x="0px" y="0px"
	 viewBox="0 0 64.95 87.64" style="enable-background:new 0 0 64.95 87.64;" xml:space="preserve">
<style type="text/css">
	.st0{fill:#006E73;}
	.st1{fill:none;}
	.st2{fill:#D51141;}
</style>
<g>
	<path class="st0" d="M61.07,0H3.87C1.74,0,0,1.74,0,3.88v79.89c0,2.14,1.74,3.87,3.87,3.87h57.2c2.14,0,3.87-1.74,3.87-3.87V3.88
		C64.95,1.74,63.21,0,61.07,0z M26.11,42.75v-10c0-0.75,0.61-1.36,1.36-1.36h10c0.75,0,1.36,0.61,1.36,1.36v10
		c0,0.75-0.61,1.36-1.36,1.36h-10C26.72,44.11,26.11,43.5,26.11,42.75z M37.47,49.4c0.75,0,1.36,0.61,1.36,1.36v10
		c0,0.75-0.61,1.36-1.36,1.36h-10c-0.75,0-1.36-0.61-1.36-1.36v-10c0-0.75,0.61-1.36,1.36-1.36H37.47z M26.11,68.76
		c0-0.75,0.61-1.36,1.36-1.36h10c0.75,0,1.36,0.61,1.36,1.36v10c0,0.75-0.61,1.36-1.36,1.36h-10c-0.75,0-1.36-0.61-1.36-1.36V68.76z
		 M44.12,68.76c0-0.75,0.61-1.36,1.36-1.36h10c0.75,0,1.36,0.61,1.36,1.36v10c0,0.75-0.61,1.36-1.36,1.36h-10
		c-0.75,0-1.36-0.61-1.36-1.36V68.76z M44.12,42.75v-10c0-0.75,0.61-1.36,1.36-1.36h10c0.75,0,1.36,0.61,1.36,1.36v10
		c0,0.75-0.61,1.36-1.36,1.36h-10C44.73,44.11,44.12,43.5,44.12,42.75z M44.12,60.76v-10c0-0.75,0.61-1.36,1.36-1.36h10
		c0.75,0,1.36,0.61,1.36,1.36v10c0,0.75-0.61,1.36-1.36,1.36h-10C44.73,62.11,44.12,61.51,44.12,60.76z M8.11,68.76
		c0-0.75,0.61-1.36,1.36-1.36h10c0.75,0,1.36,0.61,1.36,1.36v10c0,0.75-0.61,1.36-1.36,1.36h-10c-0.75,0-1.36-0.61-1.36-1.36V68.76z
		 M8.11,42.75v-10c0-0.75,0.61-1.36,1.36-1.36h10c0.75,0,1.36,0.61,1.36,1.36v10c0,0.75-0.61,1.36-1.36,1.36h-10
		C8.72,44.11,8.11,43.5,8.11,42.75z M8.11,60.76v-10c0-0.75,0.61-1.36,1.36-1.36h10c0.75,0,1.36,0.61,1.36,1.36v10
		c0,0.75-0.61,1.36-1.36,1.36h-10C8.72,62.11,8.11,61.51,8.11,60.76z M8.09,24.92V9c0-0.84,0.73-1.53,1.62-1.53h45.53
		c0.89,0,1.62,0.68,1.62,1.53v15.92c0,0.84-0.73,1.52-1.62,1.52H9.71C8.82,26.44,8.09,25.76,8.09,24.92z"/>
	<path class="st1" d="M55.24,6.43H9.71C8.24,6.43,7.05,7.58,7.05,9v15.92c0,1.42,1.19,2.57,2.66,2.57h45.53
		c1.47,0,2.66-1.15,2.66-2.57V9C57.9,7.58,56.71,6.43,55.24,6.43z"/>
	<path class="st1" d="M19.47,66.36h-10c-1.32,0-2.4,1.07-2.4,2.4v10c0,1.32,1.08,2.4,2.4,2.4h10c1.33,0,2.4-1.08,2.4-2.4v-10
		C21.87,67.43,20.79,66.36,19.47,66.36z"/>
	<path class="st1" d="M37.47,66.36h-10c-1.33,0-2.4,1.07-2.4,2.4v10c0,1.32,1.08,2.4,2.4,2.4h10c1.33,0,2.4-1.08,2.4-2.4v-10
		C39.87,67.43,38.8,66.36,37.47,66.36z"/>
	<path class="st1" d="M55.48,66.36h-10c-1.33,0-2.4,1.07-2.4,2.4v10c0,1.32,1.08,2.4,2.4,2.4h10c1.33,0,2.4-1.08,2.4-2.4v-10
		C57.88,67.43,56.8,66.36,55.48,66.36z"/>
	<path class="st1" d="M19.47,48.35h-10c-1.32,0-2.4,1.08-2.4,2.4v10c0,1.33,1.08,2.4,2.4,2.4h10c1.33,0,2.4-1.07,2.4-2.4v-10
		C21.87,49.43,20.79,48.35,19.47,48.35z"/>
	<path class="st1" d="M37.47,48.35h-10c-1.33,0-2.4,1.08-2.4,2.4v10c0,1.33,1.08,2.4,2.4,2.4h10c1.33,0,2.4-1.07,2.4-2.4v-10
		C39.87,49.43,38.8,48.35,37.47,48.35z"/>
	<path class="st1" d="M55.48,48.35h-10c-1.33,0-2.4,1.08-2.4,2.4v10c0,1.33,1.08,2.4,2.4,2.4h10c1.33,0,2.4-1.07,2.4-2.4v-10
		C57.88,49.43,56.8,48.35,55.48,48.35z"/>
	<path class="st1" d="M19.47,30.35h-10c-1.32,0-2.4,1.07-2.4,2.4v10c0,1.33,1.08,2.4,2.4,2.4h10c1.33,0,2.4-1.07,2.4-2.4v-10
		C21.87,31.42,20.79,30.35,19.47,30.35z"/>
	<path class="st1" d="M37.47,30.35h-10c-1.33,0-2.4,1.07-2.4,2.4v10c0,1.33,1.08,2.4,2.4,2.4h10c1.33,0,2.4-1.07,2.4-2.4v-10
		C39.87,31.42,38.8,30.35,37.47,30.35z"/>
	<path class="st2" d="M55.48,30.35h-10c-1.33,0-2.4,1.07-2.4,2.4v10c0,1.33,1.08,2.4,2.4,2.4h10c1.33,0,2.4-1.07,2.4-2.4v-10
		C57.88,31.42,56.8,30.35,55.48,30.35z"/>
</g>
</svg>
