<?xml version="1.0" encoding="utf-8"?>
<!-- Generator: Adobe Illustrator 25.2.3, SVG Export Plug-In . SVG Version: 6.00 Build 0)  -->
<svg version="1.1" id="Layer_1" xmlns="http://www.w3.org/2000/svg" xmlns:xlink="http://www.w3.org/1999/xlink" x="0px" y="0px"
	 viewBox="0 0 139.64 101.68" style="enable-background:new 0 0 139.64 101.68;" xml:space="preserve">
<style type="text/css">
	.st0{fill:#006E73;}
	.st1{fill:#D51342;}
	.st2{fill:none;}
	.st3{fill:#FFFFFF;}
</style>
<g>
	<g>
		<path class="st0" d="M28.57,59.29c0-0.29,0.03-0.57,0.07-0.85c0.18-1.13,0.69-2.14,1.44-2.93c0.05-0.05,0.1-0.11,0.16-0.16
			c0.09-0.09,0.18-0.17,0.27-0.25c0.04-0.04,0.08-0.07,0.12-0.1c0.1-0.08,0.21-0.16,0.32-0.24c0.04-0.03,0.07-0.05,0.11-0.07
			c0.12-0.08,0.23-0.15,0.36-0.22c0.04-0.02,0.08-0.04,0.11-0.06c0.12-0.06,0.25-0.13,0.37-0.18c0.05-0.02,0.09-0.04,0.14-0.05
			c0.12-0.05,0.25-0.1,0.37-0.14c0.06-0.02,0.13-0.04,0.19-0.05c0.11-0.03,0.23-0.06,0.34-0.09c0.1-0.02,0.19-0.03,0.29-0.05
			c0.09-0.01,0.18-0.03,0.27-0.04c0.19-0.02,0.38-0.03,0.58-0.03c0,0,0,0,0,0h0c0.2,0,0.39,0.01,0.58,0.03
			c0.09,0.01,0.18,0.03,0.27,0.04c0.1,0.01,0.19,0.03,0.29,0.05c0.12,0.02,0.23,0.06,0.34,0.09c0.06,0.02,0.13,0.03,0.19,0.05
			c0.13,0.04,0.25,0.09,0.37,0.14c0.05,0.02,0.09,0.03,0.14,0.05c0.07,0.03,0.14,0.07,0.22,0.1l2.6-1.37l3.46-1.82l2.39-1.25
			C43.16,38.53,38.4,33,36.05,30.9c-0.01-0.01-0.02-0.02-0.03-0.03c-0.07-0.06-0.13-0.12-0.2-0.17c-0.03-0.03-0.07-0.06-0.1-0.08
			c-0.04-0.04-0.08-0.07-0.12-0.1c-0.07-0.06-0.14-0.12-0.2-0.17c0,0,0,0-0.01-0.01c0,0,0,0,0,0c0,0,0,0,0,0
			c-0.36-0.29-0.82-0.43-1.27-0.44c-0.01,0-0.02,0-0.03,0s-0.02,0-0.03,0c-0.45,0.01-0.91,0.15-1.27,0.44c0,0,0,0,0,0c0,0,0,0,0,0
			c0,0,0,0-0.01,0.01c-0.06,0.05-0.13,0.11-0.2,0.17c-0.04,0.03-0.08,0.07-0.12,0.1c-0.03,0.03-0.07,0.05-0.1,0.08
			c-0.06,0.05-0.13,0.11-0.2,0.17c-0.01,0.01-0.02,0.02-0.03,0.03c-2.38,2.13-7.23,7.77-8.96,19.41c-0.02,0.16-0.05,0.33-0.07,0.49
			c-0.03,0.25-0.07,0.5-0.1,0.76c-0.02,0.15-0.04,0.29-0.06,0.44l0,0c-0.26,2.22-0.41,4.64-0.41,7.28c0,0.8,0.02,1.57,0.04,2.33
			c0.02,0.64,0.06,1.25,0.1,1.86l6.01-3.15C28.61,59.99,28.57,59.64,28.57,59.29z"/>
		<path class="st0" d="M39.61,59.29c0,0.29-0.03,0.57-0.07,0.85c-0.18,1.12-0.69,2.13-1.43,2.93c-0.06,0.06-0.11,0.12-0.17,0.17
			c-0.08,0.08-0.17,0.16-0.26,0.23c-0.05,0.04-0.1,0.08-0.14,0.12c-0.1,0.08-0.2,0.15-0.3,0.23c-0.04,0.03-0.09,0.06-0.13,0.09
			c-0.11,0.07-0.22,0.14-0.33,0.2c-0.05,0.03-0.09,0.05-0.14,0.07c-0.11,0.06-0.23,0.12-0.35,0.17c-0.06,0.02-0.11,0.04-0.17,0.07
			c-0.11,0.04-0.23,0.09-0.34,0.13c-0.07,0.02-0.15,0.04-0.22,0.06c-0.1,0.03-0.21,0.06-0.32,0.08c-0.1,0.02-0.21,0.04-0.31,0.05
			c-0.08,0.01-0.16,0.03-0.25,0.04c-0.19,0.02-0.39,0.03-0.58,0.03c-0.2,0-0.39-0.01-0.58-0.03c-0.08-0.01-0.16-0.03-0.25-0.04
			c-0.1-0.02-0.21-0.03-0.31-0.05c-0.11-0.02-0.21-0.05-0.32-0.08c-0.07-0.02-0.15-0.04-0.22-0.06c-0.12-0.04-0.23-0.08-0.34-0.13
			c-0.06-0.02-0.11-0.04-0.17-0.07c-0.07-0.03-0.14-0.07-0.21-0.1l-2.6,1.36l-3.47,1.82l-2.39,1.25c1.78,11.3,6.5,16.84,8.86,18.96
			c0.04,0.03,0.07,0.06,0.11,0.1c0.04,0.04,0.08,0.07,0.12,0.11c0.08,0.07,0.15,0.13,0.22,0.19c0,0,0,0,0.01,0
			c0.08,0.07,0.17,0.14,0.24,0.19c0.37,0.29,0.84,0.44,1.3,0.44h0c0,0,0,0,0,0c0.47,0,0.93-0.15,1.3-0.44
			c0.07-0.06,0.15-0.12,0.24-0.19c0,0,0,0,0.01,0c0.07-0.06,0.14-0.12,0.22-0.19c0.04-0.03,0.08-0.07,0.12-0.11
			c0.04-0.03,0.07-0.06,0.11-0.1c2.41-2.17,7.28-7.88,8.97-19.67c0.01-0.04,0.01-0.08,0.02-0.13c0.05-0.33,0.09-0.67,0.13-1
			c0.01-0.09,0.02-0.18,0.04-0.28l0,0c0.25-2.19,0.4-4.56,0.41-7.15l0,0c0-0.02,0-0.04,0-0.06c0-0.02,0-0.04,0-0.06h0
			c0-0.76-0.02-1.61-0.04-2.33c-0.02-0.64-0.06-1.25-0.1-1.86l-6.01,3.15C39.56,58.59,39.61,58.93,39.61,59.29z"/>
		<path class="st1" d="M67.92,44.72l-2.61-4.99c-0.39-0.74-1.15-1.19-1.98-1.19c-0.36,0-0.72,0.09-1.03,0.26l-7.4,3.88
			c-0.46,0.24-1.05,0.68-1.41,1.04l-2.03,2.06c-0.72,0.73-0.91,1.91-0.45,2.83L28.68,60.32l-6.01,3.15l-0.13,0.07l-6.86,3.59
			c-0.36-0.66-1.06-1.13-1.83-1.24c-0.25-0.04-0.51-0.03-0.76,0.01l-2.95,0.54c-0.51,0.09-1.19,0.33-1.65,0.57l-7.3,3.83
			c-1.09,0.57-1.51,1.92-0.94,3.01l2.62,4.99c0.39,0.74,1.14,1.19,1.98,1.19c0.36,0,0.72-0.09,1.03-0.26l7.4-3.88
			c0.46-0.24,1.04-0.67,1.41-1.04l2.03-2.06c0.18-0.18,0.32-0.39,0.44-0.62c0.34-0.69,0.35-1.54,0.01-2.21L39.5,58.25l6.01-3.15
			l6.99-3.66c0.49,0.88,1.59,1.41,2.59,1.23l2.95-0.54c0.51-0.09,1.19-0.33,1.65-0.57l7.3-3.83c0.53-0.28,0.92-0.74,1.09-1.31
			C68.25,45.85,68.2,45.25,67.92,44.72z"/>
	</g>
	<g>
		<path class="st2" d="M108.53,54.2c2.44,0.36,4.38,0.74,4.59-0.67c0.21-1.4-1.58-2.84-4.02-3.2c-2.42-0.36-4.56,0.5-4.77,1.89
			C104.13,53.64,106.11,53.84,108.53,54.2z"/>
		<path class="st2" d="M127.61,53.09c-0.59-0.09-1.18-0.1-1.71-0.05c-1.65,0.15-2.91,0.89-3.06,1.94c-0.17,1.16,1.14,1.5,2.97,1.78
			c0.39,0.06,0.79,0.12,1.23,0.19c2.42,0.36,4.38,0.74,4.59-0.67C131.84,54.89,130.04,53.45,127.61,53.09z"/>
		<path class="st0" d="M126.84,42.76c-2.16-0.1-4.53-0.3-7.05-0.68c-10.64-1.58-19-5.78-19-5.78c-2.19,14.75-6.45,43.37,12.98,46.26
			c7.17,1.07,12.27-2.17,15.96-7.41c3.78-5.36,6.09-12.83,7.64-19.96c0.25-1.18,0.49-2.35,0.71-3.5c0.65-3.5,1.15-6.81,1.56-9.61
			C139.64,42.08,134.58,43.12,126.84,42.76z M104.34,52.23c0.21-1.4,2.34-2.25,4.77-1.89c2.44,0.36,4.22,1.8,4.02,3.2
			c-0.21,1.41-2.15,1.03-4.59,0.67C106.11,53.84,104.13,53.64,104.34,52.23z M106.47,67.26c-0.25,1.66,5.39,3.88,8.92,4.4
			c3.34,0.5,9.57,0.04,9.81-1.62c-0.49,3.32-5.08,5.39-10.26,4.62C109.77,73.9,105.98,70.58,106.47,67.26z M127.04,56.95
			c-0.44-0.07-0.84-0.12-1.23-0.19c-1.83-0.28-3.14-0.62-2.97-1.78c0.16-1.05,1.42-1.79,3.06-1.94c0.53-0.05,1.12-0.04,1.71,0.05
			c2.42,0.36,4.22,1.8,4.02,3.2C131.42,57.69,129.46,57.31,127.04,56.95z"/>
		<g>
			<path class="st1" d="M125.21,70.05c-0.25,1.66-6.47,2.11-9.81,1.62c-3.53-0.52-9.17-2.75-8.92-4.4
				c-0.49,3.32,3.29,6.64,8.47,7.41C120.13,75.44,124.71,73.37,125.21,70.05z"/>
			<path class="st2" d="M125.21,70.05L125.21,70.05 M125.21,70.05c-0.49,3.32-5.08,5.39-10.26,4.62c-5.18-0.77-8.97-4.09-8.47-7.41
				c-0.25,1.66,5.39,3.88,8.92,4.4C118.73,72.16,124.96,71.7,125.21,70.05 M125.35,69.1L125.35,69.1c-0.51-0.08-0.98,0.26-1.09,0.75
				c-0.6,0.77-5.34,1.37-8.73,0.87c-3.74-0.56-7.8-2.51-8.11-3.36c0.05-0.5-0.31-0.96-0.81-1.04c-0.52-0.08-1.01,0.28-1.09,0.81
				c-0.58,3.9,3.5,7.63,9.28,8.49c5.74,0.85,10.69-1.49,11.33-5.34c0.01-0.03,0.01-0.06,0.02-0.09
				C126.24,69.67,125.88,69.18,125.35,69.1L125.35,69.1z M125.07,71L125.07,71L125.07,71L125.07,71z"/>
		</g>
	</g>
	<path class="st0" d="M84.13,41.14c0,0,2.35,5.99,0.45,8.91c-1.85,2.85-6.04,1.28-4.9,1.28c1.14,0,4.69-4.44,0.28-6.3
		c-1.09-0.47-2.11-0.39-2.74-0.09c-2.26,1.08-1.84,4.36-1.84,4.36s0.6,3.7,4.45,4.18c5.29,0.65,6.95-2.59,7.18-4.93
		c0.35-3.7-1.13-7.94-1.13-7.94s7.77-3.46,3.7-11.63c-1.96-3.93-6.8-3.62-6.8-3.62l-0.98-4.46c0,0,4.38-3.47,5.02-9.58
		c0.56-5.35-2.33-11.99-3.74-11.27c-7.47,3.85-3.7,16.39-3.7,16.39s-6.14,6.5-6.95,8.61c-1.02,2.64-2.81,5.89,0.53,11.02
		C77.19,42.6,84.13,41.14,84.13,41.14z M87.78,33.42c0.95,3.38-2.27,5.27-2.27,5.27l-1.58-8.72C83.92,29.97,86.7,29.57,87.78,33.42z
		 M80.64,9.35c0.49-1.29,1.58-5.06,3.4-4.02c1.19,0.67,0.79,3.29,0,5.38c-0.68,1.78-3.4,4.65-3.4,4.65S79.79,11.61,80.64,9.35z
		 M76.11,26.77c0.8-1.32,4.15-4.62,4.15-4.62l0.71,3.8c0,0-3,1.78-3.57,3.9c-1.02,3.79,0.56,5.5,1.79,6.74
		c1.06,1.07,2.52,1.46,2.8,0.79c0.29-0.68-2.54-1.47-2.61-3.45c-0.11-3.18,2.61-3.8,2.61-3.8l1.93,9.23c0,0-3.35,1.07-6.63-1.02
		c-3.05-1.93-3.11-4.71-3.11-6.52C74.18,29.34,75.4,27.93,76.11,26.77z"/>
	<g>
		<path class="st1" d="M82.31,85.37c0.8,0.7,1.58,1.33,2.31,2.01c1.3,1.21,2.49,2.52,3.35,4.08c0.3,0.53,0.53,1.12,0.67,1.72
			c0.28,1.14-0.23,1.89-1.36,2.2c-0.11,0.03-0.24,0.15-0.27,0.26c-0.31,1.14-1.1,1.68-2.23,1.35c-0.77-0.22-1.53-0.56-2.21-0.98
			c-1.97-1.23-3.55-2.89-5-4.69c-0.17-0.21-0.33-0.42-0.56-0.72c0.07,0.72,0.15,1.33,0.19,1.95c0.14,2.13,0.14,4.26-0.44,6.34
			c-0.18,0.65-0.46,1.29-0.83,1.86c-0.6,0.93-1.49,1.07-2.45,0.51c-0.1-0.06-0.29-0.05-0.4,0.01c-0.91,0.54-1.76,0.39-2.41-0.47
			c-0.57-0.76-0.83-1.65-1.01-2.57c-0.46-2.37-0.41-4.75-0.13-7.13c0.02-0.13,0.03-0.25-0.01-0.42c-0.08,0.1-0.16,0.2-0.24,0.3
			c-1.54,1.96-3.23,3.76-5.36,5.09c-0.66,0.41-1.4,0.73-2.15,0.93c-1.12,0.31-1.9-0.24-2.2-1.36c-0.03-0.11-0.16-0.24-0.26-0.27
			c-1.15-0.33-1.67-1.09-1.35-2.23c0.22-0.77,0.56-1.53,0.98-2.21c1.26-2,2.95-3.61,4.78-5.08c0.18-0.14,0.36-0.28,0.63-0.49
			c-0.69,0.07-1.28,0.15-1.88,0.18c-2.16,0.14-4.31,0.15-6.41-0.44c-0.66-0.18-1.31-0.48-1.89-0.84c-0.86-0.54-1.04-1.51-0.5-2.36
			c0.12-0.2,0.12-0.32,0-0.51c-0.54-0.85-0.34-1.78,0.49-2.37c0.92-0.65,1.98-0.91,3.07-1.09c2.19-0.36,4.39-0.31,6.59-0.04
			c0.13,0.02,0.27,0.03,0.43-0.02c-0.18-0.14-0.36-0.28-0.53-0.42c-1.92-1.55-3.69-3.24-4.96-5.37c-0.36-0.61-0.64-1.3-0.82-1.99
			c-0.28-1.11,0.26-1.87,1.36-2.16c0.11-0.03,0.25-0.16,0.26-0.26c0.14-0.96,0.98-1.62,2.21-1.38c0.85,0.17,1.6,0.57,2.31,1.04
			c1.98,1.31,3.6,2.99,5.08,4.84c0.12,0.15,0.23,0.3,0.41,0.52c-0.07-0.72-0.15-1.34-0.19-1.96c-0.13-2.12-0.14-4.24,0.44-6.3
			c0.18-0.65,0.46-1.29,0.82-1.86c0.6-0.94,1.48-1.08,2.45-0.53c0.1,0.06,0.3,0.06,0.4,0c0.96-0.55,1.81-0.39,2.46,0.52
			c0.63,0.87,0.88,1.89,1.05,2.92c0.38,2.25,0.32,4.5,0.05,6.75c-0.01,0.12-0.03,0.24-0.04,0.41c0.66-0.77,1.26-1.5,1.9-2.2
			c1.2-1.3,2.5-2.51,4.05-3.39c0.59-0.33,1.23-0.6,1.89-0.76c1.11-0.27,1.87,0.26,2.17,1.36c0.03,0.11,0.16,0.24,0.26,0.26
			c1.13,0.31,1.6,1.05,1.38,2.2c-0.18,0.93-0.64,1.74-1.16,2.51c-1.33,1.93-3,3.54-4.83,4.98c-0.11,0.08-0.21,0.17-0.39,0.32
			c0.74-0.07,1.39-0.15,2.03-0.19c2.16-0.13,4.31-0.12,6.41,0.5c0.62,0.19,1.23,0.47,1.77,0.83c0.84,0.57,0.96,1.49,0.45,2.35
			c-0.06,0.11-0.07,0.32-0.01,0.43c0.54,0.96,0.34,1.87-0.58,2.48c-1.01,0.68-2.17,0.93-3.35,1.09c-2.16,0.3-4.32,0.24-6.48-0.06
			C82.46,85.37,82.41,85.37,82.31,85.37z M73.3,86.78c2.82,0,5.13-2.3,5.12-5.08c-0.02-2.9-2.29-5.17-5.15-5.17
			c-2.82,0-5.08,2.29-5.09,5.14C68.18,84.5,70.47,86.78,73.3,86.78z M69.97,87.37c-1.01-0.63-1.77-1.39-2.34-2.33
			c-0.07,0.03-0.12,0.05-0.16,0.07c-2.84,1.64-5.27,3.74-7.16,6.44c-0.38,0.55-0.63,1.2-0.9,1.83c-0.14,0.31-0.05,0.51,0.35,0.58
			c0.66,0.11,1.06,0.54,1.23,1.19c0.13,0.48,0.18,0.56,0.65,0.37c0.63-0.25,1.26-0.54,1.82-0.91c1.86-1.25,3.38-2.86,4.73-4.64
			C68.82,89.14,69.37,88.26,69.97,87.37z M71.67,88.11c-0.02,0.04-0.04,0.07-0.05,0.11c-0.84,3.16-1.09,6.35-0.52,9.58
			c0.12,0.67,0.4,1.32,0.64,1.97c0.12,0.31,0.32,0.4,0.66,0.17c0.57-0.4,1.2-0.4,1.78,0c0.34,0.23,0.54,0.14,0.66-0.17
			c0.23-0.58,0.48-1.17,0.61-1.78c0.53-2.57,0.4-5.16-0.02-7.73c-0.12-0.73-0.31-1.45-0.47-2.14c-0.6,0.05-1.12,0.14-1.65,0.14
			C72.78,88.25,72.24,88.16,71.67,88.11z M69.97,75.94c-0.59-0.87-1.12-1.73-1.73-2.53c-1.49-1.96-3.17-3.74-5.29-5.04
			c-0.44-0.27-0.96-0.44-1.45-0.62c-0.28-0.11-0.44,0-0.5,0.33c-0.13,0.71-0.57,1.16-1.27,1.28c-0.38,0.07-0.46,0.27-0.35,0.56
			c0.2,0.5,0.39,1.01,0.68,1.46c1.67,2.61,3.95,4.61,6.52,6.29c0.33,0.22,0.68,0.4,1.03,0.61C68.21,77.31,68.96,76.56,69.97,75.94z
			 M76.67,75.98c0.98,0.58,1.72,1.36,2.33,2.32c3.14-1.91,5.9-4.17,7.78-7.36c0.19-0.33,0.32-0.7,0.43-1.07
			c0.09-0.27,0.02-0.45-0.32-0.51c-0.72-0.12-1.18-0.57-1.3-1.29c-0.06-0.34-0.24-0.42-0.51-0.32c-0.48,0.18-0.97,0.35-1.41,0.61
			c-1.54,0.91-2.81,2.13-4,3.45C78.53,73.07,77.51,74.43,76.67,75.98z M74.94,75.14c0.01-0.02,0.04-0.1,0.06-0.18
			c0.78-2.93,0.99-5.89,0.59-8.9c-0.12-0.88-0.3-1.76-0.76-2.54c-0.16-0.27-0.32-0.38-0.64-0.16c-0.58,0.41-1.22,0.42-1.81,0
			c-0.32-0.23-0.51-0.12-0.64,0.16c-0.2,0.46-0.43,0.92-0.53,1.4c-0.74,3.41-0.48,6.79,0.39,10.14c0.01,0.06,0.06,0.11,0.04,0.07
			C72.78,75.14,73.82,75.14,74.94,75.14z M79.02,84.98c-0.63,1.01-1.38,1.77-2.34,2.36c0.09,0.17,0.16,0.32,0.25,0.45
			c0.79,1.11,1.54,2.26,2.4,3.31c1.32,1.59,2.81,3.02,4.65,4.03c0.35,0.19,0.73,0.31,1.11,0.43c0.28,0.09,0.44,0,0.5-0.33
			c0.13-0.71,0.57-1.15,1.27-1.28c0.36-0.06,0.44-0.25,0.33-0.54c-0.18-0.48-0.35-0.98-0.62-1.41c-1.25-2.04-2.95-3.68-4.82-5.13
			C80.89,86.21,79.95,85.62,79.02,84.98z M66.78,83.35c0-1.17,0-2.24,0-3.34c-0.04-0.01-0.14-0.05-0.24-0.07
			c-2.89-0.77-5.81-0.97-8.78-0.59c-0.9,0.11-1.78,0.31-2.58,0.76c-0.28,0.16-0.41,0.32-0.17,0.66c0.4,0.57,0.4,1.2,0,1.77
			c-0.21,0.3-0.15,0.49,0.13,0.61c0.58,0.24,1.16,0.51,1.77,0.64c2.61,0.54,5.23,0.42,7.84-0.02
			C65.46,83.66,66.16,83.48,66.78,83.35z M79.82,83.33c0.49,0.11,1.05,0.27,1.61,0.38c2.6,0.49,5.22,0.63,7.84,0.19
			c0.77-0.13,1.54-0.3,2.21-0.75c0.23-0.15,0.3-0.3,0.11-0.56c-0.4-0.57-0.43-1.2-0.04-1.77c0.24-0.36,0.14-0.57-0.18-0.69
			c-0.71-0.26-1.42-0.56-2.15-0.69c-2.62-0.46-5.24-0.3-7.84,0.19c-0.56,0.11-1.11,0.27-1.57,0.38
			C79.82,81.13,79.82,82.18,79.82,83.33z"/>
		<path class="st3" d="M73.3,86.78c-2.84,0-5.13-2.28-5.12-5.1c0-2.85,2.27-5.14,5.09-5.14c2.87,0,5.14,2.27,5.15,5.17
			C78.44,84.47,76.12,86.77,73.3,86.78z"/>
		<path class="st1" d="M69.97,87.37c-0.6,0.88-1.15,1.77-1.78,2.59c-1.35,1.78-2.87,3.39-4.73,4.64c-0.56,0.38-1.19,0.66-1.82,0.91
			c-0.47,0.19-0.53,0.11-0.65-0.37c-0.17-0.64-0.58-1.07-1.23-1.19c-0.4-0.07-0.49-0.27-0.35-0.58c0.27-0.62,0.52-1.28,0.9-1.83
			c1.88-2.7,4.32-4.79,7.16-6.44c0.04-0.02,0.09-0.04,0.16-0.07C68.2,85.99,68.96,86.75,69.97,87.37z"/>
		<path class="st1" d="M71.67,88.11c0.57,0.05,1.1,0.14,1.64,0.14c0.52,0,1.05-0.09,1.65-0.14c0.15,0.69,0.35,1.41,0.47,2.14
			c0.42,2.57,0.55,5.16,0.02,7.73c-0.13,0.61-0.38,1.2-0.61,1.78c-0.12,0.31-0.32,0.4-0.66,0.17c-0.57-0.4-1.2-0.4-1.78,0
			c-0.34,0.23-0.54,0.14-0.66-0.17c-0.24-0.65-0.53-1.3-0.64-1.97c-0.57-3.23-0.32-6.42,0.52-9.58
			C71.64,88.18,71.66,88.15,71.67,88.11z"/>
		<path class="st1" d="M69.97,75.94c-1.01,0.62-1.76,1.37-2.36,2.34c-0.36-0.21-0.7-0.39-1.03-0.61c-2.57-1.68-4.84-3.68-6.52-6.29
			c-0.29-0.45-0.48-0.96-0.68-1.46c-0.12-0.29-0.03-0.5,0.35-0.56c0.71-0.12,1.15-0.57,1.27-1.28c0.06-0.33,0.22-0.43,0.5-0.33
			c0.49,0.19,1,0.35,1.45,0.62c2.12,1.3,3.8,3.08,5.29,5.04C68.85,74.21,69.38,75.07,69.97,75.94z"/>
		<path class="st1" d="M76.67,75.98c0.84-1.55,1.86-2.91,3-4.18c1.19-1.32,2.46-2.54,4-3.45c0.44-0.26,0.93-0.43,1.41-0.61
			c0.27-0.1,0.45-0.02,0.51,0.32c0.13,0.73,0.58,1.17,1.3,1.29c0.34,0.06,0.41,0.24,0.32,0.51c-0.12,0.37-0.24,0.74-0.43,1.07
			c-1.88,3.18-4.64,5.44-7.78,7.36C78.39,77.34,77.65,76.57,76.67,75.98z"/>
		<path class="st1" d="M74.94,75.14c-1.12,0-2.17,0-3.29,0c0.02,0.04-0.02-0.01-0.04-0.07c-0.87-3.35-1.13-6.73-0.39-10.14
			c0.11-0.48,0.33-0.95,0.53-1.4c0.13-0.28,0.31-0.39,0.64-0.16c0.58,0.41,1.22,0.41,1.81,0c0.32-0.23,0.49-0.12,0.64,0.16
			c0.45,0.79,0.64,1.66,0.76,2.54c0.4,3,0.19,5.97-0.59,8.9C74.99,75.04,74.95,75.12,74.94,75.14z"/>
		<path class="st1" d="M79.02,84.98c0.93,0.64,1.87,1.23,2.74,1.91c1.87,1.45,3.57,3.08,4.82,5.13c0.26,0.43,0.43,0.93,0.62,1.41
			c0.11,0.28,0.03,0.47-0.33,0.54c-0.71,0.12-1.15,0.57-1.27,1.28c-0.06,0.33-0.22,0.43-0.5,0.33c-0.38-0.12-0.76-0.24-1.11-0.43
			c-1.84-1.01-3.33-2.44-4.65-4.03c-0.87-1.05-1.61-2.2-2.4-3.31c-0.1-0.13-0.16-0.29-0.25-0.45
			C77.64,86.75,78.39,85.99,79.02,84.98z"/>
		<path class="st1" d="M66.78,83.35c-0.62,0.13-1.32,0.31-2.02,0.43c-2.61,0.44-5.23,0.57-7.84,0.02c-0.61-0.13-1.19-0.4-1.77-0.64
			c-0.28-0.12-0.34-0.31-0.13-0.61c0.4-0.57,0.4-1.2,0-1.77c-0.24-0.34-0.11-0.5,0.17-0.66c0.8-0.45,1.68-0.65,2.58-0.76
			c2.96-0.37,5.89-0.18,8.78,0.59c0.1,0.03,0.19,0.06,0.24,0.07C66.78,81.11,66.78,82.18,66.78,83.35z"/>
		<path class="st1" d="M79.82,83.33c0-1.15,0-2.19,0-3.34c0.45-0.11,1.01-0.27,1.57-0.38c2.6-0.49,5.22-0.65,7.84-0.19
			c0.74,0.13,1.45,0.43,2.15,0.69c0.32,0.12,0.42,0.33,0.18,0.69c-0.39,0.58-0.36,1.2,0.04,1.77c0.18,0.26,0.12,0.41-0.11,0.56
			c-0.67,0.45-1.44,0.62-2.21,0.75c-2.62,0.44-5.24,0.3-7.84-0.19C80.87,83.59,80.31,83.44,79.82,83.33z"/>
	</g>
</g>
</svg>
