<?xml version="1.0" encoding="utf-8"?>
<!-- Generator: Adobe Illustrator 25.2.3, SVG Export Plug-In . SVG Version: 6.00 Build 0)  -->
<svg version="1.1" id="Layer_1" xmlns="http://www.w3.org/2000/svg" xmlns:xlink="http://www.w3.org/1999/xlink" x="0px" y="0px"
	 viewBox="0 0 63.11 60.43" style="enable-background:new 0 0 63.11 60.43;" xml:space="preserve">
<g>
	<path fill="#006E73" d="M23.68,36.75c-4.23,0.01-8.44-0.3-12.6-1.07c-2.87-0.53-5.68-1.27-8.27-2.63c-0.78-0.41-1.53-0.94-2.16-1.55
		c-0.89-0.85-0.84-1.72,0-2.63c0.76-0.83,1.74-1.35,2.74-1.81c2.77-1.3,5.71-2.01,8.71-2.5c6.75-1.11,13.53-1.18,20.32-0.4
		c3.71,0.42,7.38,1.13,10.84,2.61c0.9,0.38,1.74,0.9,2.58,1.4c0.34,0.2,0.63,0.5,0.9,0.8c0.77,0.87,0.81,1.78-0.07,2.55
		c-0.81,0.7-1.72,1.33-2.68,1.8c-2.61,1.3-5.43,1.95-8.28,2.46C31.74,36.48,27.72,36.77,23.68,36.75z"/>
	<path fill="#006E73" d="M39.51,13.09c-5.38-0.01-10.71-0.44-15.93-1.83c-2-0.53-3.96-1.18-5.73-2.29c-0.53-0.33-1.03-0.73-1.46-1.18
		c-0.79-0.83-0.8-1.7,0.01-2.51c0.57-0.56,1.23-1.05,1.92-1.44c2.3-1.29,4.82-1.98,7.37-2.53c4.96-1.06,9.99-1.38,15.05-1.3
		c4.8,0.07,9.55,0.52,14.21,1.72c1.89,0.48,3.75,1.06,5.45,2.02c0.74,0.42,1.46,0.92,2.06,1.51c0.87,0.84,0.87,1.75-0.01,2.57
		c-0.69,0.65-1.5,1.21-2.35,1.65c-2.52,1.31-5.27,1.99-8.04,2.52C47.91,12.8,43.72,13.09,39.51,13.09z"/>
	<path fill="#006E73" d="M15.8,10.82c4.77,2.91,10.03,3.86,15.37,4.48c6.37,0.74,12.73,0.63,19.07-0.32c3.72-0.56,7.37-1.37,10.78-3.02
		c0.67-0.33,1.31-0.72,2.04-1.13c0,0.92-0.08,1.81,0.02,2.68c0.16,1.44-0.52,2.36-1.64,3.1c-2.01,1.32-4.25,2.06-6.54,2.65
		c-5.33,1.36-10.77,1.76-16.26,1.72c-4.94-0.04-9.83-0.49-14.63-1.7c-1.96-0.5-3.87-1.12-5.65-2.09c-0.4-0.22-0.78-0.47-1.15-0.73
		c-0.97-0.67-1.55-1.51-1.43-2.78C15.88,12.75,15.8,11.82,15.8,10.82z"/>
	<path fill="#006E73" d="M0.06,34.56c1.06,0.53,2.05,1.09,3.09,1.53c3.34,1.43,6.87,2.15,10.45,2.65c5.05,0.71,10.12,0.86,15.2,0.51
		c4.96-0.35,9.86-1.03,14.54-2.82c1.28-0.49,2.47-1.22,3.71-1.84c0.06-0.03,0.12-0.06,0.22-0.1c0,1.33,0.05,2.62-0.03,3.91
		c-0.03,0.4-0.36,0.88-0.69,1.13c-0.97,0.7-1.97,1.41-3.05,1.91c-2.89,1.32-5.97,1.98-9.1,2.45c-6.41,0.96-12.85,1.01-19.28,0.29
		c-3.85-0.43-7.66-1.14-11.24-2.72C2.86,41,1.92,40.36,1,39.73c-0.72-0.49-1.04-1.23-0.98-2.14c0.05-0.84,0.01-1.68,0.01-2.52
		C0.03,34.9,0.05,34.74,0.06,34.56z"/>
	<path fill="#006E73" d="M0.03,42.38c4.23,2.62,8.85,3.57,13.55,4.25c4.29,0.62,8.62,0.8,12.95,0.63c5.28-0.21,10.51-0.84,15.57-2.47
		c1.72-0.55,3.38-1.25,4.9-2.25c0.07-0.05,0.15-0.08,0.28-0.14c0,1.33,0.09,2.61-0.05,3.86c-0.06,0.51-0.55,1.04-0.97,1.43
		c-1.09,0.99-2.44,1.57-3.8,2.08c-3.35,1.26-6.84,1.91-10.38,2.31c-4.92,0.56-9.86,0.61-14.8,0.2c-4.5-0.38-8.95-1.06-13.14-2.83
		c-1.08-0.46-2.09-1.12-3.08-1.78c-0.76-0.5-1.09-1.27-1.04-2.22C0.07,44.45,0.03,43.46,0.03,42.38z"/>
	<path fill="#006E73" d="M0.03,50.43c1.6,0.71,3.13,1.48,4.73,2.07c3.34,1.22,6.83,1.81,10.35,2.22c3.73,0.44,7.48,0.58,11.23,0.43
		c5.5-0.21,10.94-0.83,16.17-2.64c1.63-0.56,3.17-1.36,4.76-2.06c0,0,0.03,0.12,0.03,0.25c0,0.91-0.04,1.82,0.02,2.73
		c0.05,0.85-0.26,1.55-0.92,2.01c-0.93,0.65-1.88,1.29-2.91,1.76c-2.64,1.22-5.47,1.85-8.32,2.32c-6.35,1.04-12.73,1.14-19.12,0.51
		c-4.09-0.4-8.13-1.09-11.93-2.73c-1.11-0.48-2.14-1.18-3.15-1.86C0.27,55-0.02,54.28,0.02,53.41C0.06,52.39,0.03,51.38,0.03,50.43z
		"/>
	<path fill="#006E73" d="M63.05,18.78c0,1.27,0.07,2.53-0.04,3.77c-0.04,0.44-0.41,0.97-0.78,1.25c-0.88,0.66-1.8,1.29-2.79,1.75
		c-3.1,1.42-6.41,2.09-9.76,2.59c-0.12,0.02-0.32-0.05-0.39-0.14c-1.09-1.62-2.7-2.57-4.41-3.37c-0.75-0.35-1.53-0.65-2.36-1
		C49.66,23.1,56.69,22.46,63.05,18.78z"/>
	<path fill="#006E73" d="M49.96,35.95c0-0.65,0-1.3,0-1.94c0-0.91,0.03-1.82,0.01-2.73c-0.01-0.37,0.09-0.5,0.48-0.56
		c3.13-0.48,6.23-1.11,9.17-2.32c1.16-0.47,2.26-1.09,3.42-1.66c0.01,0.1,0.02,0.26,0.02,0.42c0,0.88-0.04,1.75,0.01,2.62
		c0.05,0.81-0.27,1.42-0.85,1.94c-1.08,0.97-2.37,1.59-3.71,2.13c-2.68,1.07-5.49,1.61-8.32,2.1
		C50.16,35.96,50.11,35.95,49.96,35.95z"/>
	<path fill="#006E73" d="M63.06,34.62c0,1.2,0.06,2.43-0.03,3.64c-0.03,0.43-0.36,0.96-0.71,1.23c-0.85,0.66-1.75,1.29-2.72,1.75
		c-2.83,1.35-5.88,2-8.96,2.52c-0.17,0.03-0.34,0.05-0.59,0.09c-0.02-0.14-0.06-0.28-0.06-0.41c-0.01-1.44,0.01-2.87-0.01-4.31
		c0-0.36,0.14-0.46,0.48-0.52c3.19-0.49,6.34-1.13,9.33-2.39C60.88,35.77,61.94,35.18,63.06,34.62z"/>
	<path fill="#006E73" d="M20.5,21.03c-1.5,0.11-3.06,0.22-4.66,0.34c0-0.88,0-1.72,0-2.52C17.42,19.59,18.98,20.32,20.5,21.03z"/>
</g>
</svg>
