<?xml version="1.0" encoding="utf-8"?>
<!-- Generator: Adobe Illustrator 23.0.1, SVG Export Plug-In . SVG Version: 6.00 Build 0)  -->
<svg version="1.1" id="Layer_1" xmlns="http://www.w3.org/2000/svg" xmlns:xlink="http://www.w3.org/1999/xlink" x="0px" y="0px"
	 viewBox="0 0 864 1022" style="enable-background:new 0 0 864 1022;" xml:space="preserve">
<style type="text/css">
	.st0{fill:#626262;}
</style>
<path class="st0" d="M65,0C53.7,0,43.3,2.7,34,8C12,20.7,1,39.3,1,64L0,958c0,24.7,11,43.3,33,56c4.7,2.7,9.7,4.7,15,6s10.7,2,16,2
	c6,0,11.8-0.8,17.5-2.5s10.8-4.2,15.5-7.5l737-447c20-12,30-30,30-54c0-7.3-1.2-14.5-3.5-21.5s-5.8-13.3-10.5-19s-10-10.2-16-13.5
	L98,10c-3.3-2-6.8-3.7-10.5-5s-7.3-2.5-11-3.5S69,0,65,0z"/>
</svg>
