<?xml version="1.0" encoding="utf-8"?>
<!-- Generator: Adobe Illustrator 25.2.3, SVG Export Plug-In . SVG Version: 6.00 Build 0)  -->
<svg version="1.1" id="Layer_1" xmlns="http://www.w3.org/2000/svg" xmlns:xlink="http://www.w3.org/1999/xlink" x="0px" y="0px"
	 viewBox="0 0 112.67 79.91" style="enable-background:new 0 0 112.67 79.91;" xml:space="preserve">
<style type="text/css">
	.st0{fill:#006E73;}
	.st1{fill:#FFFFFF;}
	.st2{fill:#D51342;}
</style>
<g>
	<path class="st0" d="M59.45,80.17c0.54,0,1.01,0,1.48,0c15.91,0,31.83,0,47.74-0.01c0.67,0,1.37-0.03,1.99-0.25
		c1.39-0.48,2.19-1.93,1.97-3.35c-0.22-1.42-1.31-2.45-2.76-2.59c-0.63-0.06-1.26-0.07-1.96-0.1c0-22.51,0-44.94,0-67.46
		c0.68-0.05,1.35-0.06,2.01-0.17c1.69-0.27,2.75-1.5,2.73-3.11c-0.02-1.59-1.14-2.84-2.79-3.08C109.49,0,109.11,0,108.73,0
		C73.81,0,38.9,0,3.98,0C3.75,0,3.52,0,3.3,0.01C1.41,0.09,0.05,1.38,0,3.1c-0.04,1.71,1.27,3.06,3.17,3.22
		c0.52,0.04,1.04,0.01,1.62,0.01c0,22.57,0,45,0,67.54c-0.68,0.03-1.31,0.05-1.93,0.1C1.2,74.12-0.03,75.48,0,77.1
		c0.03,1.56,1.27,2.9,2.84,3.05c0.45,0.04,0.9,0.02,1.36,0.02c15.8,0,31.6,0,47.4,0c0.48,0,0.97,0,1.61,0H59.45z M11.09,6.43
		c30.29,0,60.46,0,90.62,0c0,22.53,0,44.95,0,67.39c-30.26,0-60.43,0-90.62,0C11.09,51.31,11.09,28.91,11.09,6.43z"/>
	<path class="st1" d="M11.09,6.43c0,22.48,0,44.88,0,67.39c30.2,0,60.37,0,90.62,0c0-22.44,0-44.86,0-67.39
		C71.55,6.43,41.38,6.43,11.09,6.43z M80.9,26.56c-0.37,0.03-0.55,0.03-0.73,0.07c-7.9,1.99-15.41,4.95-22.35,9.29
		c-11.08,6.92-19.95,15.93-25.58,27.97c-0.18,0.37-0.42,0.73-0.68,1.05c-0.84,1-1.96,1.28-3.17,1c-1.18-0.27-1.9-1.19-2.03-2.34
		c-0.09-0.78,0.09-1.69,0.43-2.4c4.39-9.36,10.78-17.14,18.6-23.75c9.47-8,20.31-13.28,32.21-16.4c0.42-0.11,0.82-0.27,1.43-0.47
		c-2.16-1.29-4.15-2.45-6.1-3.65c-1.56-0.96-1.95-2.67-1.02-4.25c0.89-1.51,2.57-2,4.1-1.07c4.36,2.65,8.7,5.33,13.01,8.05
		c1.38,0.87,1.83,2.59,1,3.99c-2.65,4.48-5.34,8.94-8.08,13.36c-0.91,1.46-2.57,1.7-4.07,0.77c-1.39-0.86-1.85-2.47-1.06-3.98
		c0.56-1.08,1.2-2.11,1.8-3.17C79.34,29.31,80.08,28,80.9,26.56z M63.33,41.63c6.52,0,11.56,5.06,11.56,11.61
		c0,6.45-5.25,11.8-11.54,11.74c-6.39-0.06-11.57-5.33-11.54-11.76C51.84,46.78,56.96,41.63,63.33,41.63z M32.53,30.51
		c-0.11,0.23-0.16,0.3-0.16,0.36c-0.01,1.37-0.01,2.74-0.04,4.12c-0.03,1.95-1.23,3.26-3,3.3c-1.78,0.04-3.06-1.21-3.14-3.16
		c-0.05-1.22-0.05-2.44-0.01-3.66c0.03-0.77-0.27-1-0.99-0.97c-1.28,0.04-2.56,0.05-3.84-0.01c-1.62-0.07-2.79-1.34-2.83-2.98
		c-0.04-1.85,1.28-3.18,3.21-3.22c1.45-0.03,2.9-0.01,4.44-0.01c0-1.59-0.03-3,0.01-4.4c0.06-2.01,1.34-3.39,3.08-3.38
		c1.79,0.01,3.05,1.45,3.07,3.51c0.01,1.4,0,2.79,0,4.27c1.51,0,2.86-0.01,4.21,0c2.04,0.01,3.45,1.29,3.47,3.11
		c0.02,1.87-1.32,3.1-3.41,3.11C35.22,30.51,33.84,30.51,32.53,30.51z"/>
	<path class="st0" d="M80.9,26.56c-0.82,1.45-1.56,2.76-2.3,4.07c-0.6,1.06-1.24,2.09-1.8,3.17c-0.79,1.51-0.33,3.12,1.06,3.98
		c1.5,0.92,3.17,0.69,4.07-0.77c2.74-4.42,5.43-8.88,8.08-13.36c0.83-1.41,0.39-3.12-1-3.99c-4.32-2.72-8.65-5.4-13.01-8.05
		c-1.53-0.93-3.21-0.44-4.1,1.07c-0.93,1.58-0.54,3.28,1.02,4.25c1.96,1.2,3.94,2.36,6.1,3.65c-0.61,0.2-1.02,0.36-1.43,0.47
		c-11.9,3.13-22.74,8.41-32.21,16.4c-7.82,6.6-14.21,14.39-18.6,23.75c-0.34,0.72-0.51,1.62-0.43,2.4c0.13,1.15,0.84,2.07,2.03,2.34
		c1.21,0.28,2.33,0,3.17-1c0.27-0.32,0.51-0.67,0.68-1.05c5.63-12.04,14.5-21.06,25.58-27.97c6.94-4.33,14.45-7.3,22.35-9.29
		C80.35,26.58,80.53,26.59,80.9,26.56z"/>
	<path class="st2" d="M63.33,41.63c-6.37,0-11.5,5.16-11.52,11.6c-0.02,6.42,5.15,11.69,11.54,11.76
		c6.29,0.06,11.54-5.29,11.54-11.74C74.89,46.68,69.85,41.62,63.33,41.63z M68.87,53.26c0,2.96-2.32,5.36-5.18,5.39
		c-2.93,0.02-5.51-2.48-5.52-5.38c-0.02-2.99,2.43-5.44,5.43-5.42C66.55,47.87,68.88,50.26,68.87,53.26z"/>
	<path class="st2" d="M32.53,30.51c1.31,0,2.69,0.01,4.07,0c2.09-0.01,3.43-1.24,3.41-3.11c-0.02-1.82-1.43-3.09-3.47-3.11
		c-1.35-0.01-2.7,0-4.21,0c0-1.48,0.01-2.87,0-4.27c-0.01-2.06-1.28-3.51-3.07-3.51c-1.75-0.01-3.03,1.37-3.08,3.38
		c-0.04,1.4-0.01,2.81-0.01,4.4c-1.54,0-2.99-0.02-4.44,0.01c-1.93,0.03-3.25,1.37-3.21,3.22c0.04,1.64,1.2,2.91,2.83,2.98
		c1.28,0.06,2.56,0.05,3.84,0.01c0.72-0.02,1.02,0.21,0.99,0.97c-0.04,1.22-0.04,2.44,0.01,3.66c0.08,1.94,1.35,3.2,3.14,3.16
		c1.77-0.04,2.97-1.35,3-3.3c0.02-1.37,0.02-2.74,0.04-4.12C32.37,30.8,32.42,30.74,32.53,30.51z"/>
	<path class="st1" d="M68.87,53.26c0-3.01-2.33-5.39-5.28-5.41c-2.99-0.02-5.44,2.43-5.43,5.42c0.02,2.9,2.59,5.4,5.52,5.38
		C66.55,58.63,68.87,56.22,68.87,53.26z"/>
</g>
</svg>
