<?xml version="1.0" encoding="utf-8"?>
<!-- Generator: Adobe Illustrator 25.4.1, SVG Export Plug-In . SVG Version: 6.00 Build 0)  -->
<svg version="1.1" id="Layer_1" xmlns="http://www.w3.org/2000/svg" xmlns:xlink="http://www.w3.org/1999/xlink" x="0px" y="0px"
	 viewBox="0 0 82.3 88.7" style="enable-background:new 0 0 82.3 88.7;" xml:space="preserve">
<g>
	<g>
		<path fill="#ffffff" d="M69.6,18.4h-1.8V2.1c0-1.2-0.9-2.1-2.1-2.1H16.6c-1.2,0-2.1,0.9-2.1,2.1v16.2h-1.8C5.7,18.4,0,24.1,0,31.1
			v26.2C0,64.3,5.7,70,12.7,70h1.8v16.5c0,1.2,0.9,2.1,2.1,2.1h49.1c1.2,0,2.1-0.9,2.1-2.1V70h1.8c7,0,12.7-5.7,12.7-12.7V31.1
			C82.3,24.1,76.6,18.4,69.6,18.4z M18.7,4.2h44.8v14.1H18.7V4.2z M63.6,84.4H18.7V58.3h44.8V84.4z M78.1,57.3
			c0,4.7-3.8,8.5-8.5,8.5h-1.8v-7.5h4.6c1.2,0,2.1-0.9,2.1-2.1c0-1.2-0.9-2.1-2.1-2.1h-6.7H16.6h-6.1c-1.2,0-2.1,0.9-2.1,2.1
			c0,1.2,0.9,2.1,2.1,2.1h4v7.5h-1.8c-4.7,0-8.5-3.8-8.5-8.5V31.1c0-4.7,3.8-8.5,8.5-8.5h3.9h49.1h3.9c4.7,0,8.5,3.8,8.5,8.5
			L78.1,57.3L78.1,57.3L78.1,57.3z"/>
		<path fill="#ffffff" d="M65.7,31c-1.6,0-2.9,1.3-2.9,2.9c0,1.6,1.3,2.9,2.9,2.9c1.6,0,2.9-1.3,2.9-2.9C68.6,32.3,67.3,31,65.7,31z"/>
		<path fill="#ffffff" d="M23.7,65.6h35c1.2,0,2.1-0.9,2.1-2.1c0-1.2-0.9-2.1-2.1-2.1h-35c-1.2,0-2.1,0.9-2.1,2.1
			C21.6,64.7,22.5,65.6,23.7,65.6z"/>
		<path fill="#ffffff" d="M23.7,73.5h35c1.2,0,2.1-0.9,2.1-2.1c0-1.2-0.9-2.1-2.1-2.1h-35c-1.2,0-2.1,0.9-2.1,2.1
			C21.6,72.5,22.5,73.5,23.7,73.5z"/>
	</g>
</g>
</svg>
