<svg xmlns="http://www.w3.org/2000/svg" width="25" height="20" viewBox="0 0 25 20">
  <path fill="#C8C8C8" d="M6.66503906,9 L11.6455078,11.8930664 C9.54588794,15.2133955 8.45947302,18.5825024 8.38623047,22.0004883 L8.38623047,28.1162109 L0,28.1162109 L0,22.6230469 C0,20.3281135 0.640862732,17.8806282 1.92260742,15.2805176 C3.20435211,12.6804069 4.78514685,10.586922 6.66503906,9 Z M19.2260742,9 L24.206543,11.8930664 C22.1069231,15.2133955 21.0205082,18.5825024 20.9472656,22.0004883 L20.9472656,28.1162109 L12.5610352,28.1162109 L12.5610352,22.6230469 C12.5610352,20.3281135 13.2018979,17.8806282 14.4836426,15.2805176 C15.7653873,12.6804069 17.346182,10.586922 19.2260742,9 Z" transform="translate(0 -9)"/>
</svg>
