<?xml version="1.0" encoding="utf-8"?>
<!-- Generator: Adobe Illustrator 23.0.1, SVG Export Plug-In . SVG Version: 6.00 Build 0)  -->
<svg version="1.1" id="Layer_1" xmlns="http://www.w3.org/2000/svg" xmlns:xlink="http://www.w3.org/1999/xlink" x="0px" y="0px"
	 viewBox="0 0 1027 1024" style="enable-background:new 0 0 1027 1024;" xml:space="preserve">
<style type="text/css">
	.st0{fill:#626262;}
</style>
<path class="st0" d="M1018,969L707,656c62-74,93-159.3,93-256c0-72.7-17.8-139.7-53.5-201s-84.3-109.8-146-145.5S471.8,0,399.5,0
	S260.3,17.8,199,53.5S89.2,137.7,53.5,199S0,327.3,0,400s17.8,139.7,53.5,201S137.7,710.8,199,746.5S327.3,800,400,800
	c99.3,0,186.7-32.7,262-98l310,312c6.7,6.7,14.3,10,23,10s16.2-3.2,22.5-9.5s9.5-14,9.5-23S1024,975,1018,969z M400,737
	c-61.3,0-117.8-15.2-169.5-45.5S138,620.2,108,568.5S63,460.7,63,400s15-116.8,45-168.5s70.8-92.7,122.5-123s108-45.5,169-45.5
	s117.3,15.2,169,45.5s92.5,71.3,122.5,123s45,107.8,45,168.5c0,26-3,51.7-9,77s-14.5,49-25.5,71s-24.2,42.8-39.5,62.5
	s-32.7,37.2-52,52.5s-40,28.5-62,39.5S502.3,722,477,728C451.7,734,426,737,400,737z"/>
</svg>
