<?xml version="1.0" encoding="utf-8"?>
<!-- Generator: Adobe Illustrator 25.2.3, SVG Export Plug-In . SVG Version: 6.00 Build 0)  -->
<svg version="1.1" id="Layer_1" xmlns="http://www.w3.org/2000/svg" xmlns:xlink="http://www.w3.org/1999/xlink" x="0px" y="0px"
	 viewBox="0 0 80.42 81.08" style="enable-background:new 0 0 80.42 81.08;" xml:space="preserve">
<g>
	<g>
		<path fill="none" d="M47.37,21.43c0.15,0.1,0.3,0.21,0.43,0.34C47.67,21.64,47.53,21.53,47.37,21.43z"/>
		<path fill="none" d="M25.32,13.23c0,0.91-0.14,1.8-0.4,2.62C25.18,15.03,25.32,14.15,25.32,13.23z"/>
		<path fill="none" d="M44.83,21.23c0.07-0.03,0.14-0.04,0.21-0.07C44.97,21.18,44.9,21.2,44.83,21.23z"/>
		<path fill="none" d="M46.39,21.05c0.1,0.02,0.2,0.05,0.3,0.08C46.59,21.11,46.49,21.07,46.39,21.05z"/>
		<path fill="none" d="M45.34,21.07c0.07-0.02,0.15-0.02,0.23-0.03C45.49,21.05,45.42,21.05,45.34,21.07z"/>
		<path fill="none" d="M45.9,21.01c-0.01,0-0.02,0-0.03,0c0.1,0,0.2,0.01,0.29,0.02C46.08,21.02,45.99,21.01,45.9,21.01z"/>
		<path fill="none" d="M16.49,22.06c-3.66,0-6.79-2.22-8.13-5.39C9.7,19.84,12.84,22.06,16.49,22.06c1.94,0,3.72-0.63,5.18-1.69v0
			C20.21,21.43,18.43,22.06,16.49,22.06z"/>
		<path fill="none" d="M24.16,17.6c0.17-0.3,0.33-0.61,0.47-0.93C24.49,16.99,24.33,17.3,24.16,17.6L24.16,17.6z"/>
		<path fill="none" d="M46.9,21.19c0.11,0.04,0.21,0.1,0.32,0.16C47.11,21.3,47,21.24,46.9,21.19z"/>

			<rect x="33.99" y="31.7" transform="matrix(0.6916 -0.7222 0.7222 0.6916 -9.9145 40.185)"  fill="none" width="16.23" height="0"/>
		<path fill="none" d="M44.35,21.49c0.05-0.04,0.11-0.06,0.16-0.09C44.46,21.43,44.4,21.46,44.35,21.49z"/>
		<path fill="none" d="M34.52,10.22h33.43c0.69,0,1.24,0.56,1.24,1.24c0,0.69-0.56,1.24-1.24,1.24H34.52
			c-0.69,0-1.24-0.56-1.24-1.24C33.28,10.78,33.84,10.22,34.52,10.22z M34.52,16.79h33.43c0.69,0,1.24,0.56,1.24,1.24
			s-0.56,1.24-1.24,1.24H34.52c-0.69,0-1.24-0.56-1.24-1.24S33.84,16.79,34.52,16.79z"/>
		<path fill="#D51342" d="M24.16,17.6L24.16,17.6c-0.62,1.09-1.48,2.04-2.49,2.77v0C22.68,19.63,23.53,18.69,24.16,17.6z"/>
		<path fill="#D51342" d="M75.59,0H26.5c-2.58,0-4.7,2.06-4.82,4.62c0.94,0.57,1.77,1.27,2.48,2.1V4.83c0-1.29,1.05-2.34,2.34-2.34
			h49.09c1.29,0,2.34,1.05,2.34,2.34v30.4c0,1.29-1.05,2.34-2.34,2.34H38.21l-2.38,2.49h39.76c2.66,0,4.83-2.17,4.83-4.83V4.83
			C80.42,2.17,78.25,0,75.59,0z"/>
		<path fill="#D51342" d="M34.74,39.4c-0.24,0.25-0.52,0.44-0.81,0.58C34.22,39.84,34.5,39.65,34.74,39.4l1.76-1.83l0,0L34.74,39.4z"/>
		<path fill="#D51342" d="M34.52,19.28h33.43c0.69,0,1.24-0.56,1.24-1.24s-0.56-1.24-1.24-1.24H34.52c-0.69,0-1.24,0.56-1.24,1.24
			S33.84,19.28,34.52,19.28z"/>
		<polygon  fill="#D51342" points="47.72,25.84 47.72,25.84 47.89,25.66 		"/>
		<path fill="#D51342" d="M34.52,23.35c-0.69,0-1.24,0.56-1.24,1.24s0.56,1.24,1.24,1.24h3.85l2.38-2.49H34.52z"/>
		<path fill="#D51342" d="M49.31,25.84h9.6c0.69,0,1.24-0.56,1.24-1.24s-0.56-1.24-1.24-1.24h-9.04
			C49.96,24.21,49.77,25.08,49.31,25.84z"/>
		<path fill="#D51342" d="M34.52,12.71h33.43c0.69,0,1.24-0.56,1.24-1.24c0-0.69-0.56-1.24-1.24-1.24H34.52
			c-0.69,0-1.24,0.56-1.24,1.24C33.28,12.16,33.84,12.71,34.52,12.71z"/>
		<path fill="#006E73" d="M24.16,8.87c-0.62-1.09-1.48-2.04-2.49-2.77c-1.46-1.06-3.24-1.69-5.18-1.69c-4.87,0-8.83,3.95-8.83,8.83
			c0,0.91,0.14,1.8,0.4,2.62c0.09,0.28,0.19,0.55,0.3,0.81c1.34,3.17,4.48,5.39,8.13,5.39c1.94,0,3.72-0.63,5.18-1.69
			c1.01-0.74,1.86-1.68,2.49-2.77c0.17-0.3,0.33-0.61,0.47-0.93c0.11-0.26,0.21-0.53,0.3-0.81c0.26-0.83,0.4-1.71,0.4-2.62
			C25.32,11.64,24.89,10.16,24.16,8.87z"/>
		<path fill="#FFFFFF" d="M3.77,29.76c0.34-0.41,0.69-0.8,1.06-1.17C4.46,28.96,4.1,29.35,3.77,29.76z"/>
		<path fill="#FFFFFF" d="M5.4,28.04c0.39-0.35,0.8-0.69,1.22-1.01C6.2,27.35,5.79,27.69,5.4,28.04z"/>
		<path fill="#FFFFFF" d="M21.67,24.6c-0.15-0.05-0.3-0.11-0.46-0.15C21.37,24.49,21.51,24.55,21.67,24.6L21.67,24.6z"/>
		<path fill="#FFFFFF" d="M32.98,40.25c0-0.01,0-0.02,0-0.03C32.98,40.23,32.98,40.24,32.98,40.25L32.98,40.25z"/>
		<path fill="#FFFFFF" d="M24.41,25.79c0.67,0.37,1.31,0.78,1.92,1.24C25.72,26.57,25.08,26.16,24.41,25.79z"/>
		<path fill="#FFFFFF" d="M43.92,21.86c0.13-0.14,0.28-0.26,0.43-0.37C44.19,21.6,44.05,21.72,43.92,21.86z"/>
		<path fill="#FFFFFF" d="M45.04,21.16c0.1-0.03,0.2-0.07,0.31-0.09C45.24,21.09,45.14,21.13,45.04,21.16z"/>
		<path fill="#FFFFFF" d="M44.51,21.4c0.1-0.06,0.21-0.13,0.32-0.17C44.72,21.27,44.61,21.34,44.51,21.4z"/>
		<path fill="#FFFFFF" d="M28.06,28.52c0.54,0.53,1.04,1.11,1.51,1.71C29.1,29.62,28.6,29.05,28.06,28.52z"/>
		<path fill="#FFFFFF" d="M26.33,27.03c0.61,0.46,1.19,0.95,1.73,1.49C27.52,27.98,26.94,27.48,26.33,27.03z"/>
		<path fill="#FFFFFF" d="M46.17,21.03c0.07,0.01,0.15,0.01,0.22,0.02C46.32,21.04,46.24,21.04,46.17,21.03z"/>
		<path fill="#FFFFFF" d="M46.69,21.14c0.07,0.02,0.14,0.03,0.2,0.06C46.83,21.17,46.76,21.16,46.69,21.14z"/>
		<path fill="#FFFFFF" d="M45.57,21.04c0.1-0.01,0.2-0.03,0.3-0.03C45.77,21.01,45.67,21.03,45.57,21.04z"/>
		<path fill="#FFFFFF" d="M47.21,21.35c0.05,0.03,0.11,0.05,0.16,0.08C47.32,21.4,47.26,21.38,47.21,21.35z"/>
		<path fill="#FFFFFF" d="M23.38,25.27c-0.55-0.26-1.13-0.47-1.71-0.67l0,0C22.25,24.8,22.83,25.01,23.38,25.27z"/>
	</g>
	<path fill="#006E73" d="M48.61,23.35c-0.09-0.58-0.35-1.14-0.81-1.58c-0.14-0.13-0.28-0.24-0.43-0.34c-0.05-0.03-0.11-0.05-0.16-0.08
		c-0.1-0.06-0.21-0.12-0.32-0.16c-0.07-0.03-0.14-0.04-0.2-0.06c-0.1-0.03-0.2-0.06-0.3-0.08c-0.07-0.01-0.15-0.01-0.22-0.02
		c-0.1-0.01-0.2-0.02-0.29-0.02c-0.1,0-0.2,0.02-0.3,0.03c-0.08,0.01-0.15,0.01-0.23,0.03c-0.1,0.02-0.2,0.06-0.31,0.09
		c-0.07,0.02-0.14,0.04-0.21,0.07c-0.11,0.05-0.21,0.11-0.32,0.17c-0.05,0.03-0.11,0.05-0.16,0.09c-0.15,0.11-0.3,0.23-0.43,0.37
		l-1.43,1.5l-2.38,2.49l-7.7,8.04l-0.82-1.04c-0.92-1.23-1.32-1.71-2.01-2.61c-0.46-0.6-0.97-1.18-1.51-1.71
		c-0.54-0.53-1.12-1.03-1.73-1.49c-0.61-0.46-1.25-0.87-1.92-1.24c-0.08-0.05-0.17-0.08-0.25-0.13c-0.26-0.14-0.51-0.27-0.78-0.39
		c-0.55-0.26-1.13-0.47-1.71-0.67c-0.15-0.05-0.3-0.11-0.46-0.15c-1.49-0.45-3.08-0.69-4.72-0.69c-3.7,0-7.12,1.22-9.87,3.28
		c-0.42,0.32-0.83,0.65-1.22,1.01c-0.2,0.18-0.39,0.36-0.57,0.55c-0.37,0.37-0.73,0.76-1.06,1.17c-0.17,0.2-0.33,0.41-0.49,0.62
		c-0.47,0.63-0.91,1.31-1.29,2.01c-0.38,0.7-0.71,1.43-0.99,2.19c-0.28,0.76-0.5,1.54-0.67,2.35C0.12,38,0,39.11,0,40.25v0h0.01
		c0,0,0,0,0,0c0,0,0.33,16.11,0.34,16.15c0.02,0.37,0,1.64,0.56,2.49c0.44,0.58,1.09,0.94,1.95,1.05c0.19,0.03,0.38,0.04,0.56,0.04
		c1.43,0,2.1-0.81,2.42-1.5c0.08-0.17,0.14-0.35,0.19-0.51l3.9,22.97c0.01,0.07,0.08,0.13,0.15,0.13h12.45
		c0.07,0,0.14-0.05,0.15-0.12l8.93-40.71h1.38v0c0-0.01,0-0.02,0-0.03c0.25-0.02,0.49-0.08,0.73-0.17c0.07-0.03,0.15-0.04,0.22-0.08
		c0.3-0.14,0.57-0.33,0.81-0.58l1.76-1.83l11.23-11.72l0.17-0.18C48.5,25.02,48.73,24.17,48.61,23.35z M6.01,57.02L6.01,57.02
		l4.06,23.91L6.01,57.02z"/>
</g>
</svg>
