<?xml version="1.0" encoding="utf-8"?>
<!-- Generator: Adobe Illustrator 25.2.3, SVG Export Plug-In . SVG Version: 6.00 Build 0)  -->
<svg version="1.1" id="Layer_1" xmlns="http://www.w3.org/2000/svg" xmlns:xlink="http://www.w3.org/1999/xlink" x="0px" y="0px"
	 viewBox="0 0 95.74 88.31" style="enable-background:new 0 0 95.74 88.31;" xml:space="preserve">
<g>
	<g>
		<path fill="#006E73" d="M63.51,86.99H9.62C4.32,86.99,0,82.68,0,77.37V9.62C0,4.32,4.32,0,9.62,0h53.89c5.31,0,9.62,4.32,9.62,9.62
			v67.75C73.13,82.68,68.82,86.99,63.51,86.99L63.51,86.99z M9.62,3.85c-3.18,0-5.77,2.59-5.77,5.77v67.75
			c0,3.18,2.59,5.77,5.77,5.77h53.89c3.18,0,5.77-2.59,5.77-5.77V9.62c0-3.18-2.59-5.77-5.77-5.77H9.62L9.62,3.85z"/>
	</g>
	<g>
		<path fill="#D51342" d="M95.11,26.61l-2.59-2.46c-0.94-0.89-2.59-0.4-3.67,1.08L75.59,43.42l6.01,5.69l13.25-18.19
			C95.93,29.44,96.04,27.5,95.11,26.61z"/>
		<path fill="#D51342" d="M63.34,70.29l-2.59-2.46c-0.94-0.89,13.48-22.52,13.48-22.52l6,5.69C80.23,51,64.28,71.18,63.34,70.29z"/>
		<path fill="#D51342" d="M58.86,71.34c-0.05,0.19-0.13,0.49-0.18,0.68l-0.61,2.26c-0.05,0.19,0.03,0.27,0.19,0.17l1.83-1.1
			c0.15-0.09,0.4-0.24,0.55-0.33L62,72.21l-2.69-2.55L58.86,71.34z"/>
	</g>
	<g>
		<g>
			<path fill="#006E73" d="M15.53,14.39c-0.42,0-0.77,0.35-0.77,0.77v2.35c0,0.42,0.35,0.77,0.77,0.77h42.08
				c0.42,0,0.77-0.35,0.77-0.77v-2.35c0-0.42-0.35-0.77-0.77-0.77H15.53z"/>
		</g>
		<g>
			<path fill="#006E73" d="M15.53,51.43c-0.42,0-0.77,0.35-0.77,0.77v2.35c0,0.42,0.35,0.77,0.77,0.77h42.08
				c0.42,0,0.77-0.35,0.77-0.77V52.2c0-0.42-0.35-0.77-0.77-0.77H15.53z"/>
		</g>
		<g>
			<path fill="#006E73" d="M15.53,32.91c-0.42,0-0.77,0.35-0.77,0.77v2.35c0,0.42,0.35,0.77,0.77,0.77h42.08
				c0.42,0,0.77-0.35,0.77-0.77v-2.35c0-0.42-0.35-0.77-0.77-0.77H15.53z"/>
		</g>
		<g>
			<path fill="#006E73" d="M15.53,69.95c-0.42,0-0.77,0.35-0.77,0.77v2.35c0,0.42,0.35,0.77,0.77,0.77h30.02
				c0.42,0,0.77-0.35,0.77-0.77v-2.35c0-0.42-0.35-0.77-0.77-0.77H15.53z"/>
		</g>
	</g>
</g>
</svg>
