<?xml version="1.0" encoding="utf-8"?>
<!-- Generator: Adobe Illustrator 25.2.3, SVG Export Plug-In . SVG Version: 6.00 Build 0)  -->
<svg version="1.1" id="Layer_1" xmlns="http://www.w3.org/2000/svg" xmlns:xlink="http://www.w3.org/1999/xlink" x="0px" y="0px"
	 viewBox="0 0 96.45 85.07" style="enable-background:new 0 0 96.45 85.07;" xml:space="preserve">
<style type="text/css">
	.st0{fill:#D51342;}
	.st1{fill:#FFFFFF;}
</style>
<g>
	<path class="st0" d="M47.82,11.64c-47.11-36.25-78.51,30.67,0,73.42C132.61,32.09,89.17-25.07,47.82,11.64z"/>
	<g>
		<path class="st1" d="M65.37,49.85c0.13,0.05,0.26,0.08,0.41,0.1c0.05,0,0.1,0.01,0.15,0.01c0.09,0,0.18-0.01,0.27-0.02l-0.57,1.56
			L65.37,49.85z M31.31,47.22c0.09,0.02,0.19,0.03,0.29,0.03c0.01,0,0.02,0,0.02,0c0.11,0,0.21-0.01,0.31-0.04l-0.3,0.93
			L31.31,47.22z M52.3,45.13c0.1,0.02,0.21,0.04,0.32,0.04c0.02,0,0.04,0,0.07,0c0.13-0.01,0.26-0.03,0.38-0.07l-0.33,1.42
			L52.3,45.13z M75.63,44.4c0.12,0.03,0.26,0.05,0.39,0.05c0.02,0,0.04,0,0.06,0c0.15-0.01,0.3-0.04,0.44-0.09l-0.37,1.96
			L75.63,44.4z M39.05,40.66c0.01,0,0.12,0,0.16,0c0.05,0,0.1-0.01,0.16-0.02l-0.13,0.36L39.05,40.66z M36.03,36.74l0.23,0.41
			c-0.01,0-0.14,0-0.19,0.01c-0.06,0.01-0.12,0.02-0.18,0.03L36.03,36.74z M72.63,36.27c-0.11-0.03-0.22-0.05-0.33-0.05
			c-0.02,0-0.04,0-0.06,0c-0.09,0-0.18,0.01-0.27,0.02l0.37-1.02L72.63,36.27z M24.69,30.65L25,31.52
			c-0.09-0.02-0.19-0.03-0.29-0.03c0,0-0.01,0-0.01,0c-0.1,0-0.2,0.01-0.3,0.03L24.69,30.65z M45.65,27.03
			c-0.1-0.02-0.2-0.03-0.3-0.04c-0.01,0-0.02,0-0.02,0c-0.09,0-0.19,0.01-0.28,0.03l0.31-0.87L45.65,27.03z M60.24,21.61
			c-0.16-0.06-0.32-0.1-0.5-0.1c-0.02,0-0.04,0-0.05,0c-0.16,0-0.31,0.02-0.45,0.07l0.6-2.6L60.24,21.61z"/>
		<path class="st1" d="M47.15,25.64L47.15,25.64L47.15,25.64 M26.46,30.1L26.46,30.1L26.46,30.1 M59.86,15.88
			c-0.55,0-0.94,0.38-1.06,0.88l-6.18,26.91l-6.17-19.01c-0.15-0.46-0.57-0.77-1.06-0.78c-0.51,0.01-0.92,0.29-1.08,0.75
			l-5.24,14.54l-2.17-3.9c-0.2-0.36-0.59-0.58-0.99-0.58c-0.04,0-0.08,0-0.11,0.01c-0.45,0.05-0.83,0.35-0.96,0.78L31.6,45.75
			l-5.85-16.62c-0.16-0.44-0.53-0.76-1.01-0.76c-0.02,0-0.04,0-0.07,0c-0.48,0-0.91,0.31-1.06,0.77l-3.79,11.38h-5.49
			c-0.62,0-1.13,0.51-1.13,1.13c0,0.62,0.51,1.13,1.13,1.13h6.3c0.49,0,0.92-0.31,1.07-0.77l3.01-9.03l5.88,16.7
			c0.16,0.45,0.59,0.75,1.07,0.75c0.01,0,0.01,0,0.02,0c0.49-0.01,0.91-0.33,1.06-0.79l3.48-11l2.1,3.78
			c0.2,0.36,0.57,0.58,0.98,0.58c0.03,0,0.07,0,0.1,0c0.44-0.04,0.82-0.33,0.97-0.74l4.96-13.77l6.41,19.76
			c0.15,0.47,0.59,0.78,1.09,0.78c0.01,0,0.02,0,0.03,0c0.51-0.02,0.94-0.38,1.05-0.88l5.77-25.15l4.67,30.14
			c0.08,0.51,0.49,0.9,1.01,0.95c0.04,0,0.07,0.01,0.11,0.01c0.47,0,0.9-0.29,1.06-0.74l5.71-15.63l2.89,10.54
			c0.14,0.49,0.58,0.83,1.09,0.83c0.01,0,0.03,0,0.05,0c0.53-0.02,0.97-0.4,1.06-0.92l1.4-7.41h4.02c0.62,0,1.13-0.51,1.13-1.13
			c0-0.62-0.51-1.13-1.13-1.13H77.8c-0.54,0-1.01,0.39-1.11,0.92l-0.67,3.53l-2.53-9.24c-0.13-0.47-0.55-0.81-1.04-0.83
			c-0.02,0-0.03,0-0.05,0c-0.49,0-0.9,0.29-1.06,0.74l-5.42,14.84l-4.9-31.61c-0.08-0.54-0.53-0.94-1.08-0.96
			C59.92,15.88,59.89,15.88,59.86,15.88L59.86,15.88z"/>
	</g>
</g>
</svg>
