<?xml version="1.0" encoding="utf-8"?>
<!-- Generator: Adobe Illustrator 25.2.3, SVG Export Plug-In . SVG Version: 6.00 Build 0)  -->
<svg version="1.1" id="Layer_1" xmlns="http://www.w3.org/2000/svg" xmlns:xlink="http://www.w3.org/1999/xlink" x="0px" y="0px"
	 viewBox="0 0 93.67 80.29" style="enable-background:new 0 0 93.67 80.29;" xml:space="preserve">
<style type="text/css">
	.st0{fill:#007476;}
	.st1{fill:#D8204D;}
</style>
<path class="st0" d="M81.96,80.29H1.67C0.75,80.29,0,79.54,0,78.61V11.71c0-0.92,0.75-1.67,1.67-1.67h63.56
	c0.92,0,1.67,0.75,1.67,1.67c0,0.92-0.75,1.67-1.67,1.67H3.35v63.56h78.61c4.61,0,8.36-3.75,8.36-8.36V11.71
	c0-4.61-3.75-8.36-8.36-8.36c-4.61,0-8.36,3.75-8.36,8.36v55.2c0,0.92-0.75,1.67-1.67,1.67s-1.67-0.75-1.67-1.67v-55.2
	C70.25,5.25,75.5,0,81.96,0c6.46,0,11.71,5.25,11.71,11.71v56.87C93.67,75.03,88.41,80.29,81.96,80.29z"/>
<path class="st0" d="M91.99,70.25c-0.92,0-1.67-0.75-1.67-1.67c0-4.61-3.75-8.36-8.36-8.36c-4.61,0-8.36,3.75-8.36,8.36
	c0,0.92-0.75,1.67-1.67,1.67s-1.67-0.75-1.67-1.67c0-6.46,5.25-11.71,11.71-11.71c6.46,0,11.71,5.25,11.71,11.71
	C93.67,69.5,92.92,70.25,91.99,70.25z"/>
<path class="st1" d="M24.6,57.67l-0.26,3.35l-0.26,3.35l-1.96-2.74l-1.96-2.74l2.22-0.62L24.6,57.67 M26.09,55.66l-1.9,0.53
	l-2.22,0.62l-2.22,0.62l-1.9,0.53l1.33,1.86l1.96,2.74l1.96,2.74l2.02,2.83l0.27-3.47l0.26-3.35l0.26-3.35L26.09,55.66L26.09,55.66z
	"/>
<g>
	
		<rect x="12.54" y="19.97" transform="matrix(0.9634 -0.2679 0.2679 0.9634 -9.63 5.896)" class="st1" width="8.49" height="36.53"/>
</g>
<g>
	<path class="st1" d="M34.32,19.68V43.8v24.12H44.5h20.36L34.32,19.68z M40.73,62.06v-9.51v-9.51l12.04,19.02h-8.03H40.73z"/>
</g>
</svg>
