<?xml version="1.0" encoding="utf-8"?>
<!-- Generator: Adobe Illustrator 25.2.3, SVG Export Plug-In . SVG Version: 6.00 Build 0)  -->
<svg version="1.1" id="Layer_1" xmlns="http://www.w3.org/2000/svg" xmlns:xlink="http://www.w3.org/1999/xlink" x="0px" y="0px"
	 viewBox="0 0 93.67 90.16" style="enable-background:new 0 0 93.67 90.16;" xml:space="preserve">
<path fill="#007476" d="M81.96,90.16H1.67C0.75,90.16,0,89.41,0,88.49V21.58c0-0.92,0.75-1.67,1.67-1.67h63.56
	c0.92,0,1.67,0.75,1.67,1.67c0,0.92-0.75,1.67-1.67,1.67H3.35v63.56h78.61c4.61,0,8.36-3.75,8.36-8.36V21.58
	c0-4.61-3.75-8.36-8.36-8.36c-4.61,0-8.36,3.75-8.36,8.36v55.2c0,0.92-0.75,1.67-1.67,1.67s-1.67-0.75-1.67-1.67v-55.2
	c0-6.46,5.25-11.71,11.71-11.71c6.46,0,11.71,5.25,11.71,11.71v56.87C93.67,84.91,88.41,90.16,81.96,90.16z"/>
<path fill="#007476" d="M91.99,80.12c-0.92,0-1.67-0.75-1.67-1.67c0-4.61-3.75-8.36-8.36-8.36c-4.61,0-8.36,3.75-8.36,8.36
	c0,0.92-0.75,1.67-1.67,1.67s-1.67-0.75-1.67-1.67c0-6.46,5.25-11.71,11.71-11.71c6.46,0,11.71,5.25,11.71,11.71
	C93.67,79.38,92.92,80.12,91.99,80.12z"/>
<g>
	<rect x="18.54" y="58.51"  fill="#D8204D" width="49.12" height="5.45"/>
	<polygon  fill="#D8204D" points="23.02,23.79 23.02,26.55 32.2,26.55 32.2,30.34 23.02,30.34 23.02,34.14 32.2,34.14 32.2,37.93
		23.02,37.93 23.02,42.07 32.2,42.07 32.2,45.86 23.02,45.86 23.02,49.48 32.2,49.48 32.2,53.28 23.02,53.28 23.02,62.19
		41.35,62.19 41.35,23.79 	"/>
	<rect x="21.13" y="19.66"  fill="#D8204D" width="21.21" height="4.14"/>
	<rect x="25.61" y="16.29"  fill="#D8204D" width="15.88" height="5.95"/>
	<path fill="#D8204D" d="M41.35,1.72v60.47h22.72V1.72H41.35z M56.3,53.97H45.73v-2.41H56.3V53.97z M56.3,48.28H45.73v-2.41H56.3V48.28
		z M56.3,42.59H45.73v-2.41H56.3V42.59z M56.3,36.9H45.73v-2.41H56.3V36.9z M56.3,31.21H45.73v-2.41H56.3V31.21z M56.3,25.52H45.73
		V23.1H56.3V25.52z M56.3,19.83H45.73v-2.41H56.3V19.83z M56.3,14.14H45.73v-2.41H56.3V14.14z M56.3,8.45H45.73V6.03H56.3V8.45z"/>
	<rect x="44.06"  fill="#D8204D" width="17.07" height="2.76"/>
</g>
<line  fill="none" stroke="#D8204D" stroke-width="2" stroke-miterlimit="10" x1="23.02" y1="23.79" x2="23.02" y2="58.95"/>
<polyline  fill="none" stroke="#D8204D" stroke-width="2" stroke-miterlimit="10" stroke-dasharray="4,4,4,4,4,4" points="23.02,49.48 10.53,49.48 10.53,76.23 45.73,76.23 "/>
</svg>
