<?xml version="1.0" encoding="iso-8859-1"?>
<!-- Generator: Adobe Illustrator 19.0.0, SVG Export Plug-In . SVG Version: 6.00 Build 0)  -->
<svg version="1.1" id="Layer_1" xmlns="http://www.w3.org/2000/svg" xmlns:xlink="http://www.w3.org/1999/xlink" x="0px" y="0px"
     viewBox="0 0 32 28"  xml:space="preserve">
<style type="text/css">
  .st0{fill:#d8204c;}
</style>
<path class="st0" d="M23.0779 0C23.2536 0 23.3941 0 23.5697 0C24.3425 0.278261 24.8694 0.8 25.0099 1.6C25.0801 1.98261 25.1153 2.36522 25.1504 2.71304C25.2206 5.21739 24.2371 7.33913 22.6564 9.21739C22.551 9.35652 22.4457 9.49565 22.27 9.70435C22.4808 9.66957 22.6213 9.66957 22.7618 9.66957C24.1317 9.6 25.4665 9.42609 26.8364 9.46087C28.0659 9.46087 29.2953 9.73913 30.3491 10.4C31.6839 11.2 32 12.5217 31.2272 13.8435C31.0165 14.1913 30.7706 14.5044 30.4896 14.887C31.2624 15.3044 31.6839 15.9652 31.9649 16.7652C31.9649 17.0087 31.9649 17.2174 31.9649 17.4609C31.6839 18.4 31.157 19.2 30.2788 19.687C29.9627 19.8609 29.6465 20 29.3304 20.1739C30.1383 21.113 30.3139 22.1565 29.6114 23.2C28.944 24.2087 27.9254 24.5913 26.7311 24.6609C26.7662 24.8 26.8013 24.8696 26.8013 24.9391C27.1175 25.9826 26.8716 26.6783 25.9232 27.1652C25.326 27.4783 24.6235 27.6522 23.9561 27.8261C23.5346 27.9304 23.0779 27.9652 22.6564 28.0348C22.0944 28.0348 21.5324 28.0348 20.9704 28.0348C20.1625 27.9304 19.3546 27.8609 18.5466 27.7217C15.2448 27.2 12.1537 26.087 9.34357 24.2435C9.06256 24.0696 8.99231 23.8957 8.99231 23.5478C8.99231 20.7304 8.99231 17.9478 8.99231 15.1304C8.99231 13.8087 8.99231 12.4522 8.99231 11.1304C10.9243 10.6783 12.6454 9.84348 14.2612 8.8C17.0713 6.99131 19.4951 4.8 21.146 1.84348C21.6378 1.0087 22.1647 0.313044 23.0779 0Z" />
<path class="st0" d="M0 9.00871C1.72119 8.8348 3.4775 8.86958 5.12843 9.4261C5.72558 9.6348 6.2876 9.98262 6.84962 10.3304C6.99012 10.4 7.0955 10.6435 7.0955 10.8174C7.0955 15.2348 7.0955 19.6522 7.0955 24.0696C7.0955 24.2435 6.955 24.5218 6.81449 24.5913C6.11197 24.9739 5.37431 25.3913 4.63666 25.6C3.09111 25.9826 1.54555 26.0174 0 25.8435C0 20.2087 0 14.6087 0 9.00871Z" />
</svg>
