<?xml version="1.0" encoding="utf-8"?>
<!-- Generator: Adobe Illustrator 25.2.3, SVG Export Plug-In . SVG Version: 6.00 Build 0)  -->
<svg version="1.1" id="Layer_1" xmlns="http://www.w3.org/2000/svg" xmlns:xlink="http://www.w3.org/1999/xlink" x="0px" y="0px"
	 viewBox="0 0 61.67 88.79" style="enable-background:new 0 0 61.67 88.79;" xml:space="preserve">
<style type="text/css">
	.st0{fill:#006E73;}
	.st1{fill:#D51342;}
</style>
<g>
	<path class="st0" d="M1,88.79c-0.39,0-0.75-0.24-0.88-0.63C0.09,88.07,0,87.76,0,87.29c0-0.73,0.25-2.15,1.9-3.41
		c0.41-0.32,1-0.23,1.32,0.18c0.31,0.41,0.24,1-0.18,1.32c-0.96,0.73-1.16,1.44-1.16,1.92c0,0.18,0.03,0.29,0.03,0.29
		c0.14,0.49-0.14,1.01-0.63,1.16C1.19,88.78,1.09,88.79,1,88.79z M5.88,84.04c-0.42,0-0.79-0.28-0.91-0.69
		c-0.14-0.5,0.16-1.02,0.66-1.15c0.75-0.2,1.58-0.37,2.47-0.51l1.33-0.2c0.51-0.07,0.99,0.27,1.07,0.79
		c0.08,0.51-0.27,0.99-0.79,1.07l-1.33,0.2C7.56,83.66,6.8,83.82,6.12,84C6.04,84.03,5.96,84.04,5.88,84.04z M13.29,82.77
		c-0.46,0-0.86-0.33-0.93-0.8c-0.08-0.51,0.27-0.99,0.79-1.07c1.21-0.19,2.46-0.38,3.72-0.58c0.52-0.08,0.99,0.27,1.08,0.78
		s-0.27,1-0.78,1.08c-1.27,0.2-2.52,0.39-3.73,0.58C13.39,82.77,13.34,82.77,13.29,82.77z M20.73,81.59c-0.45,0-0.85-0.33-0.93-0.78
		c-0.09-0.51,0.26-1,0.77-1.08c1.25-0.21,2.49-0.43,3.69-0.65c0.51-0.09,1,0.24,1.09,0.76c0.09,0.51-0.24,1-0.75,1.09
		c-1.21,0.22-2.46,0.44-3.72,0.65C20.83,81.58,20.78,81.59,20.73,81.59z M28.13,80.22c-0.44,0-0.83-0.3-0.92-0.75
		c-0.11-0.51,0.22-1.01,0.73-1.11c1.38-0.29,2.6-0.57,3.63-0.84c0.49-0.13,1.02,0.17,1.15,0.67c0.13,0.5-0.17,1.02-0.67,1.15
		c-1.06,0.28-2.31,0.56-3.71,0.86C28.26,80.21,28.2,80.22,28.13,80.22z M35.38,78.2c-0.36,0-0.71-0.21-0.86-0.56
		c-0.21-0.48,0.01-1.03,0.48-1.24c1.22-0.54,2.32-1.12,3.17-1.69c0.43-0.29,1.02-0.17,1.3,0.26c0.29,0.43,0.17,1.02-0.26,1.3
		c-1.19,0.8-2.54,1.44-3.46,1.85C35.63,78.18,35.51,78.2,35.38,78.2z M41.04,72.69l-0.94-0.05c0-0.46-0.74-1-1.98-1.45
		c-0.49-0.18-0.74-0.72-0.56-1.21c0.18-0.49,0.72-0.74,1.21-0.56c2.13,0.78,3.22,1.86,3.22,3.2L41.04,72.69z M40.1,72.64l0.94,0.05
		L40.1,72.64z M34.8,70.34c-0.06,0-0.12,0-0.17-0.02c-1.21-0.23-2.45-0.45-3.7-0.68c-0.51-0.09-0.85-0.58-0.76-1.09
		c0.09-0.51,0.58-0.84,1.09-0.76c1.25,0.23,2.49,0.45,3.71,0.68c0.51,0.1,0.85,0.59,0.75,1.1C35.63,70.02,35.24,70.34,34.8,70.34z
		 M27.39,69c-0.05,0-0.11,0-0.16-0.01l-3.71-0.65c-0.51-0.09-0.85-0.58-0.77-1.09c0.09-0.51,0.58-0.85,1.09-0.76l3.71,0.65
		c0.51,0.09,0.85,0.58,0.76,1.09C28.23,68.68,27.83,69,27.39,69z M19.97,67.71c-0.05,0-0.11,0-0.16-0.01l-3.71-0.65
		c-0.51-0.09-0.85-0.58-0.76-1.09c0.09-0.51,0.57-0.85,1.09-0.76l3.71,0.65c0.51,0.09,0.85,0.58,0.77,1.09
		C20.82,67.38,20.42,67.71,19.97,67.71z M12.56,66.39c-0.06,0-0.11,0-0.17-0.02c-1.34-0.24-2.59-0.48-3.71-0.7
		c-0.51-0.1-0.84-0.6-0.74-1.1c0.1-0.51,0.58-0.84,1.1-0.74c1.11,0.22,2.35,0.45,3.68,0.7c0.51,0.09,0.85,0.58,0.76,1.09
		C13.4,66.07,13,66.39,12.56,66.39z M5.19,64.85c-0.1,0-0.2-0.02-0.3-0.05c-1.64-0.56-2.86-1.45-3.51-2.55
		c-0.26-0.45-0.11-1.02,0.33-1.29C2.16,60.7,2.74,60.85,3,61.3c0.41,0.7,1.3,1.32,2.5,1.73c0.49,0.17,0.75,0.7,0.59,1.19
		C5.95,64.61,5.58,64.85,5.19,64.85z M2.82,59.31c-0.24,0-0.49-0.09-0.67-0.28c-0.36-0.37-0.36-0.97,0.01-1.33
		c0.84-0.83,2.06-1.51,3.63-2.03c0.5-0.16,1.03,0.11,1.19,0.6c0.16,0.49-0.11,1.03-0.6,1.19c-1.27,0.42-2.27,0.96-2.9,1.58
		C3.3,59.22,3.06,59.31,2.82,59.31z M9.75,56.67c-0.44,0-0.84-0.32-0.92-0.77c-0.1-0.51,0.24-1,0.75-1.1
		c1.07-0.2,2.33-0.43,3.71-0.68c0.5-0.09,1,0.24,1.09,0.76c0.09,0.51-0.24,1-0.76,1.09c-1.38,0.25-2.63,0.48-3.7,0.68
		C9.87,56.67,9.81,56.67,9.75,56.67z M17.17,55.3c-0.44,0-0.84-0.32-0.92-0.77c-0.09-0.51,0.24-1,0.75-1.1l3.7-0.69
		c0.51-0.09,1,0.24,1.1,0.75s-0.24,1-0.75,1.1l-3.71,0.69C17.28,55.3,17.22,55.3,17.17,55.3z M24.57,53.91
		c-0.44,0-0.84-0.31-0.92-0.76c-0.1-0.51,0.24-1,0.74-1.1c1.22-0.24,2.46-0.48,3.69-0.73c0.51-0.1,1,0.23,1.11,0.74
		c0.1,0.51-0.23,1-0.74,1.11c-1.24,0.25-2.48,0.49-3.7,0.73C24.69,53.9,24.63,53.91,24.57,53.91z M31.96,52.43
		c-0.44,0-0.83-0.3-0.92-0.75c-0.11-0.51,0.22-1.01,0.73-1.11c1.25-0.26,2.47-0.53,3.67-0.79c0.5-0.11,1.01,0.2,1.12,0.71
		c0.11,0.51-0.21,1.01-0.71,1.12c-1.2,0.27-2.44,0.54-3.69,0.8C32.09,52.42,32.02,52.43,31.96,52.43z M39.31,50.78
		c-0.42,0-0.81-0.29-0.91-0.72c-0.12-0.5,0.19-1.01,0.69-1.14c1.28-0.31,2.5-0.62,3.62-0.93c0.5-0.14,1.02,0.16,1.16,0.66
		c0.14,0.5-0.16,1.02-0.66,1.16c-1.14,0.31-2.37,0.63-3.68,0.95C39.46,50.77,39.39,50.78,39.31,50.78z M46.57,48.74
		c-0.39,0-0.75-0.24-0.89-0.63c-0.17-0.49,0.09-1.03,0.58-1.2c1.31-0.45,2.27-0.87,2.86-1.23c0.44-0.27,1.02-0.14,1.3,0.3
		c0.27,0.44,0.14,1.02-0.3,1.3c-0.72,0.45-1.78,0.91-3.24,1.41C46.78,48.73,46.67,48.74,46.57,48.74z"/>
	<path class="st1" d="M49.35,0c-6.8,0-12.31,5.51-12.31,12.31c0,6.8,8.81,30.69,13.69,29.65c4.89-1.05,10.93-22.84,10.93-29.65
		C61.67,5.51,56.15,0,49.35,0z M49.35,19.89c-3.92,0-7.1-3.18-7.1-7.1c0-3.92,3.18-7.1,7.1-7.1c3.92,0,7.1,3.18,7.1,7.1
		C56.45,16.71,53.27,19.89,49.35,19.89z"/>
</g>
</svg>
