<?xml version="1.0" encoding="utf-8"?>
<!-- Generator: Adobe Illustrator 26.1.0, SVG Export Plug-In . SVG Version: 6.00 Build 0)  -->
<svg version="1.1" id="Layer_1" xmlns="http://www.w3.org/2000/svg" xmlns:xlink="http://www.w3.org/1999/xlink" x="0px" y="0px"
	 viewBox="0 0 189.3 111.3" style="enable-background:new 0 0 189.3 111.3;" xml:space="preserve">
<g id="Ikoner">
	<path fill="none" d="M185.7,19.9c0.1,0.1,0.1,0.2,0.2,0.2C185.8,20.1,185.7,20,185.7,19.9z"/>
	<path fill="none" d="M161.7,1.8c0.9,0.4,1.7,1,2.5,1.6C163.4,2.8,162.6,2.2,161.7,1.8z"/>
	<path fill="none" d="M184,40.1c1.3-1.1,2.4-2.3,3.3-3.7C186.4,37.8,185.3,39.1,184,40.1z"/>
	<path fill="none" d="M170.8,14.9l-0.9,0.2c0-0.1,0-0.3,0-0.4c0,0.1,0,0.3,0,0.4L170.8,14.9z"/>
	<path fill="none" d="M123.8,8.5c-2.9,2.6-4.6,6.4-4.6,10.3c0,1.9,0.4,3.8,1.2,5.6c-0.8-1.8-1.2-3.7-1.2-5.6
		C119.2,14.9,120.9,11.1,123.8,8.5z"/>
	<path fill="none" d="M118.6,30l-0.7,0.7L118.6,30z"/>
	<path fill="none" d="M178.8,50.1c0,2.3-0.6,4.5-1.7,6.5c2.3-4.1,2.2-9.1-0.1-13.2c2.6-0.5,5-1.7,7-3.3c-2,1.7-4.4,2.8-7,3.3
		C178.2,45.5,178.8,47.8,178.8,50.1z"/>
	<path fill="none" d="M165.3,4.3c0.7,0.6,1.4,1.4,1.9,2.1C166.7,5.6,166.1,4.9,165.3,4.3z"/>
	<path fill="none" d="M173.6,14.6h-0.9H173.6z"/>
	<path fill="none" d="M145,89.8c-0.3,1.2-0.5,2.3-0.8,3.4C144.5,92.1,144.8,91,145,89.8z"/>
	<path fill="none" d="M153.5,61.7L153.5,61.7l1,0.7L153.5,61.7z"/>
	<path fill="none" d="M163,109.7L163,109.7c-0.9-0.8-1.7-1.8-2.4-2.8C161.3,108,162.1,108.9,163,109.7z"/>
	<path fill="none" d="M176.6,57.6c-0.4,0.7-0.9,1.3-1.4,1.9C175.7,58.8,176.2,58.2,176.6,57.6z"/>
	<polygon fill="none" points="137.5,109.6 154.5,109.6 137.5,109.6 	"/>
	<path fill="none" d="M139.9,106.2c0.4-0.7,0.7-1.6,1.1-2.5C140.6,104.6,140.3,105.5,139.9,106.2z"/>
	<path fill="none" d="M141.8,101.4c0.8-2.2,1.5-4.7,2.2-7.4C143.3,96.7,142.6,99.2,141.8,101.4z"/>
	<path fill="none" d="M189.3,29.2L189.3,29.2c0,1.7-0.3,3.4-0.9,5C189,32.6,189.3,30.9,189.3,29.2z"/>
	<path fill="none" d="M120.5,51.7c0.9,0.6,1.8,1.2,2.9,1.6c0.3,1.1,0.7,2.1,1.2,3.1c-0.5-1-0.9-2-1.2-3.1
		C122.3,52.9,121.4,52.4,120.5,51.7z"/>
	<path fill="none" d="M115.7,33.9c0.1-0.2,0.3-0.5,0.4-0.8C115.9,33.4,115.8,33.6,115.7,33.9z"/>
	<path fill="none" d="M121.5,26.4c-0.4-0.6-0.8-1.3-1.1-2C120.7,25.1,121.1,25.8,121.5,26.4z"/>
	<path fill="none" d="M143,72.9c0,0-0.1,0-0.1,0l-7.8,3.5l1.9,0.1c0,0,0.1,0,0.1,0l7.2-3.5L143,72.9z"/>
	<path fill="none" d="M131.4,78.2l-9.3,4.2l2.9,0.1c0,0,0.1,0,0.1,0l8.6-4.3L131.4,78.2L131.4,78.2z"/>
	<path fill="none" d="M118.8,50.4c-0.3-0.2-0.5-0.5-0.8-0.8C118.3,49.9,118.6,50.2,118.8,50.4z"/>
	<path fill="none" d="M117,48.4c-0.2-0.2-0.3-0.5-0.5-0.7C116.7,47.9,116.8,48.1,117,48.4z"/>
	<path fill="none" d="M138.3,4.5l0.7,0.2L138.3,4.5z"/>
	<path fill="none" d="M147.2,1.6c1.1-0.5,2.2-0.9,3.4-1.1C149.4,0.7,148.3,1.1,147.2,1.6z"/>
	<path fill="none" d="M148.6,61.4c-0.2,0.2-0.4,0.4-0.6,0.6C148.2,61.8,148.4,61.6,148.6,61.4c0,0.7,0.1,1.6,0,2.4l0,0
		C148.6,63,148.6,62.2,148.6,61.4z"/>
	<path fill="none" d="M154.2,0c-1.2,0-2.5,0.1-3.7,0.4C151.8,0.1,153,0,154.2,0z"/>
	<path fill="none" d="M118,84.2l-10.9,4.9l3.8,0.2c0,0,0.1,0,0.1,0l10.2-5l-2.8-0.1C118.3,84.2,118.1,84.2,118,84.2z"/>
	<path fill="none" d="M89.3,99.4l-4.4-0.2c0,0-0.1,0-0.1,0l-18.2,8.2c-0.1,0.1-0.2,0.2-0.1,0.4c0,0.1,0.1,0.1,0.2,0.1l5.8,0.2
		c0,0,0.1,0,0.1,0l16.9-8.3c0.1-0.1,0.2-0.2,0.2-0.3C89.6,99.4,89.5,99.3,89.3,99.4z"/>
	<path fill="none" d="M103.2,90.9L89.7,97c-0.1,0.1-0.2,0.2-0.1,0.4c0,0.1,0.1,0.2,0.2,0.2l4.1,0.2c0,0,0.1,0,0.1,0l13.5-6.6
		l-4.2-0.2C103.3,90.9,103.2,90.9,103.2,90.9z"/>
	<path fill="#007476" d="M145.8,86.2c-0.2,1.2-0.5,2.4-0.8,3.6l0,0C145.3,88.6,145.6,87.4,145.8,86.2z"/>
	<path fill="#007476" d="M146.6,82.1c0.2-1.1,0.4-2.1,0.5-3.2C146.9,80,146.8,81,146.6,82.1z"/>
	<path fill="#007476" d="M145.8,86.2c0.2-1.2,0.5-2.3,0.7-3.5C146.2,83.9,146,85.1,145.8,86.2z"/>
	<path fill="#007476" d="M156.1,65.8c0.3,3.8,0.7,8,1.2,12.2l12.5-12.1c-2.1,0.8-4.4,1.2-6.7,1.2C160.7,67.1,158.3,66.6,156.1,65.8z"/>
	<path fill="#007476" d="M146.2,66c-2.3,1-4.6,1.1-7.6,1.1l0,0L0.2,110.8C0,110.9,0,111,0,111.2c0,0.1,0.2,0.2,0.3,0.2l124.7-2.1
		l16.9-16.4c0.4-1.6,0.8-3.3,1.2-5.2C144.7,80.5,145.7,73.3,146.2,66z M89.5,99.9l-16.8,8.3c0,0-0.1,0-0.1,0l-5.8-0.2
		c-0.1,0-0.3-0.1-0.2-0.3c0-0.1,0.1-0.2,0.1-0.2l18.2-8.2c0,0,0.1,0,0.1,0l4.4,0.2c0.1,0,0.2,0.2,0.2,0.3
		C89.6,99.8,89.5,99.8,89.5,99.9z M94,97.6c0,0-0.1,0-0.1,0l-4.1-0.2c-0.1,0-0.3-0.1-0.3-0.3c0-0.1,0.1-0.2,0.2-0.2l13.5-6.1
		c0,0,0.1,0,0.1,0l4.2,0.2L94,97.6z M111.1,89.3c0,0-0.1,0-0.1,0l-3.8-0.2l10.9-4.9c0.1-0.1,0.3-0.1,0.4-0.1l2.8,0.1L111.1,89.3z
		 M125,82.5c0,0-0.1,0-0.1,0l-2.9-0.1l9.4-4.2h0.1l2.2,0.1L125,82.5z M137,76.5l-1.9-0.1l7.8-3.5c0,0,0.1,0,0.1,0h1.4l-7.2,3.5
		C137.1,76.5,137.1,76.5,137,76.5L137,76.5z"/>
	<path fill="#007476" d="M148.6,63.9L148.6,63.9c-0.1,3.1-0.3,6.2-0.7,9.2C148.3,70.1,148.6,67,148.6,63.9z"/>
	<path fill="#FFFFFF" d="M154.2,0L154.2,0c0.5,0,1.1,0,1.6,0.1C155.3,0,154.8,0,154.2,0z"/>
	<path fill="#FFFFFF" d="M118.6,30c0.3-0.4,0.7-0.7,1.1-1C119.3,29.3,118.9,29.6,118.6,30z"/>
	<path fill="#FFFFFF" d="M144,94c0.1-0.3,0.1-0.5,0.2-0.8C144.2,93.5,144.1,93.8,144,94z"/>
	<path fill="#FFFFFF" d="M121.5,26.4c0.2,0.3,0.4,0.6,0.7,0.9c-0.9,0.5-1.8,1-2.6,1.6c0.8-0.6,1.6-1.2,2.5-1.6
		C121.9,27,121.7,26.7,121.5,26.4z"/>
	<path fill="#FFFFFF" d="M138.3,4.5c-1.1-0.2-2.2-0.3-3.4-0.4c-4.1,0-8.1,1.5-11.1,4.3c3-2.8,7-4.3,11.1-4.3
		C136,4.2,137.2,4.3,138.3,4.5z"/>
	<path fill="#FFFFFF" d="M115.7,33.9c-2.3,4.4-1.9,9.7,0.8,13.8C113.7,43.6,113.4,38.3,115.7,33.9z"/>
	<path fill="#FFFFFF" d="M159.5,105.1c-1.7-3-2.6-6.3-2.8-9.8c-0.2-3.2-0.6-6.7-0.9-10.3c0.4,3.6,0.7,7.1,0.9,10.3
		C156.9,98.8,157.9,102.1,159.5,105.1z"/>
	<path fill="#FFFFFF" d="M139.9,106.2c-0.5,1.3-1.4,2.4-2.4,3.3l0,0C138.6,108.6,139.4,107.5,139.9,106.2z"/>
	<path fill="#FFFFFF" d="M118.1,49.6c-0.4-0.4-0.7-0.8-1-1.3C117.4,48.8,117.7,49.2,118.1,49.6z"/>
	<path fill="#FFFFFF" d="M155.5,82.9c-0.1-1-0.2-2-0.3-2.9l0,0C155.3,80.9,155.4,81.9,155.5,82.9z"/>
	<path fill="#FFFFFF" d="M116.1,33.1c0.5-0.9,1.1-1.7,1.8-2.5C117.2,31.4,116.6,32.2,116.1,33.1z"/>
	<polygon fill="#FFFFFF" points="163,109.7 163,109.7 154.5,109.6 	"/>
	<path fill="#FFFFFF" d="M174,60.6L174,60.6c0.4-0.4,0.8-0.8,1.1-1.2C174.8,59.8,174.4,60.2,174,60.6z"/>
	<path fill="#FFFFFF" d="M177.1,56.6c-0.2,0.3-0.4,0.6-0.5,0.9C176.8,57.3,176.9,57,177.1,56.6z"/>
	<path fill="#FFFFFF" d="M173.6,14.6L173.6,14.6c0.5,0,1.1,0,1.6,0.1C174.6,14.6,174.1,14.6,173.6,14.6z"/>
	<path fill="#FFFFFF" d="M141,103.7c0.3-0.7,0.6-1.5,0.9-2.3C141.6,102.3,141.3,103,141,103.7z"/>
	<path fill="#FFFFFF" d="M153.5,61.7l0.1,1l0,0L153.5,61.7z"/>
	<path fill="#FFFFFF" d="M185.7,19.9c-1.3-1.4-2.9-2.6-4.6-3.5C182.8,17.3,184.4,18.5,185.7,19.9z"/>
	<path fill="#FFFFFF" d="M189.3,29.2c0-3.3-1.2-6.6-3.4-9.1C188.1,22.7,189.3,25.9,189.3,29.2z"/>
	<path fill="#FFFFFF" d="M147.2,1.6c-2.1,1-3.9,2.4-5.4,4.1c-0.9-0.4-1.9-0.8-2.8-1c1,0.2,1.9,0.6,2.8,1C143.3,3.9,145.1,2.5,147.2,1.6
		z"/>
	<path fill="#FFFFFF" d="M155.2,80c-0.2-2-0.4-3.9-0.6-5.9C154.7,76.1,155,78,155.2,80z"/>
	<path fill="#FFFFFF" d="M147.1,78.9c0.1-0.7,0.2-1.5,0.3-2.2C147.3,77.4,147.2,78.2,147.1,78.9z"/>
	<path fill="#FFFFFF" d="M147.4,76.7c0.2-1.2,0.3-2.4,0.5-3.6C147.8,74.3,147.6,75.5,147.4,76.7z"/>
	<path fill="#FFFFFF" d="M146.5,82.7l0.1-0.7L146.5,82.7z"/>
	<path fill="#007476" d="M185.7,20.3c-3.7-4.4-10-6.7-15.5-5c-0.4-8.8-7.9-15.7-16.7-15.3c-3.6,0.2-7.1,1.5-9.8,3.9
		c-0.5,0.6-1.2,1-1.9,1.2c-0.8,0.1-1.6,0-2.4-0.3c-12.5-3.5-26.4,11.1-17.4,22.5c-6.9,3.3-9.8,11.5-6.5,18.4
		c0.6,1.2,1.3,2.3,2.2,3.3c1.4,1.6,3.1,2.8,4.6,4.3c1.7,1.8,2.9,4,4.5,5.9c5.7,6.1,15,7.1,21.9,2.4c-0.4,11.1-2,22-4.7,32.8
		c-1.3,5.3-3,10.7-6.3,15.1h25.2c-4.5-3.1-5.5-9.3-6.1-14.8c-1.2-11-2.3-22-3.5-32.9c5.8,3.6,13.7,3.7,19.2-0.3s7.8-12.2,4.5-18.1
		c7.7-1.5,13.3-10.1,11.4-17.7C188,23.7,187.1,21.9,185.7,20.3z"/>
	<path fill="#FFFFFF" d="M154.5,74.1c-0.4-4-0.8-7.9-1-11.4l0,0C153.8,66.2,154.1,70.1,154.5,74.1z"/>
	<path fill="#007476" d="M48.1,26.1c-0.7-0.6-9.8-8.5-18.8-8.5c-7.1,0-12,4.8-14.7,14.2c-6,20.9-1.5,75.1-1.5,75.6l0,0.6l0.6-0.2
		l1.9-0.5l0.4-0.1v-0.4c0-0.5-4.5-53.5,1.5-73.8c2.6-8.8,7-13.2,13.2-13.2c5.8,0,11.7,3.9,14.7,6.2c-4.3,0.3-7.6,2.5-7.6,5.2v0.5H55
		v-0.5C55,28.8,52.1,26.6,48.1,26.1z M49.1,26.8c1.3,0.2,2.5,0.7,3.5,1.4C51.5,27.5,50.3,27,49.1,26.8L49.1,26.8z M47.8,26.6
		L47.8,26.6L47.8,26.6L47.8,26.6L47.8,26.6z M30.4,19.4L30.4,19.4z M47.7,26.4L47.7,26.4z M47.4,26.1L47.4,26.1z M46.9,25.7
		L46.9,25.7L46.9,25.7z M46.2,25.2L46.2,25.2z M45.3,24.6L45.3,24.6L45.3,24.6z M44.3,23.9L44.3,23.9L44.3,23.9z M43.2,23.1
		L43.2,23.1L43.2,23.1z M42,22.4L42,22.4L42,22.4z M40.6,21.6L40.6,21.6L40.6,21.6z M39.2,20.8l-0.1-0.1L39.2,20.8z M37.6,20.1
		L37.6,20.1z M36.1,19.5h-0.1H36.1z M34.4,18.9L34.4,18.9z M32.8,18.5h-0.1H32.8z M31,18.2L31,18.2z M29.3,18.1L29.3,18.1z
		 M28.3,18.1L28.3,18.1z M27.3,18.3H27H27.3z M26.1,18.5L26.1,18.5z M25.2,18.7L25,18.8L25.2,18.7z M24.1,19.2L24.1,19.2L24.1,19.2z
		 M23.2,19.6L23,19.7L23.2,19.6z M22.2,20.3l-0.1,0.1L22.2,20.3z M21.3,21l-0.2,0.2L21.3,21z M20.3,21.9L20.2,22L20.3,21.9z
		 M21.9,23.2l-0.4,0.4L21.9,23.2z M21,24.3l-0.4,0.5L21,24.3z M20.1,25.5l-0.3,0.6L20.1,25.5z M19.3,26.9c-0.1,0.2-0.2,0.4-0.3,0.6
		C19.1,27.3,19.2,27.1,19.3,26.9L19.3,26.9z M18.5,28.5c-0.1,0.2-0.2,0.4-0.3,0.6C18.3,29,18.4,28.7,18.5,28.5L18.5,28.5z
		 M17.8,30.4c-0.1,0.2-0.2,0.4-0.2,0.6C17.6,30.8,17.7,30.6,17.8,30.4z M16.9,27c0-0.1,0.1-0.2,0.1-0.3C17,26.8,17,26.9,16.9,27
		L16.9,27z M17.7,25.5l0.1-0.2L17.7,25.5z M18.4,24.3c0.1-0.1,0.1-0.1,0.2-0.2C18.6,24.1,18.5,24.2,18.4,24.3L18.4,24.3z M19.3,23.1
		l0.1-0.2L19.3,23.1z M16.3,28.3l-0.1,0.1L16.3,28.3z M15.7,30c0,0.1-0.1,0.2-0.1,0.4C15.6,30.2,15.6,30,15.7,30L15.7,30z
		 M11.9,66.7c0,0.5,0,1,0,1.6C11.9,67.8,11.9,67.2,11.9,66.7z M13.1,42.4v0.3V42.4z M22.5,22.6l0.3-0.3L22.5,22.6z M29.4,19.4
		l-0.4,0.1L29.4,19.4z M28.3,19.6c-0.1,0-0.3,0.1-0.4,0.1C28,19.6,28.1,19.6,28.3,19.6L28.3,19.6z M27.2,19.8L26.8,20L27.2,19.8z
		 M26.2,20.2l-0.4,0.2L26.2,20.2z M25.1,20.7l-0.3,0.2L25.1,20.7z M23.8,21.5L23.8,21.5L23.8,21.5z M30.9,19.4c0.2,0,0.5,0,0.7,0
		C31.4,19.4,31.1,19.4,30.9,19.4z M32.1,19.5c0.2,0,0.5,0,0.7,0.1C32.6,19.5,32.4,19.5,32.1,19.5L32.1,19.5z M33.3,19.7l0.7,0.1
		L33.3,19.7z M34.5,19.9l0.7,0.2L34.5,19.9z M35.7,20.3l0.7,0.2L35.7,20.3z M36.8,20.7l0.8,0.3L36.8,20.7z M37.9,21.1l1.1,0.5
		L37.9,21.1z M39,21.6l1,0.5L39,21.6z M40.4,22.3l0.7,0.4L40.4,22.3z M41.4,22.9l0.6,0.3L41.4,22.9z M42.3,23.5l0.5,0.3L42.3,23.5z
		 M43.2,24.1l0.5,0.3L43.2,24.1z M44.1,24.6l0.4,0.3L44.1,24.6z M44.8,25.2l0.4,0.3L44.8,25.2z M43.2,26.9c1-0.3,2.1-0.4,3.2-0.4
		h0.3l-0.5-0.4l0.5,0.4h-0.2C45.3,26.6,44.2,26.7,43.2,26.9c-1.1,0.3-2.1,0.7-3.1,1.4C41,27.7,42.1,27.2,43.2,26.9L43.2,26.9z
		 M45.5,25.7l0.4,0.3L45.5,25.7z M54.5,31.4c0-0.6-0.2-1.2-0.5-1.7c-0.2-0.3-0.4-0.5-0.6-0.8c0.2,0.2,0.4,0.5,0.6,0.8
		C54.3,30.2,54.5,30.8,54.5,31.4z"/>
	<polygon fill="none" points="143,72.9 135.1,76.5 137.1,76.5 144.4,73 	"/>
	<polygon fill="none" points="65.6,107.9 72.5,108.2 90.4,99.4 84.8,99.2 	"/>
	<polygon fill="none" points="122,82.4 124.9,82.5 133.7,78.2 131.4,78.1 	"/>
	<polygon fill="none" points="107.1,89.2 111,89.3 121.3,84.2 118.2,84.1 	"/>
	<polygon fill="none" points="88.6,97.5 93.9,97.7 107.5,91 103.2,90.9 	"/>
	<path fill="#D8204D" d="M112.2,77.4c0,0-1.3-18-1.5-22.9s-2.9-4.9-2.9-4.9l-35.8-4.8l0,0c-0.4-0.2-0.9-0.2-1.4-0.2l-32.2,3
		c-2.2,0-4,1.8-4,4l0.6,36.7c0,2.2,1.8,4,4,4l9.1-0.1c0.6,1.6,1.4,2.7,2.4,3H51c0,0,3.4-0.1,3.6-0.2c0.9-0.7,1.6-1.8,1.7-3l16.5-0.2
		c0.7,0,1.4-0.2,2-0.5l0,0l5-1c0,3.3,1.5,5,2,5h4c0.3,0,1.8-2.9,2-6.6c3.7-0.8,7.8-1.6,11.4-2.4c-0.1,1.3,0.5,2.6,1.4,3.4
		c1.1,0.1,2.2,0.1,3.3,0.1c0.7,0,1.3-2.1,1.6-4.9c1.7-0.3,3.3-0.8,4.9-1.3C112.8,82.2,112.2,77.4,112.2,77.4z M37.1,74.5L37,70.8
		l-0.3-15.7c0-1.6,1.7-2.9,3.7-2.9L68.5,50c2,0,3.7,1.3,3.7,2.9l1.2,17.5l0.2,2.9L37.1,74.5z M85.1,72l-6.9,0.6
		c-1.2,0-1-0.8-1.3-2.7l-1-18.6c0-1.7,1.5-1.4,3.2-1.4l6.4,0.7c1.8,0.3,2.4,0.4,2.4,2.1l0.8,17.6C88.8,72.1,87.3,71.9,85.1,72
		L85.1,72z M97,71l-6.1,0.5c-1,0-0.8-0.7-1.2-2.3l-0.9-16.5c0-1.5,1.4-1.2,2.8-1.2l5.7,0.6c1.5,0,2.1,0.4,2.1,1.8l0.7,15.6
		C100.3,71,99,70.9,97,71L97,71z M107.6,70l-5.4,0.5c-0.9,0-0.8-0.6-1-2.1l-0.8-14.6c0-1.3,1.1-1.3,2.5-1.1l5,0.5
		c1.3,0,1.9,0.3,1.9,1.6l0.6,13.8C110.5,70,109.3,69.9,107.6,70z"/>
</g>
</svg>
