<?xml version="1.0" encoding="utf-8"?>
<!-- Generator: Adobe Illustrator 23.0.1, SVG Export Plug-In . SVG Version: 6.00 Build 0)  -->
<svg version="1.1" id="Layer_1" xmlns="http://www.w3.org/2000/svg" xmlns:xlink="http://www.w3.org/1999/xlink" x="0px" y="0px"
     viewBox="0 0 1273 1584" style="enable-background:new 0 0 1273 1584;" xml:space="preserve">
<style type="text/css">
	.st0{fill:#E7EBE3;fill-opacity="0.5"}
</style>
<path class="st0" d="M816.517 1009.06C784.669 878.48 1003.36 698.01 1273 695.887V608.836C1030.96 612.021 825.01 711.81 760.253 874.233C678.51 722.426 647.724 695.887 591.46 626.883C535.196 557.88 526.703 536.648 512.903 457.029C498.04 355.117 664.71 76.9805 1273 49.3793V-36.6094C899.321 -28.1167 587.214 90.7812 482.117 276.559C483.178 120.506 546.874 -25.9935 671.079 -162.938C653.032 -164 636.047 -164 618 -164C597.83 -164 578.721 -164 558.551 -162.938C446.023 -20.6856 396.128 124.752 396.128 281.867C396.128 333.885 397.19 407.134 435.407 512.232C298.462 427.305 140.285 382.718 -37 382.718V467.645C292.092 461.276 517.149 677.839 552.182 723.488C593.583 780.814 713.543 900.773 741.144 1105.66C608.446 945.36 308.016 841.324 -34.8768 838.139C-32.7536 867.864 -28.5073 897.588 -23.1994 927.313C386.574 933.682 746.452 1122.65 730.528 1304.18C726.282 1347.7 712.481 1431.57 616.938 1583.37L631.801 1580.19C668.956 1570.64 705.05 1558.96 741.144 1545.16C761.314 1517.56 834.564 1403.97 840.933 1213.94C845.18 1131.14 819.702 1021.79 816.517 1009.06Z"/>
</svg>
