<?xml version="1.0" encoding="utf-8"?>
<!-- Generator: Adobe Illustrator 25.2.3, SVG Export Plug-In . SVG Version: 6.00 Build 0)  -->
<svg version="1.1" id="Layer_1" xmlns="http://www.w3.org/2000/svg" xmlns:xlink="http://www.w3.org/1999/xlink" x="0px" y="0px"
	 viewBox="0 0 140.87 82.15" style="enable-background:new 0 0 140.87 82.15;" xml:space="preserve">
<style type="text/css">
	.st0{fill:none;}
	.st1{fill:#007476;}
	.st2{fill:#D8204D;}
	.st3{fill:#FFFFFF;}
</style>
<path class="st0" d="M101.57,72.18c-0.92,0.85-1.94,1.67-3.06,2.43C99.63,73.85,100.65,73.03,101.57,72.18z"/>
<path class="st0" d="M42.06,74.61c-1.12-0.77-2.14-1.58-3.06-2.43C39.92,73.03,40.94,73.85,42.06,74.61z"/>
<ellipse transform="matrix(0.7071 -0.7071 0.7071 0.7071 12.6457 52.9896)" class="st1" cx="70.29" cy="11.23" rx="11.23" ry="11.23"/>
<path class="st1" d="M90.76,41.07c-2.08-9.4-10.45-16.44-20.48-16.44s-18.4,7.04-20.48,16.44c5.94-2.11,12.93-3.32,20.48-3.32
	S84.82,38.96,90.76,41.07z"/>
<ellipse transform="matrix(0.9871 -0.1602 0.1602 0.9871 -4.289 20.0029)" class="st1" cx="121.93" cy="36.6" rx="12.72" ry="12.72"/>
<path class="st1" d="M140.87,75.54c0-13.12-8.48-23.76-18.94-23.76c-4.81,0-9.19,2.25-12.53,5.95c0.31,1.21,0.47,2.45,0.47,3.72
	c0,5.06-2.52,9.7-6.87,13.5c0,0.2-0.01,0.39-0.01,0.59H140.87z"/>
<circle class="st1" cx="18.94" cy="36.6" r="12.72"/>
<path class="st1" d="M30.71,61.45c0-1.35,0.19-2.68,0.54-3.96c-3.31-3.56-7.61-5.71-12.31-5.71C8.48,51.78,0,62.41,0,75.54h37.88
	c0-0.11-0.01-0.22-0.01-0.34C33.35,71.35,30.71,66.62,30.71,61.45z"/>
<path class="st2" d="M98.51,48.28c1.12,0.77,2.14,1.58,3.06,2.43C100.65,49.86,99.63,49.05,98.51,48.28z"/>
<path class="st3" d="M106.86,61.45L106.86,61.45c0-0.1-0.01-0.19-0.01-0.29l0,0C106.85,61.25,106.86,61.35,106.86,61.45z"/>
<path class="st2" d="M106.85,61.16c-0.07-2.75-1.07-5.37-2.86-7.77c-0.69-0.93-1.5-1.82-2.42-2.68s-1.94-1.67-3.06-2.43
	c-2.11-1.45-4.57-2.73-7.3-3.81c-5.93-2.35-13.14-3.73-20.93-3.73c-7.78,0-15,1.38-20.93,3.73c-2.73,1.08-5.19,2.36-7.3,3.81
	c-1.12,0.77-2.14,1.58-3.06,2.43s-1.73,1.75-2.42,2.68c-0.21,0.28-0.41,0.57-0.6,0.86c-0.76,1.16-1.34,2.37-1.72,3.61
	c-0.29,0.93-0.46,1.89-0.52,2.86c-0.01,0.24-0.03,0.48-0.03,0.72v0c0,2.5,0.78,4.9,2.22,7.12c0.21,0.32,0.42,0.63,0.65,0.94
	c0.27,0.37,0.57,0.72,0.88,1.08c0.48,0.55,0.99,1.08,1.54,1.6c0.92,0.85,1.94,1.67,3.06,2.43c6.71,4.6,16.86,7.53,28.22,7.53
	s21.52-2.93,28.22-7.53c1.12-0.77,2.14-1.58,3.06-2.43c0.71-0.66,1.34-1.34,1.91-2.04c0.17-0.21,0.35-0.42,0.51-0.63
	c0.23-0.31,0.45-0.62,0.65-0.94c1.44-2.22,2.22-4.62,2.22-7.12v0C106.86,61.35,106.85,61.25,106.85,61.16z"/>
</svg>
