<?xml version="1.0" encoding="UTF-8"?>
<svg id="Layer_2" data-name="Layer 2" xmlns="http://www.w3.org/2000/svg" viewBox="0 0 103.1 99.91">
  <g id="Ikoner">
    <g>
      <path fill="#d8204d" d="M35.66,52.2c0-.12-.04-.23-.07-.34-.03-.12-.06-.24-.11-.35-.01-.03-.01-.06-.03-.09l-14.99-26.64-5.3,.09L.23,51.43s-.02,.06-.03,.09c-.05,.11-.08,.23-.11,.35-.03,.12-.06,.23-.07,.34,0,.03-.02,.06-.02,.1,0,.11,.05,.22,.05,.33,.01,.06,.01,.13,.03,.19,.45,5.75,8.05,10.19,17.76,10.19s17.31-4.44,17.76-10.19c.02-.06,.02-.12,.03-.19,0-.11,.05-.22,.05-.33,0-.03-.02-.06-.02-.1Zm-30.83-1.69l13.01-23.12,13.01,23.12H4.83Z"/>
      <path fill="#d8204d" d="M103.08,52.2c0-.12-.04-.23-.07-.34-.03-.12-.06-.24-.11-.35-.01-.03-.01-.06-.03-.09l-14.99-26.64-5.3,.09-14.93,26.55s-.01,.06-.03,.09c-.05,.11-.08,.23-.11,.35-.03,.12-.06,.23-.07,.34,0,.03-.02,.06-.02,.1,0,.11,.05,.22,.05,.33,.01,.06,.01,.13,.03,.19,.45,5.75,8.05,10.19,17.76,10.19s17.31-4.44,17.76-10.19c.02-.06,.02-.12,.03-.19,0-.11,.05-.22,.05-.33,0-.03-.02-.06-.02-.1Zm-30.83-1.69l13.01-23.12,13.01,23.12h-26.01Z"/>
      <rect class="cls-2" x="10.18" y="23.49" width="82.99" height="2.78" rx="1.39" ry="1.39"/>
      <g>
        <path fill="#037576" d="M71.24,89.2h-1.78v-1.78c0-2.95-2.4-5.35-5.35-5.35h-24.98c-2.95,0-5.35,2.4-5.35,5.35v1.78h-1.78c-2.95,0-5.35,2.4-5.35,5.35v3.57c0,.99,.8,1.78,1.78,1.78h46.39c.99,0,1.78-.8,1.78-1.78v-3.57c0-2.95-2.4-5.35-5.35-5.35Z"/>
        <path fill="#037576" d="M53.4,25.31V14.02c3.07-.8,5.35-3.57,5.35-6.88,0-3.94-3.2-7.14-7.14-7.14s-7.14,3.2-7.14,7.14c0,3.32,2.28,6.09,5.35,6.88v11.29m-3.57-.53v53.72h10.7V24.8"/>
      </g>
    </g>
  </g>
</svg>
