<?xml version="1.0" encoding="utf-8"?>
<!-- Generator: Adobe Illustrator 25.2.3, SVG Export Plug-In . SVG Version: 6.00 Build 0)  -->
<svg version="1.1" id="Layer_1" xmlns="http://www.w3.org/2000/svg" xmlns:xlink="http://www.w3.org/1999/xlink" x="0px" y="0px"
	 viewBox="0 0 91.73 87.9" style="enable-background:new 0 0 91.73 87.9;" xml:space="preserve">
<style type="text/css">
	.st0{fill:#006E73;}
	.st1{fill:#D51342;}
	.st2{fill:#FFFFFF;}
</style>
<g>
	<path class="st0" d="M72.43,87.9H10.1c-1.63,0-2.95-1.32-2.95-2.95V60.65c0-1.11,0.9-2,2-2h67.22v25.32
		C76.37,86.14,74.61,87.9,72.43,87.9z"/>
	<g>
		<path class="st0" d="M21.68,38.45l-13.57,16C7.42,55.27,8,56.53,9.07,56.53h68.92l0.26-0.38v29.01c0,1.23,1.49,1.85,2.37,0.99
			l9.55-9.47c1-0.99,1.57-2.35,1.57-3.76V39.81c0-1.71-1.39-3.1-3.1-3.1H25.46C24,36.7,22.62,37.34,21.68,38.45z M72.68,48.22
			l-48.18,0c-1.06,0-2.04-0.76-2.13-1.82c-0.1-1.19,0.83-2.18,1.99-2.18h48.18c1.06,0,2.04,0.76,2.13,1.82
			C74.77,47.23,73.84,48.22,72.68,48.22z"/>
	</g>
	<g>
		<path class="st0" d="M39.88,9.58C39,8.64,37.79,7.53,36.52,6.35c-0.64-0.59-1.28-1.18-1.89-1.75l-3.65-3.46
			c-0.27-0.35-1.48-1.67-4.18-0.92c-1.59,0.44-3.39,1.07-5.13,1.67C20.51,2.3,19.41,2.68,18.4,3c-2.35,0.74-3.84,1.42-4.11,1.54
			c-0.41,0.12-1.56,0.37-2.26,0.14C10.99,4.33,7.1,2.63,7.06,2.61C6.9,2.55,6.73,2.54,6.57,2.61C6.41,2.67,6.29,2.79,6.22,2.95
			L0.05,17.66c-0.07,0.16-0.07,0.34,0,0.5c0.07,0.16,0.2,0.28,0.37,0.34l5.37,1.9c-0.27,0.8-0.59,2.1-0.18,2.99
			c0.54,1.18,0.85,1.46,2.25,1.96c1.2,0.43,9.23,4.09,9.31,4.13c0.08,0.04,0.17,0.06,0.26,0.06c0.19,0,0.37-0.08,0.49-0.24
			c0.13-0.16,1.24-1.7-0.34-5.02c-0.77-1.62-1.26-2.47-1.58-3.04c-0.29-0.52-0.46-0.8-0.62-1.27c-0.36-1.03-0.49-2.05-0.36-2.87
			c0.15-0.97,0.36-1.66,0.98-2.3l0.21-0.23c0.78-0.82,2.08-2.2,3.99-2.95c1.82-0.71,3.49-1.45,4.6-1.94l0.66-0.29
			c1.1-0.48,2.08-0.81,2.8,0.02c0.92,1.06,3.45,3.43,4.96,4.85l0.69,0.65c1.36,1.29,4.29,1.13,5.4,0.07
			C40.39,13.97,41.5,11.29,39.88,9.58z"/>
		<path class="st1" d="M29.31,45.51c-0.52,0-0.98-0.32-1.17-0.8l-9.88-25c-0.88-2.23,0.22-4.77,2.45-5.65l6.48-2.56
			c0.54-0.22,1.17-0.03,1.5,0.46c0.05,0.07,5.34,7.57,10.88,5.62c1.14-0.4,1.88-1.07,2.27-2.04c1-2.52-0.54-6.52-1.22-7.85
			c-0.16-0.32-0.18-0.69-0.06-1.02c0.13-0.33,0.39-0.6,0.72-0.73l8.09-3.2c1.08-0.43,2.26-0.41,3.33,0.05
			C53.75,3.25,54.58,4.1,55,5.18l14.84,37.56c0.16,0.41,0.26,1.03,0.29,1.21c0.05,0.36-0.05,0.73-0.29,1.01
			c-0.24,0.28-0.59,0.44-0.95,0.44L29.31,45.51C29.31,45.51,29.31,45.51,29.31,45.51z M27.21,14.2l-5.58,2.21
			c-0.94,0.37-1.4,1.43-1.03,2.37l9.56,24.2l37.01-0.11L52.65,6.11c-0.18-0.45-0.53-0.81-0.97-1.01c-0.45-0.19-0.95-0.2-1.4-0.02
			l-6.87,2.71c0.77,1.93,1.94,5.7,0.76,8.67c-0.66,1.67-1.93,2.84-3.77,3.49C34.28,22.11,28.97,16.4,27.21,14.2z"/>
		<path class="st2" d="M54.85,35.83c-0.19,0-0.38-0.04-0.56-0.13L32.81,25.17c-0.63-0.31-0.89-1.06-0.58-1.69
			c0.31-0.63,1.06-0.89,1.69-0.58l21.49,10.53c0.63,0.31,0.89,1.06,0.58,1.69C55.77,35.57,55.32,35.83,54.85,35.83z"/>
		<path class="st2" d="M40.37,41.53c-0.13,0-0.27-0.02-0.4-0.06c-0.66-0.22-1.02-0.93-0.8-1.6l7.51-22.73
			c0.22-0.66,0.93-1.02,1.6-0.8c0.66,0.22,1.02,0.93,0.8,1.6l-7.51,22.73C41.4,41.2,40.9,41.53,40.37,41.53z"/>
	</g>
	<path class="st1" d="M51.68,5.1c-0.45-0.19-0.95-0.2-1.4-0.02l-6.87,2.71c0.77,1.93,1.94,5.7,0.76,8.67
		c-0.66,1.67-1.93,2.84-3.77,3.49c-6.12,2.16-11.42-3.55-13.18-5.75l-5.58,2.21c-0.94,0.37-1.4,1.43-1.03,2.37l9.56,24.2l37.01-0.11
		L52.65,6.11C52.47,5.65,52.13,5.3,51.68,5.1z M55.99,35.12c-0.22,0.45-0.67,0.71-1.14,0.71c-0.19,0-0.38-0.04-0.56-0.13l-9.54-4.67
		l-3.19,9.64c-0.18,0.53-0.67,0.87-1.2,0.87c-0.13,0-0.27-0.02-0.4-0.06c-0.66-0.22-1.02-0.93-0.8-1.6l3.3-9.97l-9.66-4.73
		c-0.63-0.31-0.89-1.06-0.58-1.69c0.31-0.63,1.06-0.89,1.69-0.58l9.35,4.58l3.42-10.34c0.22-0.66,0.93-1.02,1.6-0.8
		c0.66,0.22,1.02,0.93,0.8,1.6l-3.53,10.67l9.85,4.83C56.04,33.74,56.29,34.5,55.99,35.12z"/>
	<g>
		<path class="st2" d="M20.29,68.51l2.98,8.83l2.99-8.9c0.16-0.47,0.27-0.79,0.35-0.98c0.08-0.18,0.21-0.35,0.39-0.49
			c0.18-0.15,0.43-0.22,0.74-0.22c0.23,0,0.44,0.06,0.63,0.17c0.19,0.11,0.35,0.26,0.46,0.45c0.11,0.19,0.17,0.38,0.17,0.57
			c0,0.13-0.02,0.27-0.05,0.43c-0.04,0.15-0.08,0.3-0.13,0.45c-0.05,0.15-0.11,0.3-0.16,0.45l-3.19,8.61
			c-0.11,0.33-0.23,0.64-0.34,0.94c-0.11,0.3-0.25,0.56-0.4,0.78c-0.15,0.23-0.35,0.41-0.6,0.55s-0.55,0.22-0.91,0.22
			c-0.36,0-0.66-0.07-0.91-0.21c-0.25-0.14-0.45-0.33-0.6-0.56c-0.15-0.23-0.29-0.49-0.4-0.79c-0.11-0.29-0.23-0.6-0.34-0.93
			l-3.14-8.54c-0.05-0.16-0.11-0.31-0.17-0.46c-0.06-0.15-0.1-0.31-0.14-0.48c-0.04-0.17-0.06-0.32-0.06-0.44
			c0-0.31,0.12-0.58,0.37-0.84c0.25-0.25,0.55-0.38,0.93-0.38c0.45,0,0.78,0.14,0.97,0.42C19.9,67.45,20.09,67.9,20.29,68.51z"/>
		<path class="st2" d="M38.5,78.67l-0.63-1.65h-5.36l-0.63,1.69c-0.25,0.66-0.46,1.1-0.63,1.33c-0.17,0.23-0.46,0.35-0.85,0.35
			c-0.34,0-0.63-0.12-0.89-0.37c-0.26-0.25-0.39-0.52-0.39-0.84c0-0.18,0.03-0.36,0.09-0.56c0.06-0.19,0.16-0.46,0.3-0.8l3.37-8.56
			c0.1-0.25,0.21-0.54,0.35-0.89c0.14-0.34,0.28-0.63,0.43-0.86c0.15-0.23,0.35-0.41,0.6-0.55c0.25-0.14,0.56-0.21,0.92-0.21
			c0.37,0,0.68,0.07,0.93,0.21c0.25,0.14,0.45,0.32,0.6,0.54c0.15,0.22,0.28,0.46,0.39,0.71c0.1,0.25,0.24,0.59,0.4,1.02l3.44,8.5
			c0.27,0.65,0.4,1.12,0.4,1.41c0,0.3-0.13,0.59-0.38,0.84c-0.25,0.25-0.56,0.38-0.92,0.38c-0.21,0-0.39-0.04-0.54-0.11
			c-0.15-0.08-0.28-0.18-0.38-0.31c-0.1-0.13-0.21-0.33-0.33-0.59C38.68,79.11,38.58,78.87,38.5,78.67z M33.21,75.01h3.94
			l-1.99-5.44L33.21,75.01z"/>
		<path class="st2" d="M45.92,68.37v9.59h5.41c0.43,0,0.76,0.1,0.99,0.31c0.23,0.21,0.35,0.47,0.35,0.79c0,0.32-0.11,0.59-0.34,0.79
			c-0.23,0.2-0.56,0.3-1,0.3h-6.44c-0.58,0-1-0.13-1.25-0.39c-0.25-0.26-0.38-0.67-0.38-1.25V68.37c0-0.54,0.12-0.94,0.36-1.21
			c0.24-0.27,0.56-0.4,0.96-0.4c0.4,0,0.73,0.13,0.97,0.4C45.8,67.42,45.92,67.83,45.92,68.37z"/>
		<path class="st2" d="M65.3,74.8v2.53c0,0.34-0.03,0.6-0.1,0.8c-0.07,0.2-0.19,0.38-0.36,0.54c-0.18,0.16-0.4,0.32-0.68,0.47
			c-0.8,0.43-1.56,0.75-2.3,0.94c-0.74,0.2-1.54,0.3-2.41,0.3c-1.01,0-1.94-0.16-2.77-0.47c-0.83-0.31-1.54-0.76-2.13-1.36
			c-0.59-0.59-1.04-1.31-1.35-2.16c-0.31-0.84-0.47-1.79-0.47-2.83c0-1.02,0.15-1.96,0.46-2.81c0.31-0.85,0.75-1.57,1.35-2.17
			c0.59-0.59,1.31-1.05,2.17-1.36c0.85-0.31,1.82-0.47,2.89-0.47c0.89,0,1.67,0.12,2.35,0.35c0.68,0.24,1.24,0.53,1.66,0.89
			c0.43,0.36,0.75,0.74,0.96,1.14c0.22,0.4,0.32,0.76,0.32,1.07c0,0.34-0.12,0.62-0.37,0.86c-0.25,0.24-0.55,0.36-0.89,0.36
			c-0.19,0-0.38-0.05-0.55-0.14c-0.18-0.09-0.33-0.22-0.44-0.38c-0.33-0.52-0.61-0.91-0.84-1.17c-0.23-0.26-0.54-0.49-0.92-0.67
			c-0.39-0.18-0.88-0.27-1.48-0.27c-0.62,0-1.17,0.11-1.65,0.32c-0.49,0.21-0.9,0.52-1.25,0.93c-0.34,0.4-0.61,0.9-0.79,1.49
			s-0.27,1.24-0.27,1.95c0,1.55,0.35,2.74,1.06,3.57c0.71,0.83,1.7,1.25,2.97,1.25c0.62,0,1.2-0.08,1.74-0.24
			c0.54-0.16,1.09-0.39,1.65-0.69v-2.14h-2.07c-0.5,0-0.87-0.08-1.13-0.23c-0.25-0.15-0.38-0.4-0.38-0.76
			c0-0.29,0.11-0.54,0.32-0.73c0.21-0.19,0.5-0.29,0.87-0.29h3.03c0.37,0,0.69,0.03,0.94,0.1c0.26,0.07,0.47,0.21,0.63,0.44
			C65.22,74,65.3,74.35,65.3,74.8z"/>
	</g>
</g>
</svg>
