<?xml version="1.0" encoding="utf-8"?>
<!-- Generator: Adobe Illustrator 25.3.1, SVG Export Plug-In . SVG Version: 6.00 Build 0)  -->
<svg version="1.1" id="Layer_1" xmlns="http://www.w3.org/2000/svg" xmlns:xlink="http://www.w3.org/1999/xlink" x="0px" y="0px"
	 viewBox="0 0 229.2 213.8" style="enable-background:new 0 0 229.2 213.8;" xml:space="preserve">
<g id="Ikoner">
	<path fill="#D8204D" d="M85.5,83.6c-0.1-22.6,5.7-44.9,17-64.5c-12.4-11.2-30.3-21-54-18.8C30.1,2,15.3,12.2,7.2,29.1
		C-4.5,53-0.7,83.7,9.6,99.6c0.7,1.1,1.5,2.3,2.4,3.5c30.2,1.6,57.4,9.9,81,24.7C87.8,113.7,85.2,98.7,85.5,83.6z"/>
	<path fill="#D8204D" d="M108.1,117.3c2.7,15.3,4.3,19.1,15.1,32.3c8.6,10.6,14.1,15.9,23.9,32.5c24.6-25.9,61.9-66.1,72.6-82.5
		c8.6-13.2,12.6-36.8,7-58.1C132,53,105.4,99.3,108.1,117.3z"/>
	<path fill="#D8204D" d="M219.9,25.1c-8.5-14.5-22.3-23.2-39.3-24.8c-32.9-3-54.6,17-66,31.9l0,0c-8.1,15.6-12.4,33-12.6,50.6
		C119,52.8,163.6,32,219.9,25.1z"/>
	<path fill="#D8204D" d="M26.3,120.9c27.9,32.7,75.8,82,78.3,84.6c2.1,2.1,9.2,8.5,10,8.3c0.8,0.2,7.9-6.1,10-8.3
		c0.7-0.7,4.5-4.6,10.3-10.6c-7.5-12.2-15.4-20.9-19.5-26.4C109.7,160.7,76.4,128.4,26.3,120.9z"/>
	<path fill="#FFFFFF" d="M123.2,149.6c-10.8-13.3-12.4-17-15.1-32.3c-2.7-18,23.9-64.3,118.5-75.8c-1.1-4.3-2.6-8.4-4.5-12.4
		c-0.7-1.4-1.4-2.7-2.2-4c-56.3,7-100.9,27.7-117.8,57.7c0.2-17.6,4.5-34.9,12.6-50.6c-3.6-4.7-7.6-9-12-13
		c-11.3,19.6-17.1,41.9-17,64.5c-0.3,15.1,2.3,30.1,7.6,44.2c-23.7-14.8-50.9-23-81-24.7c3.5,4.8,8.4,10.9,14.2,17.8
		c50.1,7.5,83.4,39.9,89.1,47.6c4.1,5.5,12,14.1,19.5,26.4c3.4-3.6,7.6-7.9,12.1-12.7C137.2,165.5,131.7,160.2,123.2,149.6z"/>
</g>
</svg>
