<svg xmlns="http://www.w3.org/2000/svg" viewBox="0 0 130.01 127.42"><title>logo</title><g id="Lag_2" data-name="Lag 2"><g id="Lag_1-2" data-name="Lag 1"><path d="M129.1,68c-4.26-18.62-14.86-32-31.37-41.45C82,17.62,62.36,15,49.17,1.93c-.88-.87-3.22-2.87-3.8-1.42C37.66,19.65,19.53,31.39,8.08,47.94c-13.92,20.13-8.17,45.79,4.47,65.9.87,1.39,2.86,3.12,3.33,1.27,3.38-13.4,10.55-24.29,25.48-24.78,13.53-.45,25.9,3.95,31.28,16.46.64,1.49,4.55,4.82,5.33,3.53,4.4-7.33,9.21-10.79,16.47-6s9.36,14.54,9.08,22.18c-.07,1.82,3.23.53,4.1-.3C124,110.51,133,90.36,129.1,68ZM95.9,86.17c0,4.81-3,8.3-7.77,8.3S77.27,91,77.27,86.17s6-8.47,10.86-8.47S95.9,81.35,95.9,86.17ZM58.8,66.26C58.8,74.62,53,81,44.59,81S27.31,74.62,27.31,66.26s8.92-14.9,17.29-14.9S58.8,57.89,58.8,66.26Z"/></g></g></svg>