<svg width="196" height="75" viewBox="0 0 196 75" fill="none" xmlns="http://www.w3.org/2000/svg">
<path d="M80.9044 18.8245V16.9258H70.4824V36.945H72.6657C72.6657 36.945 72.6657 27.699 72.6657 27.4101C72.954 27.4101 80.3689 27.4101 80.3689 27.4101V25.5526C80.3689 25.5526 72.954 25.5526 72.6657 25.5526V18.8245C72.954 18.8245 80.9044 18.8245 80.9044 18.8245Z" fill="#1D1D1B"/>
<path d="M92.1505 23.4464C91.203 22.497 89.926 22.043 88.1959 22.043C85.3535 22.043 83.4586 23.3225 83.2114 23.5289L83.1291 23.6115L83.1702 23.694L83.9117 24.9323L83.9941 25.0562L84.1177 24.9736C84.1177 24.9736 84.1589 24.9736 84.1589 24.9323C85.6419 24.0655 87.0425 23.8591 87.9487 23.8591C89.1433 23.8591 90.0084 24.1068 90.5439 24.6434C91.1618 25.3038 91.203 26.2532 91.203 27.5328V27.9043H90.6263C88.5666 27.9043 82.3052 27.9043 82.3052 32.6924C82.3052 35.3754 84.2001 37.1503 87.0013 37.1503C88.443 37.1503 90.0084 36.6962 91.3678 35.912V36.8614H93.3039V27.6566C93.3039 25.5102 93.1391 24.4783 92.1505 23.4464ZM91.2442 34.2609C91.203 34.2609 91.203 34.3022 91.1618 34.3022C90.5851 34.5911 89.061 35.3754 87.4544 35.3754C85.2711 35.3754 84.4884 34.0545 84.4884 32.8162C84.4884 30.7937 86.5481 29.7617 90.6263 29.7617H91.2854V34.2609H91.2442Z" fill="#1D1D1B"/>
<path d="M107.104 22.4531L107.062 22.5357L102.531 34.4647L97.9997 22.5357L97.9585 22.4531H95.6929L95.7341 22.6182L101.254 36.8175L101.295 36.9H103.602L103.643 36.8175L109.204 22.6182L109.287 22.4531H107.104Z" fill="#1D1D1B"/>
<path d="M120.203 22.2906C120.039 22.2081 119.627 22.043 118.679 22.043C116.496 22.043 115.095 23.1987 114.354 24.0243V22.4145H112.376V36.9026H114.436V26.377C114.436 26.377 114.477 26.3358 114.477 26.2945C115.713 24.3957 117.402 23.983 118.597 23.983C119.132 23.983 119.462 24.0243 119.709 24.0655H119.75H119.874L119.915 23.9417L120.327 22.4557L120.368 22.3319L120.203 22.2906Z" fill="#1D1D1B"/>
<path d="M127.248 28.606L126.877 28.4409L126.383 28.2345C125.023 27.6979 123.911 27.2438 123.911 25.8817C123.911 24.726 125.106 23.9004 126.795 23.9004C127.866 23.9004 129.019 24.2306 130.09 24.8498H130.131L130.255 24.9323L130.337 24.8085L131.038 23.5289L131.079 23.4464L130.996 23.3638C130.832 23.1987 129.101 22.043 126.63 22.043C123.746 22.043 121.769 23.6528 121.769 25.923C121.769 28.5647 123.581 29.2664 125.682 30.092L125.765 30.1332L126.177 30.2983C127.577 30.8349 129.184 31.4128 129.184 33.0639C129.184 34.5086 127.989 35.3754 125.93 35.3754C123.952 35.3754 122.181 34.2196 122.14 34.2196L122.016 34.1371L121.934 34.2609L121.151 35.623L121.11 35.7056L121.192 35.7882C121.357 35.9533 123.334 37.2328 126.053 37.2328C129.307 37.2328 131.326 35.5405 131.326 32.8575C131.408 30.2158 129.101 29.3077 127.248 28.606Z" fill="#1D1D1B"/>
<path d="M146.196 36.6543L138.74 29.0181L145.578 22.7027L145.867 22.4551H143.107L143.066 22.4964L136.722 28.5228V15.3555H134.662V36.902H136.722V29.6373L143.642 36.8607L143.684 36.902H146.444L146.196 36.6543Z" fill="#1D1D1B"/>
<path d="M158.76 24.1459C157.607 22.7837 155.959 22.082 154.023 22.082C149.945 22.082 147.309 25.054 147.309 29.677C147.309 34.3 149.863 37.2719 153.858 37.2719C157.895 37.2719 160.491 34.3412 160.491 29.8008C160.532 27.448 159.914 25.508 158.76 24.1459ZM153.941 35.4144C151.304 35.4144 149.451 33.0204 149.451 29.6357C149.451 26.1684 151.181 23.9395 153.9 23.9395C156.495 23.9395 158.39 26.3748 158.39 29.7595C158.431 33.2681 156.742 35.4144 153.941 35.4144Z" fill="#1D1D1B"/>
<path d="M173.467 22.4531L173.426 22.5357L168.895 34.4647L164.322 22.5357L164.281 22.4531H162.015L162.098 22.6182L167.617 36.8175L167.659 36.9H169.966L170.007 36.8175L175.527 22.6182L175.609 22.4531H173.467Z" fill="#1D1D1B"/>
<path d="M83.788 62.6561L74.5606 52.7084L83.3349 43.1734L83.582 42.9258H81.028L80.9868 42.9671L72.6245 51.9654V42.9258H70.4824V62.9038H72.6245V53.7403L81.234 62.8625L81.2752 62.9038H84.0352L83.788 62.6561Z" fill="#929292"/>
<path d="M96.2287 50.1498C95.0753 48.7876 93.4275 48.0859 91.4914 48.0859C87.4133 48.0859 84.7769 51.0579 84.7769 55.6809C84.7769 60.3039 87.3309 63.2758 91.3267 63.2758C95.3636 63.2758 97.9589 60.3451 97.9589 55.8047C98.0001 53.4519 97.3821 51.5119 96.2287 50.1498ZM91.409 61.4184C88.7726 61.4184 86.9189 59.0243 86.9189 55.6396C86.9189 52.1723 88.6491 49.9434 91.3679 49.9434C93.9631 49.9434 95.858 52.3787 95.858 55.7634C95.858 59.272 94.2102 61.4184 91.409 61.4184Z" fill="#929292"/>
<path d="M119.544 49.3242C118.761 48.54 117.608 48.0859 116.29 48.0859C114.56 48.0859 113.035 48.5813 111.182 49.6957C110.358 48.5813 109.204 48.0859 107.639 48.0859C105.785 48.0859 104.014 48.9527 103.314 49.3655V48.4574H101.336V62.9456H103.396V51.3055C103.767 51.0991 105.579 50.0259 107.474 50.0259C108.298 50.0259 108.998 50.2736 109.452 50.7277C110.193 51.4706 110.193 52.7089 110.193 54.8141V62.9869H112.253V54.6077V54.4838C112.253 53.4106 112.253 51.966 112.006 51.3055C112.541 51.0166 114.312 50.1085 116.125 50.1085C117.031 50.1085 117.649 50.3149 118.143 50.8102C118.926 51.5945 118.926 53.617 118.926 54.36V63.0281H120.986V55.0617C120.986 52.5026 120.986 50.7277 119.544 49.3242Z" fill="#929292"/>
<path d="M143.684 49.3242C142.901 48.54 141.748 48.0859 140.429 48.0859C138.699 48.0859 137.175 48.5813 135.321 49.6957C134.498 48.5813 133.344 48.0859 131.779 48.0859C129.925 48.0859 128.154 48.9527 127.453 49.3655V48.4574H125.476V62.9456H127.536V51.3055C127.907 51.0991 129.719 50.0259 131.614 50.0259C132.438 50.0259 133.138 50.2736 133.591 50.7277C134.333 51.4706 134.333 52.7089 134.333 54.8141V62.9869H136.392V54.6077V54.4838C136.392 53.4106 136.392 51.966 136.145 51.3055C136.681 51.0166 138.452 50.1085 140.265 50.1085C141.171 50.1085 141.789 50.3149 142.283 50.8102C143.066 51.5945 143.066 53.617 143.066 54.36V63.0281H145.125V55.0617C145.125 52.5026 145.125 50.7277 143.684 49.3242Z" fill="#929292"/>
<path d="M158.431 48.457V60.0558C158.431 60.0558 158.39 60.0558 158.39 60.0971C156.866 60.9639 155.465 61.3767 154.271 61.3767C153.405 61.3767 152.705 61.0877 152.17 60.5511C151.387 59.7669 151.387 58.5286 151.387 57.0426V48.457H149.327V56.7124V57.1252C149.327 58.6524 149.286 60.5924 150.645 61.9133C151.511 62.7801 152.705 63.2341 154.188 63.2341C156.248 63.2341 157.937 62.3673 158.637 61.9546V62.9452H160.573V48.457H158.431Z" fill="#929292"/>
<path d="M175.074 49.3242C174.002 48.251 172.519 48.0859 171.696 48.0859C169.636 48.0859 167.865 48.994 167.206 49.3655V48.4574H165.187V62.9456H167.247V51.3055C167.535 51.1404 169.512 49.9847 171.448 49.9847C172.272 49.9847 173.096 50.2736 173.549 50.7277C174.332 51.5119 174.332 52.7089 174.332 54.36V62.9456H176.392V54.2362C176.392 51.5945 176.186 50.4387 175.074 49.3242Z" fill="#929292"/>
<path d="M186.567 48.0859C182.571 48.0859 179.976 51.0991 179.976 55.7634C179.976 60.3039 182.612 63.1933 186.69 63.1933C189.697 63.1933 191.798 61.7898 191.839 61.666L191.881 61.5835L191.839 61.5009L191.057 60.1388L190.974 60.0149L190.851 60.0975C190.851 60.0975 190.81 60.1388 190.768 60.1388C189.533 60.8405 188.214 61.212 186.814 61.212C183.971 61.212 182.159 59.272 182.118 56.1349H192.251V55.9698C192.251 55.8047 192.251 55.557 192.293 55.3507C192.293 55.1856 192.334 55.0617 192.334 55.0204C192.293 50.8515 190.068 48.0859 186.567 48.0859ZM190.192 54.36H182.159C182.365 51.677 184.136 49.8608 186.608 49.8608C189.368 49.9021 190.15 52.6264 190.192 54.36Z" fill="#929292"/>
<path d="M5.1493 7.84188L3.70752 8.37848V40.0791C3.74871 54.8149 13.9648 67.652 28.5474 71.3256L29.1241 71.4495L29.7008 71.3256C44.2834 67.652 54.4995 54.8149 54.5406 40.0791V8.3372L53.0989 7.8006C45.272 4.9525 37.1981 3.50781 29.1241 3.50781C20.9677 3.50781 12.8937 4.9525 5.1493 7.84188Z" fill="white"/>
<path d="M5.1493 7.84188L3.70752 8.37848V40.0791C3.74871 54.8149 13.9648 67.652 28.5474 71.3256L29.1241 71.4495L29.7008 71.3256C44.2834 67.652 54.4995 54.8149 54.5406 40.0791V8.3372L53.0989 7.8006C45.272 4.9525 37.1981 3.50781 29.1241 3.50781C20.9677 3.50781 12.8937 4.9525 5.1493 7.84188Z" stroke="white" stroke-width="3"/>
<path d="M54.4997 33.5163V11.8047C30.8957 12.8779 24.4695 23.6924 25.0462 27.655C25.5817 30.7507 25.9112 31.535 28.0945 34.218C30.2778 36.901 31.4724 37.9329 34.6443 43.8768C37.1571 37.5614 45.1075 33.6401 54.4997 33.5163Z" fill="#006E73"/>
<path d="M23.8516 20.6394C27.9297 13.4159 39.9995 8.79294 54.4997 8.46273V8.38017L53.0579 7.84357C45.9314 5.20185 38.5989 3.79844 31.1841 3.55078C26.3644 8.87549 23.8928 14.5717 23.8516 20.6394Z" fill="#006E73"/>
<path d="M33.9026 52.8752C32.8315 44.9088 28.1766 40.2445 26.5701 38.0156C25.2107 36.2407 16.4776 27.8202 3.70752 28.0679V40.0794C3.70752 40.8637 3.74871 41.6892 3.78991 42.4735C17.0955 42.5973 28.7533 46.6424 33.9026 52.8752Z" fill="#006E73"/>
<path d="M36.7861 49.079C36.9097 49.6156 37.8983 53.8671 37.7747 57.0867C37.4864 64.6816 34.5204 69.057 33.8613 69.9651C46.1783 65.0944 54.4582 53.3305 54.4994 40.0807V36.9023C44.0362 36.9849 35.5503 44.002 36.7861 49.079Z" fill="#006E73"/>
<path d="M22.0388 29.8028C20.5558 25.7164 20.5146 22.8683 20.5146 20.8458C20.5146 14.6955 22.4507 9.0406 26.8172 3.55078C19.4435 3.79844 12.1522 5.24313 5.1493 7.84357L3.70752 8.38017V24.7258C10.5869 24.7671 16.7248 26.5007 22.0388 29.8028Z" fill="#006E73"/>
<path d="M33.5319 60.5127C34.1498 53.4543 20.1852 46.107 4.24316 45.8594C6.55002 58.0773 15.901 68.1489 28.5475 71.3272C28.5475 71.3272 28.9594 71.4098 29.083 71.451C32.8316 65.5072 33.3672 62.205 33.5319 60.5127Z" fill="#006E73"/>
</svg>
