<svg width="211" height="79" viewBox="0 0 211 79" fill="none" xmlns="http://www.w3.org/2000/svg">
<path d="M87.3888 18.9046V16.8086H75.8608V38.9076H78.2758C78.2758 38.9076 78.2758 28.7011 78.2758 28.3821C78.5947 28.3821 86.7964 28.3821 86.7964 28.3821V26.3317C86.7964 26.3317 78.5947 26.3317 78.2758 26.3317V18.9046C78.5947 18.9046 87.3888 18.9046 87.3888 18.9046Z" fill="white"/>
<path d="M99.8281 24.0082C98.7801 22.9602 97.3676 22.459 95.4539 22.459C92.3099 22.459 90.2139 23.8715 89.9405 24.0993L89.8494 24.1905L89.895 24.2816L90.7151 25.6485L90.8063 25.7852L90.943 25.6941C90.943 25.6941 90.9885 25.6941 90.9885 25.6485C92.6289 24.6917 94.1781 24.4638 95.1805 24.4638C96.5019 24.4638 97.4588 24.7372 98.0511 25.3296C98.7346 26.0586 98.7801 27.1066 98.7801 28.5191V28.9292H98.1422C95.864 28.9292 88.9381 28.9292 88.9381 34.2148C88.9381 37.1765 91.0341 39.1358 94.1325 39.1358C95.7273 39.1358 97.4588 38.6346 98.9624 37.7688V38.8168H101.104V28.6558C101.104 26.2864 100.922 25.1473 99.8281 24.0082ZM98.8257 35.9462C98.7801 35.9462 98.7802 35.9918 98.7346 35.9918C98.0967 36.3107 96.4108 37.1765 94.6337 37.1765C92.2188 37.1765 91.3531 35.7184 91.3531 34.3514C91.3531 32.1188 93.6313 30.9796 98.1422 30.9796H98.8713V35.9462H98.8257Z" fill="white"/>
<path d="M116.368 22.9146L116.323 23.0057L111.31 36.174L106.298 23.0057L106.253 22.9146H103.747L103.792 23.0968L109.898 38.7712L109.944 38.8623H112.495L112.541 38.7712L118.692 23.0968L118.783 22.9146H116.368Z" fill="white"/>
<path d="M130.858 22.7324C130.676 22.6412 130.22 22.459 129.172 22.459C126.757 22.459 125.208 23.7348 124.388 24.6461V22.8691H122.201V38.8624H124.479V27.2433C124.479 27.2433 124.524 27.1977 124.524 27.1522C125.891 25.0562 127.759 24.6005 129.081 24.6005C129.673 24.6005 130.038 24.6461 130.311 24.6917H130.357H130.493L130.539 24.555L130.995 22.9146L131.04 22.7779L130.858 22.7324Z" fill="white"/>
<path d="M138.649 29.7038L138.239 29.5216L137.693 29.2937C136.189 28.7014 134.959 28.2002 134.959 26.6965C134.959 25.4207 136.28 24.5094 138.148 24.5094C139.333 24.5094 140.609 24.8739 141.793 25.5574H141.839L141.976 25.6485L142.067 25.5118L142.841 24.0993L142.887 24.0082L142.796 23.9171C142.614 23.7348 140.7 22.459 137.966 22.459C134.776 22.459 132.589 24.236 132.589 26.7421C132.589 29.6583 134.594 30.4329 136.918 31.3442L137.009 31.3897L137.465 31.572C139.014 32.1643 140.791 32.8022 140.791 34.6248C140.791 36.2196 139.47 37.1765 137.191 37.1765C135.004 37.1765 133.045 35.9007 132.999 35.9007L132.863 35.8095L132.772 35.9462L131.906 37.4499L131.86 37.541L131.951 37.6321C132.134 37.8144 134.321 39.2269 137.328 39.2269C140.928 39.2269 143.16 37.3587 143.16 34.397C143.251 31.4809 140.7 30.4784 138.649 29.7038Z" fill="white"/>
<path d="M159.609 38.5887L151.362 30.1592L158.926 23.1877L159.245 22.9143H156.192L156.146 22.9599L149.129 29.6124V15.0771H146.851V38.8621H149.129V30.8426L156.784 38.8165L156.83 38.8621H159.883L159.609 38.5887Z" fill="white"/>
<path d="M173.507 24.7826C172.231 23.279 170.408 22.5044 168.267 22.5044C163.756 22.5044 160.84 25.7851 160.84 30.8884C160.84 35.9916 163.665 39.2723 168.084 39.2723C172.55 39.2723 175.42 36.0372 175.42 31.025C175.466 28.4278 174.782 26.2863 173.507 24.7826ZM168.176 37.2219C165.259 37.2219 163.209 34.5791 163.209 30.8428C163.209 27.0153 165.123 24.5548 168.13 24.5548C171.001 24.5548 173.097 27.2432 173.097 30.9795C173.142 34.8525 171.274 37.2219 168.176 37.2219Z" fill="white"/>
<path d="M189.773 22.9146L189.728 23.0057L184.716 36.174L179.658 23.0057L179.612 22.9146H177.106L177.197 23.0968L183.303 38.7712L183.349 38.8623H185.9L185.946 38.7712L192.052 23.0968L192.143 22.9146H189.773Z" fill="white"/>
<path d="M90.5783 67.2947L80.3718 56.3136L90.0771 45.788L90.3505 45.5146H87.5255L87.4799 45.5602L78.2302 55.4934V45.5146H75.8608V67.5681H78.2302V57.4527L87.7533 67.5225L87.7989 67.5681H90.8517L90.5783 67.2947Z" fill="white"/>
<path d="M104.339 53.4882C103.063 51.9846 101.241 51.21 99.0992 51.21C94.5883 51.21 91.6721 54.4906 91.6721 59.5939C91.6721 64.6972 94.4971 67.9779 98.917 67.9779C103.382 67.9779 106.253 64.7428 106.253 59.7306C106.298 57.1334 105.615 54.9919 104.339 53.4882ZM99.0081 65.9275C96.0919 65.9275 94.0415 63.2847 94.0415 59.5484C94.0415 55.7209 95.9552 53.2604 98.9625 53.2604C101.833 53.2604 103.929 55.9487 103.929 59.6851C103.929 63.5581 102.107 65.9275 99.0081 65.9275Z" fill="white"/>
<path d="M130.129 52.5769C129.263 51.7112 127.987 51.21 126.529 51.21C124.615 51.21 122.929 51.7567 120.879 52.987C119.968 51.7567 118.692 51.21 116.96 51.21C114.91 51.21 112.951 52.1668 112.176 52.6225V51.62H109.989V67.6134H112.267V54.764C112.677 54.5362 114.682 53.3515 116.778 53.3515C117.689 53.3515 118.464 53.6249 118.965 54.1261C119.785 54.9463 119.785 56.3132 119.785 58.6371V67.6589H122.064V58.4092V58.2725C122.064 57.0878 122.064 55.4931 121.79 54.764C122.383 54.4451 124.342 53.4426 126.347 53.4426C127.349 53.4426 128.033 53.6705 128.58 54.2173C129.445 55.083 129.445 57.3157 129.445 58.1358V67.7045H131.724V58.9104C131.724 56.0854 131.724 54.1261 130.129 52.5769Z" fill="white"/>
<path d="M156.83 52.5769C155.964 51.7112 154.688 51.21 153.23 51.21C151.317 51.21 149.631 51.7567 147.58 52.987C146.669 51.7567 145.393 51.21 143.662 51.21C141.611 51.21 139.652 52.1668 138.877 52.6225V51.62H136.69V67.6134H138.968V54.764C139.379 54.5362 141.383 53.3515 143.479 53.3515C144.391 53.3515 145.165 53.6249 145.666 54.1261C146.487 54.9463 146.487 56.3132 146.487 58.6371V67.6589H148.765V58.4092V58.2725C148.765 57.0878 148.765 55.4931 148.492 54.764C149.084 54.4451 151.043 53.4426 153.048 53.4426C154.05 53.4426 154.734 53.6705 155.281 54.2173C156.146 55.083 156.146 57.3157 156.146 58.1358V67.7045H158.425V58.9104C158.425 56.0854 158.425 54.1261 156.83 52.5769Z" fill="white"/>
<path d="M173.142 51.6201V64.4239C173.142 64.4239 173.097 64.4239 173.097 64.4694C171.411 65.4263 169.862 65.882 168.54 65.882C167.583 65.882 166.809 65.563 166.216 64.9707C165.351 64.1049 165.351 62.738 165.351 61.0976V51.6201H163.072V60.7331V61.1888C163.072 62.8747 163.027 65.0162 164.531 66.4743C165.487 67.4312 166.809 67.9324 168.449 67.9324C170.727 67.9324 172.596 66.9755 173.37 66.5199V67.6134H175.512V51.6201H173.142Z" fill="white"/>
<path d="M191.55 52.5769C190.366 51.3922 188.725 51.21 187.814 51.21C185.536 51.21 183.577 52.2124 182.848 52.6225V51.62H180.615V67.6134H182.893V54.764C183.212 54.5818 185.399 53.306 187.541 53.306C188.452 53.306 189.363 53.6249 189.865 54.1261C190.73 54.9919 190.73 56.3132 190.73 58.1358V67.6134H193.009V57.9991C193.009 55.083 192.781 53.8072 191.55 52.5769Z" fill="white"/>
<path d="M204.263 51.21C199.843 51.21 196.973 54.5362 196.973 59.6851C196.973 64.6972 199.889 67.8868 204.4 67.8868C207.726 67.8868 210.05 66.3375 210.095 66.2008L210.141 66.1097L210.095 66.0186L209.23 64.5149L209.139 64.3782L209.002 64.4694C209.002 64.4694 208.956 64.5149 208.911 64.5149C207.544 65.2895 206.086 65.6996 204.536 65.6996C201.392 65.6996 199.388 63.5581 199.342 60.0951H210.551V59.9129C210.551 59.7306 210.551 59.4572 210.597 59.2294C210.597 59.0471 210.642 58.9104 210.642 58.8649C210.597 54.2628 208.136 51.21 204.263 51.21ZM208.273 58.1358H199.388C199.615 55.1741 201.575 53.1693 204.309 53.1693C207.361 53.2148 208.227 56.2221 208.273 58.1358Z" fill="white"/>
<path d="M3.59478 6.78433L2 7.37667V42.3706C2.04557 58.6373 13.3457 72.808 29.4757 76.8633L30.1136 77L30.7515 76.8633C46.8815 72.808 58.1816 58.6373 58.2272 42.3706V7.33111L56.6324 6.73876C47.9751 3.59477 39.0443 2 30.1136 2C21.0917 2 12.161 3.59478 3.59478 6.78433Z" fill="white"/>
<path d="M3.59478 6.78433L2 7.37667V42.3706C2.04557 58.6373 13.3457 72.808 29.4757 76.8633L30.1136 77L30.7515 76.8633C46.8815 72.808 58.1816 58.6373 58.2272 42.3706V7.33111L56.6324 6.73876C47.9751 3.59477 39.0443 2 30.1136 2C21.0917 2 12.161 3.59478 3.59478 6.78433Z" stroke="white" stroke-width="3"/>
<path d="M58.1817 35.1259V11.1587C32.073 12.3434 24.9648 24.2814 25.6027 28.6557C26.1951 32.073 26.5596 32.9388 28.9745 35.9005C31.3895 38.8622 32.7109 40.0013 36.2194 46.5627C38.9988 39.5913 47.7929 35.2626 58.1817 35.1259Z" fill="#006E73"/>
<path d="M24.2812 20.9093C28.7922 12.9354 42.1427 7.83217 58.1816 7.46765V7.37651L56.5868 6.78417C48.7041 3.86801 40.5935 2.3188 32.3918 2.04541C27.0607 7.9233 24.3268 14.2113 24.2812 20.9093Z" fill="#006E73"/>
<path d="M35.3992 56.4955C34.2145 47.7014 29.0656 42.5526 27.2886 40.0921C25.7849 38.1328 16.1252 28.8375 2 29.1109V42.3703C2 43.236 2.04556 44.1473 2.09113 45.0131C16.8086 45.1498 29.7035 49.6151 35.3992 56.4955Z" fill="#006E73"/>
<path d="M38.5888 52.3035C38.7255 52.8958 39.819 57.589 39.6823 61.1431C39.3634 69.5271 36.0827 74.357 35.3536 75.3594C48.9776 69.9827 58.1361 56.9967 58.1817 42.3703V38.8618C46.6082 38.9529 37.2218 46.699 38.5888 52.3035Z" fill="#006E73"/>
<path d="M22.2764 31.0248C20.6361 26.5138 20.5905 23.3698 20.5905 21.1371C20.5905 14.348 22.7321 8.10556 27.562 2.04541C19.4058 2.3188 11.3408 3.91358 3.59478 6.78417L2 7.37651V25.4203C9.60936 25.4658 16.3985 27.3796 22.2764 31.0248Z" fill="#006E73"/>
<path d="M34.989 64.9251C35.6725 57.1335 20.2259 49.0229 2.59229 48.7495C5.14393 62.2368 15.4872 73.3546 29.4756 76.8631C29.4756 76.8631 29.9313 76.9543 30.068 76.9998C34.2144 70.4385 34.8067 66.7933 34.989 64.9251Z" fill="#006E73"/>
</svg>
